<?xml version="1.0" encoding="UTF-8"?>
<svg id="Capa_2" data-name="Capa 2" xmlns="http://www.w3.org/2000/svg" viewBox="0 0 2143.45 644.2">
  <defs>
    <style>
      .cls-1 {
        fill: #1d1d1d;
      }

      .cls-1, .cls-2 {
        stroke-width: 0px;
      }

      .cls-3 {
        font-size: 107.89px;
        letter-spacing: .16em;
      }

      .cls-3, .cls-4 {
        font-family: Impact, Impact;
      }

      .cls-3, .cls-4, .cls-5 {
        fill: #000;
      }

      .cls-2 {
        fill: none;
      }

      .cls-4 {
        font-size: 206.73px;
        letter-spacing: .16em;
      }

      .cls-5 {
        font-family: Rockwell-Italic, Rockwell;
        font-size: 223.7px;
        font-style: italic;
        letter-spacing: .16em;
      }
    </style>
  </defs>
  <g id="Capa_3_Imagen" data-name="Capa 3 Imagen">
    <g>
      <path class="cls-2" d="M264.99,239.96c.02,1.95.37,2.41,2.42,2.42.91.01,1.73.16,2.6.39.25.06.54.13.78.05.33-.08.38-.63.37-1-.24-15,.47-30.07-.25-44.83-.84-.9-4.61-2.08-5.66-1.21l-.04.04c-.16.19-.22.46-.23.77,0,1.41,0,2.83,0,4.21.01,13.06-.03,26.11.02,39.16Z"/>
      <path class="cls-2" d="M220.1,203.24c-2.75-.76-5.44-1.5-8.17-2.26-.53-.19-1.05-.12-1.13.52-.27,1.52-.02,3.01.22,4.7.04.23.11.49.26.65l.04.04c.15.13.36.16.57.17,1.09,0,2.17.19,3.22.44,1.67.39,3.32.89,5.06.84.23,0,.5-.05.67-.19.26-.2.3-.59.31-.91.02-1.09.09-2.1-.04-3.05-.07-.53-.51-.83-1.01-.94Z"/>
      <path class="cls-2" d="M201.88,230.17l.04.03c.2.18.59.16.88.14,3.53-.26,6.96.05,10.34.65,5.8,1.03,11.43,2.86,17.24,3.97.71.17,1.11-.08,1.07-.86,0-2.04,0-4.01,0-6.01.04-1.15-.47-2.04-1.66-2.25-9.14-1.71-18.05-4.37-27.17-6.55-.28-.06-.51-.06-.67.03-.22.13-.26.48-.26.75,0,2.97,0,5.94,0,9.19,0,.3.01.71.2.91Z"/>
      <path class="cls-2" d="M263.25,197.26c-.05-2.01-2.32-1.17-3.58-.79-.31.08-.66.18-.88.41l-.04.04c.53,14.03.81,28.21.56,42.45-.03.83.4,1.2,1.26,1.32.72.11,1.71.54,2.52.43.38-.08.36-.64.3-1.01-1.91-14.5.22-28.49-.14-42.85Z"/>
      <path class="cls-2" d="M273.53,241.71c0,.39,0,.86.2,1.16.48.67,1.79.38,2.59.53,1.36.32,1.96.04,2.1-1.47.06-6.03-.08-12.11.04-18.15.17-6.8-.32-13.62-2.03-20.18-.47-1.55-1.2-2.97-2.49-4.05-.2-.17-.47-.36-.72-.31h-.04c-.32.14-.35.93-.37,1.53-.03,2.43.73,4.63.64,6.98.01,5.34-.58,10.68-.64,16.03.03,5.97.85,11.95.73,17.94Z"/>
      <path class="cls-2" d="M265.73,244.57c5.02,2.81,10.26,3.84,15.66,4.34.26,0,.47-.03.62-.15.37-.32.32-1.38,0-1.75l-.04-.05c-.14-.15-.34-.23-.57-.29-5.28-.96-10.46-1.9-15.85-2.56-.77-.08-.11.29.18.45Z"/>
      <path class="cls-2" d="M105.24,133.86c4.32-1.78,8.67-3.51,13.06-5.16.71-.28,2.1-.8,2.48.12.12.35-.37.67-.7.8-5.56,2.45-11.15,4.76-16.81,6.87-.61.23-.91.76-.89,1.39,0,2.25,0,4.51,0,6.94-.01.32.04.74.28.89,7.02-2.06,13.84-5.36,20.53-7.75.64-.24,1.02-.79,1.07-1.46.2-1.02-.33-9.87,1.19-8.98,1.06,2.64.16,5.68.78,8.49.2.59.79.46,1.27.26,5.77-2.09,11.04-4.6,16.76-6.28,2.04-1.21,1.37-3.98,1.38-6.05-.03-.44-.04-1.06-.48-1.26-.29-.13-.71,0-1.02.13-3.99,1.44-7.84,3.52-11.89,4.76-.99-.02-1.09-.93-.24-1.3,4.55-2.38,9.39-4.54,14.41-6.08,1.78.95.56,5.47,1.04,7.35.04.54.33.84.9.57.75-.29,1.65-.4,2.42-.75,5.73-2.09,11.36-5.06,17.42-5.99,3.19.3,6.39,1.64,9.56,2.26,1.02.03,4.19,1.69,4.26.21.03-3.19.06-6.3,0-9.45-.08-.66-.68-.6-1.18-.42-3.43,1.09-6.53,2.85-10.03,3.22-1,.13-.73-.23-.1-.58,3.35-2.05,7.03-3.25,10.57-4.68.52-.27.76-.75.82-1.32,1.01-8.46.73-16.95.72-25.68-.03-.71-.4-.82-1.03-.55-10.99,4.53-21.61,8.91-32.1,13.24-2.24.88-.35,6.14-1.55,8.53-.11.32-.38.98-.7.48-1.28-1.57.59-8.76-2-7.26-3.56,1.5-7.12,2.97-10.6,4.46-.64.27-.9.89-.87,1.57,0,4.03-.04,7.88.02,11.73.07,1.32-.05,2.88-1.44,3.46-3.57,1.37-7.11,2.95-10.8,3.96-1.76.41-1.77-1.5-2.69-2.42l-.04-.02c-5.15,2.57-10.24,5.52-15.62,7.42-.49.18-.96.48-1.06,1.01-.07,1.24-.32,2.73.26,3.83.77.48,1.87-.35,2.66-.52ZM181.64,91.03v.02c-3.97,2.38-8.2,4.13-12.44,5.15-.19.04-.64.15-.68,0,1.5-2.41,11.11-6.37,13.12-5.16ZM142.68,114.15c3.08-1.1,5.99-2.68,9.11-3.7.9-.43,2.64-.23,2.69-1.51,0-.26-.07-.55-.05-.8.11-.74,1.05-.97,1.67-1.35,1.93-.98,3.98-1.68,6-2.43,4.75-1.83,9.6-3.46,14.35-5.31.4-.14.77-.27,1.18-.22.45.04.97.44.95.77v.04c-.04.27-.43.44-.7.55-5.31,2.1-10.44,4.12-15.63,6.18-.64.24-.89.81-.84,1.46.1,3.3-.39,6.55.28,9.79.09.47.19,1.01.05,1.46-.2.8-1.32.95-1.76.28-.26-.37-.31-.89-.33-1.35-.05-3.02.06-6.05-.06-9.05-.12-.71-.71-2-.97-.52-.24,1.41-1.54,1.98-2.76,2.39-4.55,1.59-8.98,3.5-13.42,5.4-.82.35-2.41,1.09-2.84-.04-.02-1.26,2.15-1.62,3.08-2.03Z"/>
      <path class="cls-2" d="M284.73,249.49c.46.62,1.76.33,2.53.49.46.05.96.26,1.24.16.21-.07.3-.31.32-.67.07-7.48.06-14.69.74-22.01.06-4.1-.62-8.2-.73-12.3.04-4.02.35-8.09-.71-12.02-2.65-12.12-10.41-16.85-22.52-17.01-3.79-.19-7.43,1.93-10.41,5.25-1.68,1.79-2.6,4.11-3.59,6.24-.16.6.36.58.82.2l.05-.04c4.71-3.3,10.24-5.72,15.98-3.99,8.85,2.42,12.42,11.7,12.33,20.24.06,2.65-.22,5.32,0,7.96.26,2.51,1.01,5.18.54,7.61-.95,4.61-.34,9.12-.55,13.91-.12,1.26,1.34.67,2.09,1,2.2.59,1.17,3.32,1.86,5Z"/>
      <path class="cls-2" d="M250.89,239.47c1.64-.13,3.32.65,5.05.66.28,0,.6-.05.79-.24l.04-.04c.61-13.56,0-27.32.22-41.06.05-.97-.35-1.15-1.17-.68-3.57,1.88-5.75,4.46-6.42,8.24-.52,9.98-.02,20.06-.19,30.06,0,1.36-.34,3.39,1.69,3.06Z"/>
      <path class="cls-2" d="M247.17,198.12c-2.48-.41-4.84-1.59-7.41-1.92-.75-.09-.94.62-.91,1.23-.02,2.97.05,5.92-.05,8.92.06,1.11-.73,3.64-1.39,2.42-.63-3.46-.16-7.07-.27-10.59-.04-1.33.33-3.19-1.42-3.5-7.56-2.24-15.22-4.01-22.75-6.3-8.17-2.52-16.31-5.29-24.61-7.35-.85-.28-1.33.18-1.3,1.02-.36,5.54.06,11.07-.27,16.64.19,1.73,2.67,1.22,3.98,1.77.76.23,1.2-.28,1.14-1.03,0-4.54,0-8.92,0-13.26-.25-1.18,1.05-2.96,1.57-1.02-.05,5.42.64,11.08-.23,16.42-1.35,2.46-5.87-.23-8.17-.29-5.18-1.26-10.37-2.47-15.64-3.7-.51-.13-1.19-.25-1.31.42.07,3.55-.43,7.27.21,10.66,17.9,5.53,36.74,9.63,54.93,13.83l.03-.03c.59-2.15.06-4.66.23-6.93-.17-1.45.4-3.26-.32-4.57-3.59-.65-7.29-1.34-10.85-2.1-.89-.14-1.84-.33-2.48-.99-1.86-1.83-.22-5.08-1.31-7.15-.97-1.13-2.9-.86-3.79-1.87-1.02-1.66,1.67-1.38,2.59-1,4.12,1.01,8.18,2.21,12.28,3.22,3.12.36,3.89,1.82,3.83,4.86.09,1.21-.32,2.73,1.16,3.08,4.6,1.14,9.25,2.22,13.85,3.41,1.58.48,3.47.48,4.48,1.98.26.4.25.73-.06.8-5.63-.61-10.88-2.62-16.39-3.7-.85-.28-1.32.29-1.22,1.11.1,3.35-.19,6.52.12,9.73.21,1.02,1.27,1.3,2.19,1.42,4.23.6,8.34,1.71,12.44,2.82,1.12.37,2.28.36,3.38.78,2.55,1.37-.33,1.62-1.72,1.36-9.55-1.45-8.26-4.76-8.61,5.88-.09.54-.02,1.13.59,1.29,14.03,2.71,12.51,7.45,12.47-6.03-.09-10.51-.36-21.05,1.88-31.31-.17-.25-.55-.35-.87-.4Z"/>
      <path class="cls-2" d="M168.89,124.47c-.77.96-.96,2.37-.68,3.54.16.6.4,1.19.37,1.82-.63,2.57-.84,5.19-.61,7.8,0,.6.3,1.07.88,1.3,8.29,3.69,17.93,4.71,25.73,9.13-.03,1.07-1.59.84-2.31.5-7.66-2.65-15.47-4.51-23.09-7.43-.28-.12-.74-.28-.94-.12-.21.14-.23.57-.23.86,0,4.33,0,8.52,0,12.63-.05.7.31,1.29,1,1.49,2.38.92,4.64,1.65,7.03,2.32,1.75.49,1.74,2.4,1.68,3.9-.04,4.31-.07,8.62,0,12.93.29,1.44,2.3,1.54,3.36,2.12,11.33,3.22,22.69,6.42,33.9,10.05,1.29.22,5.91,2.72,5.75.33.18-4.58-.32-8.98.19-13.4.06-.72,1.33-1.49.93-2.08-12.2-4.32-24.62-6.79-36.22-11.35-.82-.3-.38-.48.19-.51,3.87-.31,7.29,1.81,10.98,2.4.74.2,1.28-.24,1.23-1.01.26-4.06-.4-8.23.32-12.33.43-1.19,2.81.72,3.71.61.64.13.88-.48.83-1.04-.18-4.82.35-9.79-.2-14.54l-.03-.05c-10.53-4.4-21.69-7.21-32.55-9.99-.4-.1-.91-.17-1.21.1Z"/>
      <path class="cls-2" d="M184.38,124.5c.03.62.33,1.03.91,1.25,6.63,2.12,13.17,5.05,20.02,6.39.33-.1.38-.65.37-1.02-.03-7.3.06-14.33-.03-21.34-.06-.55-.44-.89-.94-1.06-2.11-.72-4.2-1.41-6.35-2.12-.71-.26-1.1.03-1.12.78-.15,2.46-.12,4.86-.01,7.28.14,1.93-1.64,1.63-2.9,1.07-1.04-.43-1.94-.51-2.04.73-.28,2.69.49,5.57-.7,8.13-.1.19-.21.28-.31.25-.17-.06-.27-.44-.32-.66-.6-2.77-.25-5.62-.42-8.36-.02-.31-.07-.65-.21-.92-.3-.64-1.14-.9-1.82-1.26-.35-.21-1.81-.71-.88-1.01,2.42-.57,4.64.68,6.91,1.07.54.04.77-.44.82-.91.2-2.13-.08-4.26.27-6.36.02-.56-.41-.86-.9-1.02-2.79-1.03-5.61-2.06-8.75-3.22-.27-.1-.69-.24-.89-.1l-.03.02c-.2.14-.17.64-.15.94.53,7.38-.65,14.35-.52,21.43Z"/>
      <path class="cls-2" d="M167.69,226.17c.08.56.43.98.96,1.17,1.05.37,2.14.57,3.22.68,3.38.45,6.77-.58,10.12-.47,5.86.37,11.48,3.69,17.49,2.56.31-.2.38-.62.38-.99,0-3.11,0-6.17,0-9.32,0-.31-.03-.68-.2-.92l-.03-.04c-.15-.19-.39-.3-.68-.38-10.1-2.24-20.23-5.23-30.43-7.51-.28.12-.3.61-.3.94.04,4.88-1.07,9.57-.53,14.28Z"/>
      <path class="cls-2" d="M103.32,127.88c2.26-.99,4.45-1.98,6.65-3.05,1.45-.71,2.91-1.45,4.37-2.26.23-.13.46-.3.59-.51l.03-.05c.14-.26.16-.59.15-.9-.02-2.81.2-5.63-.09-8.61-.02-.27-.09-.68-.33-.76-.21-.08-.57.09-.8.22-3.68,1.88-7.67,2.44-10.86,4.7-.47.33-.66.86-.65,1.43,0,3,0,5.99,0,9.13-.02.74.23,1.02.94.67Z"/>
      <path class="cls-2" d="M116.94,120.41c.08.81.7.72,1.5.71.52,0,1.11.02,1.51.11.65.14.93.48,1.23,1.12.21.49.69.65,1.18.43,2.45-.99,4.88-2.06,7.39-2.92,2.09-.61,2.6-1.37,2.49-3.54-.02-3.3,0-6.65,0-10.56,0-.29,0-.76-.19-.91l-.03-.03c-.19-.14-.59.02-.84.12-4.74,1.98-9.17,3.82-13.45,5.62-.2.1-.38.22-.5.38-.22.26-.27.67-.27,1.03.01,2.94-.03,5.68.02,8.44Z"/>
      <path class="cls-2" d="M185.3,99.11c0,.32.02.7.18.94l.03.05c.17.23.46.36.74.46,2.48.89,4.96,1.8,7.46,2.69,3.78,1.34,7.6,2.73,11.55,3.83.61.14.75-.39.73-.9-.01-3.98-.09-7.77.03-11.55.25-3.1-.86-4.14-3.66-5.14-4.3-1.72-8.52-3.68-12.82-5.38-1.16-.41-3.61-1.88-4.2-.08-.12,4.98,0,10.02-.04,15.09Z"/>
      <path class="cls-2" d="M168.11,172.07c.01.23.06.45.16.63.15.26.43.45.71.57,1.83.79,3.72,1.29,5.71,1.9.24.07.55.15.74.03l.04-.03c.19-.16.18-.53.18-.8-.02-2.35-.05-4.5.02-6.66.05-2.28-.35-4.6.39-6.81.11-.49-.18-.83-.61-1.01-2.05-.92-4.18-1.55-6.39-2.15-.7-.21-.99.11-.95.82,0,4.64,0,9.11,0,13.5Z"/>
      <path class="cls-2" d="M206.51,88.24c.09.7.91,1.81,1.55,1.68l.04-.02c1.06-17.33-.5-34.92.9-52.45.02-1.69-2.54.24-2.5,1.05-.11.42-.13.92-.14,1.4.2,16.12-.17,32.24.15,48.35Z"/>
      <path class="cls-2" d="M256.85,243.5c3.21.89,4.9,1.04,7.29.27-2.4-.1-4.71-1.13-7.44-.7-.13.02-.42.07-.43.17v.02c.08.1.41.19.58.24Z"/>
      <path class="cls-2" d="M309.52,107.56c.64,1.78.41,3.67.49,5.57.28,3.69-.36,7.35-.59,11.02-.1,3.12-.38,6.23-.61,9.35-.2,4.64.62,9.26.82,13.9.06,2.88.94,5.66,1.02,8.54.15,4.11.59,8.2,2.29,12.02.39.87,1.18,1.18,2.27,1.34.42.07,1,.19,1.34-.06l.03-.03c.17-.18.19-.49.2-.75.05-2.07.19-4.15.09-6.21-.06-1.55-.39-3.12-.48-4.71-.2-7.37-.14-14.77-.17-22.16-.19-4.78.28-9.53.63-14.29.03-5.54-.02-11.08-.04-16.61-.05-2.48.15-4.97-.19-7.43-.07-.52-.16-1.15-.38-1.29-.29-.2-.52.34-.56.83-.04.52.12,1.09.22,1.62.6,2.72-.18,5.31-2.28,7.24-.99,1.29-4.47.09-4.1,2.11Z"/>
      <path class="cls-2" d="M225.03,60.47h.01c.66-3.11,1.59-6.21,2.56-9.32.18-.5.01-.86-.54-.87-.95.02-3.33-.46-2.79,1.19.86,2.96-.08,6.13.75,9Z"/>
      <path class="cls-2" d="M319.17,169.17c-.04.75.31,1.32,1.01,1.57,2.02.82,4.05,1.51,6.21,2.04.67.17,1.17.04,1.15-.84-.24-25.64.47-51.31-.25-76.55-.69-1.06-6.92-1.52-7.85-.83l-.04.04c-.67,24.89,0,49.87-.23,74.56Z"/>
      <path class="cls-2" d="M295.12,73.95c.84,3.77,1.53,7.68,2.58,11.37.04,0,.06-.22.07-.54.24-14.59-.06-29.21.99-44.04.01-.52-.28-.83-.74-.88-1.13-.14-2.05.2-1.96,1.44.1,3.18-.9,6.37-.75,9.65.22,2.44-.43,3.21-2.95,3.03-.28,0-.59.02-.77.21l-.03.04c-.18.21-.12.63-.06.93,1.15,6.31,2.33,12.55,3.63,18.8Z"/>
      <path class="cls-2" d="M291.69,237.97c-.03,1.45.88,2.04,2.21,2.23,1.8.34,3.55.78,5.35,1.2.71.2,1.03-.06,1-.8,0-2.89,0-5.74,0-8.69,0-.3-.01-.65-.17-.88l-.03-.05c-.15-.21-.42-.32-.68-.41-2.23-.71-4.5-1.6-6.99-1.65-.57.01-.73.53-.71,1.03.01,2.8-.02,5.36,0,8Z"/>
      <path class="cls-2" d="M333.84,178.46v.03c-.2,3.79-.01,7.59-.09,11.22,0,.76-.03,1.68.54,2.26.42.43,1.1.64,1.67.83,6.37,2.02,12.73,4.08,19.17,6.15,1.08.42,1.28-.25,1.27-1.18-.02-3.8.12-7.68-.05-11.47-.05-.2-.14-.31-.27-.39-3.08-1.43-18.4-6.74-21.87-7.57-.15-.04-.3-.05-.37.12Z"/>
      <path class="cls-2" d="M358.91,253.12c.18.19.67.1.97.05,8.49-1.49,16.55-3.76,24.12-7.53.53-.29.48-.59-.03-.9-7.36-4.36-15.45-6.64-23.45-9.7-.46-.2-1.06-.33-1.15.28-.11,1.12-.02,2.29-.05,3.29-.02.51.19.96.79.88,4.74-.59,11.12.77,14.15,3.5.32.44-.02.65-.5.6-4.44-1.01-8.84-2.46-13.55-2.03-.64.05-.99.51-.99,1.12-.12,3.01.22,6.24-.38,9.54-.05.27-.12.67.04.86l.03.03Z"/>
      <path class="cls-2" d="M341.56,159.86c-.32-.3-.87.08-1.39.02-.74-.04-1.97-.74-2.54-.15l-.03.04c-.12.19-.09.5-.06.75.29,1.85-.03,3.65-.31,5.44-.03.23-.04.5.05.7.1.23.31.39.54.5,1.2.53,2.5.9,3.85,1.29.62.19.84-.16.8-.75-.1-2.67.48-5.51-.9-7.83Z"/>
      <path class="cls-2" d="M330.81,172.28c-.1,1.87.53,2.59,2.32,3.06,2.75.85,5.46,1.8,8.21,2.74.26.09.65.19.84.06.22-.13.26-.49.27-.76,0-1.91,0-3.75,0-5.55-.01-.3-.07-.61-.25-.86-.18-.27-.49-.46-.8-.59-2.72-1.25-5.78-1.6-8.31-3.12-.23-.14-.48-.34-.5-.61-.02-.49.6-.79,1.09-.78.8.03,1.83.69,2.03-.39.2-1.96.04-3.89.09-5.95.11-1.57-1.45-1.29-2.48-1.97-.53-.33-1.16-.83-.57-1.15,1.03-.41,2.09-.32,4.49.52,1.11.39,2.19.82,3.22,1.23.35.12.91.46,1.24.28l.03-.02c.2-.15.2-.6.2-.88,0-2.68-.01-5.2,0-7.74.06-1.26-.15-2.49-1.55-2.85-2.74-.93-5.51-1.78-8.42-2.7-.63-.23-1.16-.16-1.15.64-.02,9.35,0,18.14,0,27.36Z"/>
      <path class="cls-2" d="M300.26,85.93c0,.36.07.69.25.95.18.27.49.48.8.63,3.11,1.55,6.57,2.03,9.44,3.89.31.2.78.45.93,0,.22-.77.18-1.63.21-2.42,0-2.85-.53-5.61-.63-8.38-.09-11.92,0-23.84-.03-35.75-.08-2.11.46-5.11-2.41-5.36-2.46-.36-4.75-.22-7.28-.21-.35,0-.78,0-1.02.22l-.04.04c-.63,15.6-.01,31.21-.22,46.4Z"/>
      <path class="cls-2" d="M204.64,135.22c-.13,3.16,0,6.44-.05,9.62.2,2.01-.46,4.22.37,6,5.63,2.47,12.1,3.41,17.92,5.68,1.07.41,2.68.68,3.08,1.9.28.43.78,8.29-.87,6.79-1.4-2.13.89-5.81-1.95-6.69-5.36-1.65-10.73-3.29-16.09-4.96-.69-.2-1.4-.48-2.11-.42-.54.05-1.06.54-1.42.39-.82-.7-1.34-2.01-2.55-2.09-.7-.21-1.21.4-1.11,1.1,0,3.18,0,6.4,0,9.62-.03.75.3,1.37,1.05,1.59,1.96,1.3,28.64,6.69,24.73,8.75-.82.53-2.87-.87-2.94.53.63.96,1.99,1.13,3.04,1.37,3.83,1.47,1.36-5.2,2.42-7.11.47-1.27,1.52-.23,1.46.77.5,2.34-1.42,7.75,2.09,7.97,2.22.34,4.23,1.4,6.38,1.91,1.8.45,3.77.72,5.27,1.9,1.53,1.75-1.68,1.51-2.59.9-4.45-1.75-9.2-2.43-13.68-4.07-1.33-.18-4.32-1.99-4.66-.11-.04,3.88,0,7.66-.01,11.51-.06.9.43,1.54,1.34,1.68,8.11,2.18,16.25,4.14,24.21,6.55,1.78,1.24,4.51-8.02,10.93-10.88,1.76-.83-3.74-1.46-4.33-1.88-2.86-.85-7.87-2.47-6.25-3.59,3.4.75,7,1.53,10.33,2.71,3.91,1.66,8.19.07,12.24.94,11.38,1.68,19.42,11,20.31,22.35,0,.68.42,1.24,1.14,1.23,2.31.24,5.47.25,7.1,2.2-1.9,1.69-5.4-1.24-7.42-.02-.8,4.97-.04,10.32-.3,15.31-.01,1.01.12,2.16,1.19,2.57,21.48,4.37,14.3,7.32,16.43-8.66,1.16-2.72-9.27-1.96-9.48-4.99.22-1.35,6.8,1.44,8.26,1.36,2.7.61.56-7.03,2.11-8.76,1.52-1.24.41,8.71,1.39,9.43,9.71,3.27,20.12,5.07,29.9,8.21l.04.04c1.09,1.26-.51,3.39.33,4.75.25.37.75.56,1.19.67,4.32.92,8.61,2.54,12.96,3.09.3-.15.36-.66.34-1.03,0-5.13-.01-10.21,0-15.33.4-3.23-2.9-2.77-5.02-3.57-.72-.17-1.14-.97-.58-1.49,1.38-.77,3.91.93,5.24.15.63-2.79.06-5.9.24-8.7.05-.79-.41-1.39-1.19-1.54-1.49-.02-10.28-4.64-9.66-1.7-.28,4,.37,7.88-.09,11.65-2.82,2.57-1.6-8.9-1.75-10.18.95-6.53-8.64-4.1-11.17-8.25-1.75-4.37-1.06-9.13-.8-13.8.04-.42,0-.91-.28-1.21-7.3-2.96-15.21-5.11-22.98-7.88-.84-.38-1.48-.1-1.43.86-.2,3.75.32,7.45-.8,11.14-.18.49-.21,1.08.38,1.17,1.26-.08,3,1.47,3.96.38.37-1.12-.04-3.31,1-4.04,1.84.24.4,4.93,1.16,6.31.43,1.92,2.74,2.24,4.34,2.8,3.37.84,6.86,2.37,10.41,2.84.51-.32.29-1.15.32-1.68-.08-1.95.15-3.89-.01-5.78,1.03-9.52,5.13,7.26-.24,8.8-4.33.72-8.56-2.04-12.76-2.81-1.03-.25-1.77.48-1.69,1.5,0,2.5.08,4.83-.32,7.05.37,1.58,6.08.83,8.35,3.02,3.55,3.94-9.44-1.91-10.49-1.82-5.25-.81-10.55-2.22-15.56-3.99-2.06-.62-3.45-2.4-3.27-4.59-.05-3.34.28-6.63.73-9.94.03-1.06.95-1.67,1.95-1.49,15.18,3.86,8.22,4.03,10.78-9.21.18-1.55-1.5-2.19-2.75-2.54-5.3-1.65-10.57-3.55-16.01-5.31-1.72-.18,0,2.45-.12,3.33.2,1.3-.55,2.31-1.08,3.5-.71,1.73-.79,3.59-1.05,5.43-.23,2.05,3.15,1.8,4.26,3.08,1.52,2.56-4.41-.16-5.24-.39-8.09-2.66-16.35-5.74-24.65-7.3-1.18.01-1.02,2.43-2.29,1.72-.88-.93-.02-2.75-1.63-3.09-7.02-2.34-14.2-4.07-21.17-6.54-.76-.29-1.57-.63-1.98-1.34-.27-.54.3-.58.71-.49,4.96.7,9.77,3.09,14.69,3.71.29-.16.3-.66.3-1-.24-4.47.49-9.15-.29-13.54-13.44-5.3-27.55-9.48-41.23-14.39-.51-.15-.88-.14-.99.37ZM343.37,222.6c-.06.62-.58.74-1.14.88-.13.03-.31.14-.44.09l-.02-.02c-.06-.08-.03-.37-.03-.52.05-2.28-.06-4.57.09-6.82.05-.7,1.08-1.77,1.4-.66.67,2.33.35,4.72.15,7.06ZM324.53,196.9c.51-.66.88.38,1.05.98.18.67.2,1.37.19,2.04.04,1.09-.37,2.59.69,3.27,2.48,1.37,5.62,1.1,8.05,2.61,1.55.99.75,2.78,1.4,4.1.52.83,1.67.98,2.55,1.21,2.77.64,5.5,1.51,8.27,2.32.34.1.66.28.71.65-.1,1.36-1.68,1.08-2.62.79-4.4-1.13-8.8-2.33-13.18-3.54-.42-.12-1.07-.38-1.05-.85v-.05c.11-.56.79-.81,1.3-.82.5-.06,1.23.36,1.67.04.26-.22.28-.6.3-.93.04-.62-.01-1.33-.63-1.63-2.18-.9-4.55-1.03-6.76-1.7-1.91-.52-2.61-1.21-2.4-3.26.06-1.66-.37-3.55.46-5.23Z"/>
      <path class="cls-2" d="M211.26,131.06c.07,1.54-.37,3.4,1.75,3.69.56.15,1.4.29,1.39-.53.04-9.68.02-19.38-.01-29.06-.06-1.75.32-3.45,1.63-4.67,3.03-5.35,6.71-10.6,6.26-17.01-.34-15.58,1.15-31.68-1.2-47.04-.48-1.23-9.98-.95-10.19.31l-.03.05c.16,31.36.71,62.85.39,94.26Z"/>
      <path class="cls-2" d="M310.25,185.9l-.03-.05c-.16-.21-.43-.34-.69-.42-1.95-.6-3.9-1.19-5.84-1.79-2.87-.88-5.74-1.76-8.64-2.64-.74-.25-1.02.08-.98.83,0,3.44,0,6.73,0,10.17-.05.73.4,1.26,1.1,1.39,4.77,1.43,9.57,2.89,14.41,4.32.22.05.41.07.55,0,.26-.1.3-.49.3-.77,0-3.31,0-6.59,0-10.09,0-.33-.02-.72-.19-.98Z"/>
      <path class="cls-2" d="M225.56,93.95c1.75-.42,3.39-1.6,4.92-2.54,3.78-2.8,8.75-1.92,12.89-.95,2.34,2.55.98,9.47,2.46,13.3,3.36,10.45,1.07,12.79.35,22.45-.19,4.76,3.01,9.29,2.19,14.06-.27,1.47-.4,2.92-.44,4.42-.08,1.12-.14,2.18,1.07,2.47,19.99,6.68,39.91,13.33,60.18,20.1.92.32.92-.22.63-.92-1.67-4.08-1.45-8-1.65-12.13-1.71-7.76-1.85-15.69-1.62-23.59.32-12.79,5.68-26.06-9.15-32.91-1.97-.87-4.18-.75-6.29-.88-5.56-.29-11.12-.91-16.7-.81-1.32.21-3.99-.47-4.22,1.4.01.6.58,1.15.52,1.77-.24,1.43-1.49.33-2.07-.37-1.63-1.6-3.24-3.31-5.28-4.39-3.79-2.07-8.58-1.33-12.02-4.19-2.48-1.96-12.15-8.83-12.23-11.47.21-.53.91-.43,1.31-.07,1.83,1.77,5.62,6.05,3.3.25-1.13-3.15-1.79-6.35-2-9.66-.28-2.48-.7-4.92-1.24-7.35-.15-.86-.6-1.84-.17-2.63,1.41-1.52,1.91,2.22,2.32,3.06,1.18,5.83,1.6,11.8,3.58,17.45.51,1.1.17,2.53.51,3.56,2.14,2.54,4.79,5.15,7.93,6.34,5.11.63,9.85,1.43,13.41,5.6,1.23,1.29,1.74-1.42,4.09-.94,1.64.24,3.15-.48,4.81-.52.67-.2,3.5.52,2.83-.78-1.71-2.41-2.8-4.88-2.57-7.78-.4-8.74,1.64-17.34,1.24-26.09-.06-.8,0-2.17.97-2.23,2.43,8.9-.79,18.95-.28,28.17-.02.8.29.67.57.1,1.37-2.43,2.97-4.71,5.18-6.76,1.23-1.03.79,1.18.4,1.72-1.84,3.65-6.69,6.57-4.89,11.15.54.77.47,2.06.85,2.72.31.3.69.3,1.11.32,2.7.05,5.63-.03,8.43,0,4.21.39,9.11.35,11.99,3.98,2.57,2.32,5.54,6.79,9.46,5.56,2.69-2.68,1.43-7.22-1.19-9.53-1.84-1.75-4.22-2.6-6.66-3.24-2.45-.54-4.48-2.02-6.74-3.01-1.25-.59-3.89-.71-3.65-2.61.24-.84.84-1.44.64-2.39-.83-4.15-1.86-8.28-2.77-12.41-1.32-5.53-1.47-11.32-3.32-16.71-1.24-4.24-3.62-8.25-7.76-10.14-14.52-10.13-13.33-2.76-9.54-19.95,1.84-11.13-.77-25.59-15.39-20.57-4.38,1.9-7.85,5.7-8.5,10.31-.34,5.15-.45,10.43,1.47,15.3,2.02,3.96,4.25,7.28-1.56,8.94-13.52,5.78-17.88,9.58-20.07,24.55-1.66,7.56-3.07,15.23-2.42,23.04-.27,2.73-1.58,6.19.71,8.41h.05Z"/>
      <path class="cls-2" d="M296,256.51c1.62.11,3.25.53,4.74.43,1.48-.13,2.98-.46,4.48-.67,6.68-1.1,13.43-1.79,20.22-1.56,4.4.07,8.78.29,13.15,1.02,1.86.33,3.74.52,5.64.41,3.63-.27,7.04-1.45,10.66-2.03.45-.08.94-.19,1.18-.57.53-5.83.02-11.83.19-17.79.04-.75-.28-1.38-1.05-1.56-9.29-2.82-19.07-4.32-28.03-8.12-.1-.2.47-.2.66-.23,3.73-.2,7.2,1.49,10.85,2.01.31.04.7.05.92-.15.37-.3.35-1.13.32-1.75-.03-.55-.31-1.01-.86-1.22-8.91-2.38-17.81-4.59-26.47-6.82-.38-.07-.73-.08-1.04.18-.29.32-.31.77-.34,1.19-.13,3.22.34,6.52-.43,9.72-.15.68-.39,1.47.13,2.04.32.36.78.59,1.12.92.96,1.14.99,2.92,2.77,3.41,7.63,1.84,15.53,2.78,23.15,4.82,1.14.36,2.64.64,3.55,1.42,1.26,1.42.59,5.28.75,7.18-.14,1.15.83,1.85,1.82,2.12.98.33,2.04.65,3.1.73.41.05.87.1,1.19.37.63.49.34,1.57-.52,1.56-2.54-.36-7.05-.82-7.33-4.06-.09-1.93-.64-3.76-.65-5.75.05-.69-.17-1.36-.93-1.48-4.75-.99-9.41-1.94-14.15-2.92-.27-.05-.7-.15-.88.01-.11.04-.17.42-.15.52.13,1.09.44,2.36-.25,3.27-.67,1.05-1.61,1.46-1.81-.14-.26-1.2.34-2.85-.36-3.87-.22-.26-.56-.41-.9-.51-1.99-.57-3.99-1.14-6.03-1.56-4.61-1.03-.92-4.14-7.53-4.77-7.21-2.53-3.38.62-4.25,5.41-.68,3.38-1.18,4.33,2.66,5.01,4.88,1,9.66,2.39,14.57,3.34,2.49.37,4.41,1.42,3.11,4.35-.14.27-.22.66-.51.76h-.03c-.25-.15-.27-.49-.38-.76-1.07-3.6-5.14-2.51-7.91-3.53-6.99-1.92-14.17-3.24-21.18-5.27-.49-.16-1.06-.16-1.1.51-.05,2.64-.03,5.26,0,7.9,0,1.11,1.27.81,1.98,1.16,2.42.86-.46,5.15,2.11,5.29Z"/>
      <path class="cls-2" d="M283.84,161.58l-.03-.05c-10.96-4.34-22.45-7.65-33.58-11.62-.75-.26-.93.26-.9.9,0,4.4,0,8.66,0,12.88-.04.7.26,1.28.97,1.46,10.71,3.13,21.33,6.78,32.29,9.7.29-.1.27-.57.24-.87-.35-3.89,1.13-7.43,1.21-11.37.01-.35-.01-.76-.2-1.03Z"/>
      <path class="cls-2" d="M217.25,102.62c-.37.83-.4,1.88-.4,2.81.2,10.14-.37,20.48.21,30.7l.03.05c.19.26.56.41.88.52,4.58,1.57,9.03,3.09,13.54,4.63.28.1.71.21.9.02.41-16.08.31-32.31.04-48.42-.18-.2-.64.04-.89.19-4.05,2.35-7.89,4.57-11.65,6.92-1.04.64-2.19,1.44-2.66,2.59Z"/>
      <path class="cls-2" d="M235.34,142.28l.03.05c.17.24.5.39.79.49,2.73.97,5.4,1.95,8.32,2.75.82.24,1.11-.08,1.08-.92.05-4.85.67-9.3-1.12-13.61-1.2-3.8-.57-7.77.01-11.62.44-2.87.64-5.8.32-8.69-.59-4.95-2.64-9.66-2.32-14.73.15-1.43-.19-3.68-1.98-3.64-1.4-.09-2.81-.84-4.29-.59-.67.1-1.06.6-1.04,1.3.18,16.32-.37,32.78.19,49.22Z"/>
      <path class="cls-2" d="M184.73,180.49c-.18-.27-.55-.42-.88-.52-4.81-1.59-9.63-3.19-14.58-4.82-.25-.09-.65-.2-.83-.07l-.03.02c-.18.14-.19.55-.19.83,0,6.33,0,12.5,0,18.68,0,.66.44,1.03,1.05,1.14,4.84,1.16,9.62,2.29,14.53,3.46.86.26,1.2-.05,1.15-.95,0-5.76,0-11.21,0-16.75,0-.34-.02-.75-.22-1.01Z"/>
      <path class="cls-2" d="M61.16,358.48l.05.05c2.35,2.01,5.56.37,7.59-1.29,4.06-3.46,2.3-8.02,1.29-12.45-.57-2.21-1.16-4.43-1.97-6.58-1.53-4.13-6.02-5.13-9.92-5.6-1.29-.18-2.62-.35-4.02-.63-.21-.04-.45-.07-.63-.03-.37.07-.23.63-.13.95,2.74,8.74,4.83,17.35,7.74,25.57Z"/>
      <path class="cls-2" d="M13.7,351.08c1.58-.69,2.66-2.06,2.96-4.32.12-.81.17-1.26.14-1.94-.3-2.78-2.22-10.29-5.21-11.58-2.42-1.12-4.13,1.25-5.92,2.49-.36.25-.79.52-1.06.51.2,2.39.8,4.66,1.65,6.5,1.39,3.13,2.79,5.89,4.39,8.63.19.32.39.67.62,1.04.15-.18.63-.29,1.05-.51.48-.23.93-.56,1.39-.82Z"/>
      <path class="cls-2" d="M26.48,353.9c-2.47-7.38-4.4-14.95-7.01-22.29-.73-2.69-3.96-3.12-6.24-3.78-.24-.08-.45-.21-.61-.39h0c-3.81-1.65-6.92-.75-7.79,3.69-.25,1.39-.33,2.81-.27,4.21.15-.22.35-.42.51-.55,2.87-2.16,6.75-3.98,8.48-1.7l.04.05c3.7,5.18,5.76,10.74,2.59,16.89-.65,1.43-2.61,4.51-4.14,3.61.42.67.85,1.35,1.22,1.96.52.31.81,1.14,1.16,1.59,2.32,3.77,4.98,7.32,7.56,10.92,2.46,3.46,4.91,7.02,8.22,9.73,2.56,2.1,5.15,4.17,7.61,6.38,1.21.88.9-.2.6-.89-4.27-9.68-8.57-19.38-11.93-29.46Z"/>
      <path class="cls-2" d="M292.94,255.55l.04-.04c.31-.39.35-1.36,0-1.76-.21-.26-.61-.36-.95-.42-4.83-.72-9.77-2.16-14.9-2.48,3.42,2.91,10.82,4.83,15.31,4.89.2-.01.37-.07.49-.19Z"/>
      <path class="cls-2" d="M25.52,342.89c.24,1.04.76,2.23,1.59,2.87,1.66,1.26,4.19,1.87,6.09.99,2.24-1.18,3.28-3.99,3.54-6.37.4-4.45-1.47-8.83-3.64-12.64-.81-1.46-1.59-2.89-2.32-4.39-.25-.48-.58-.98-1-1.29-.63-.48-1.4-.47-2.15-.44-2.73.12-5.43-.73-8.44-.68-.25,0-.63.03-.74.21l-.02.03c-.09.19-.02.42.04.62.25.91.24,1.84.65,2.71,2.51,5.99,4.78,12.06,6.4,18.37Z"/>
      <path class="cls-2" d="M139.56,381.45l.06-.03c.3-.16.55-.58.72-.91,2.87-5.13-.01-8.01-4.24-10.46-4.16-2.49-8.69-3.97-12.95-5.48-.31-.11-.66-.19-.97-.11-.3.07-.59.28-.82.5-1.38,1.29-2.66,2.49-3.96,3.72-.15.14-.31.32-.39.49-.18.35.21.7.52.91,6.74,4.69,13.92,8.27,21.3,11.35.26.1.51.13.74.02Z"/>
      <path class="cls-2" d="M290.46,448.77c-5.22-3.54-11.48-5.24-17.19-7.48-5.32-1.98-10.81-2.99-16.55-2.82-15.32.91-31.37-.95-44.57-9.43-17.39-11.67-34.87-23.24-52.1-35.12-4.51-4.19-10.83-4.92-16.17-7.66-4.07-1.64-7.8-4.09-11.95-5.47-4.31-.47-8.7-.2-12.96-1.2-.85-.22-2.72-.6-2.41.78,1.88,2.37,4.17,4.47,5.4,7.42.39,1.14,1.41,1.45,2.45,1.79,8.25,3.56,16.96,6.64,24.68,11.23,5.06,5.83,10,12.85,9.26,21.07-.2,2.38.07,4.85-.47,7.17-.24,1-1.44,1.42-1.79.28-.3-3.07.05-6.23-.13-9.34-.1-7.32-3.94-13.71-9.81-17.78-6.41-4.25-13.82-6.49-20.76-9.69-2.77-.81.6,4.66-.37,5.93-.17.75-.85.72-1.2.02-.57-.9-.77-1.89-1-2.9-.88-3.86-2.81-7.3-5.2-10.43-3.63-4.77-8.19-8.71-12.44-12.96-.24-.21-.5-.45-.8-.3-.33.18-.44,1.1-.87,1.38-.86.52-1.19-.87-1.24-1.49-1.97-9.37-5.65-18.37-9.09-27.29-4.07-11.57-12.48-22.05-25.2-24.25-6.03-.65-14.18,2.61-14.52,9.41.14.28.65.36,1.03.36,3.22.04,6.72.28,9.79,1.59,3.21,1.19,5.66,4.04,6.57,7.74.95,3.38,2.06,6.7,2.69,10.16.67,5.52-3.53,11.66-9.22,11.48-.49.03-1.04.03-1.51.13-1.15.24-.84,1.54-.58,2.38.82,2.83,1.53,5.71,2.61,8.45,2.13,4.99,5.12,9.58,7.62,14.39,5.3,10.27,10.69,20.53,19.13,28.59,11.81,11.61,23.35,20.9,39.71,25.14,9.69,3.26,19.51,6.04,29.43,8.54,13.78,3.6,27.29,8.59,41.43,10.54,9.79.52,19.67,1.84,29.41-.06,5.31-.96,10.59-2.16,15.96-2.82,2.67-.19,5.15-1.15,7.88-.23,3.5,1.69-6.77,2.26-7.51,2.35-2.85.38-5.65,1.06-8.46,1.65-9.52,2.44-19.3,2.5-29.07,2.33-.58,0-.84.07-.52.42,1.01.98,1.92,2.06,3.16,2.74,9.43,6.21,19.45,11.69,28.1,19,14.76,13.08,30.6,24.81,45.85,37.29.47.36.95.54,1.2.02.68-8.64-.45-17.37.61-26.04.62-4.44-.03-8.89.62-13.36.49-2.97.54-5.98.54-8.98-.25-8.11,1.57-16.51.57-24.61l-.03-.05Z"/>
      <path class="cls-2" d="M110.37,433.59c-5.34-3.76-10.14-7.65-14.59-11.91-3.32-3.22-6.76-6.34-9.91-9.74-6.61-7.09-11.14-15.79-15.34-24.46-3.33-6.32-7.42-12.26-9.42-19.17-2.94-11.1-6.1-22.13-9.65-33.05-.34-1.03-.65-2.13-.77-3.2-.18-1.54-.04-3.06.55-4.53.45-1.13,1.34-2.22.78-3.34-6.25-9.69-15.1-17.03-27.32-14.15-3.73.87-6.54,4-6.44,7.92,0,.57.2,1.12.83,1.19,3.55.19,7.29-.38,10.78.54,1.14.36,2.01,1.24,2.61,2.25,2.93,4.7,5.68,9.46,6.27,15.03.16,1.63.19,3.37-.16,4.98-.59,2.68-2.26,4.84-4.5,6.29-1.77,1.12-3.76.96-5.76.03-2.57-1.28.53,4.28.65,5.04,4.43,13.14,9.78,26.03,16.7,38.07,5.71,8.94,14,15.75,22.16,22.36,11.22,9.75,19,15.32,33.63,19.09,2.79.76,5.58,1.72,8.54,1.5.41-.03.73-.09.77-.23v-.03c.03-.12-.14-.3-.41-.49Z"/>
      <path class="cls-2" d="M148.84,356.76c2.52,1.45,5.1,2.8,7.77,4,.29.13.6.24.91.2h.06c2.49-1.01,3.78-4.38,4.33-6.79.84-3.03.25-6.3-2.46-8.27-3.43-2.56-7.53-4.03-11.79-4.34-1.77-.36-2.94-1.32-4.56.09-2.32,1.8-4.96,3.24-6.52,6.01-.39.61-.31,1.26.34,1.62,3.92,2.57,7.84,5.14,11.91,7.47Z"/>
      <path class="cls-2" d="M279.46,255.58c-3.38-2.58-6.62-5.1-10.26-7.07-1.66-.91-3.49-1.57-5.38-1.76-2.45-.13-5.09-.02-7.49-.82-1.64-.47-3.21-1.16-4.72-1.97-3.49-1.91-7.32-2.78-11.05-3.98-5.58-1.88-11.41-2.82-17.08-4.37-3.01-.85-6.05-1.67-9.14-2.13-6.88-.99-13.86-.87-20.81-.99-1.54-.12-3-.53-4.43-1.07-4.49-1.62-9.19-1.35-14.21-1.24-.47.03-.63.13-.36.32,7.05,3.75,14.98,4.42,21.77,7.76.3.13.71.38.74.66v.04c.04.36-.52.75-1.03.78-.53.04-1.03-.17-1.53-.35-1.63-.65-3.28-1.21-4.95-1.72-4.72-1.45-9.66-2.29-14.11-4.55-9.26-4.59-18.96-9.04-29.5-9.12-1.91,0-3.8.06-5.71.08-5.63,0-11.26-.33-16.82-1.29-.91-.02-3.19-.17-1.9.58,5.59,3.32,11.52,6.01,17.41,8.68,7.08,3.32,14.51,5.78,21.71,8.8,1.35.7,3.04,1.18,4.04,2.4.45.69.2,1.65-.71,1.24-2.86-1.42-5.69-2.67-8.69-3.67-11.37-3.85-22.01-9.3-32.91-14.22-1.25-.62-2.42-1.42-3.24-2.56-.72-1.01-1.03-2.34-2.33-2.64-3.32-1.13-6.35-3.06-9.97-3.54-1.81-.21-3.61-.24-5.37-.77-.73-.21-1.45-.51-2.13-.85-3.59-1.83-7.37-3.29-10.78-5.37-2.33-1.62-5.14-2.44-7.94-2.03-2.03.23-4,.73-6.22,1.22-.24.05-.62.15-.72.29-.06.25.46.46.71.61,4.9,2.52,6.28,7.75,10.11,11.22.93.92,2.07,1.81,3.12,2.54.48.35.96.71,1.23,1.25.25.47.25,1.24-.06,1.46-.29.21-.69-.04-.97-.25-3.34-2.52-6.37-5.22-8.71-8.57-.69-.97-1.26-2.04-1.94-3.02-2.49-3.54-6.59-4.79-10.52-3.2-3.57,1.57-6.77,3.65-10.51,4.83-.2.07-.45.16-.6.27-.11.09-.15.19-.1.3.08.19.39.39.6.53,2.53,1.65,5.11,3.09,7.77,4.35,3.56,1.72,7.28,2.99,11.04,4.2,4.1,1.38,8.16,2.87,12.16,4.52,8.32,3.3,15.91,8.16,24.65,10.44,5.18,1.31,10.26,3.27,13.97,7.32,2.78,2.73,6.49,3.99,10.26,4.55,2.61.43,5.26.67,7.89.97,11.29.98,21.79,5.36,30.71,12.32,5.21,3.42,8.12-.09,13.42-.85,1.79-.34,3.61-.49,5.43-.51,5.25-.07,10.47-1.05,15.73-.72.72.04,1.44-.06,2.14-.23,3.39-.83,6.95-.43,10.36-1.01,1.41-.22,2.81-.52,4.24-.63,1.2-.13,2.91.22,3.62-.81.07-.2-.09-.4-.39-.59-.8-.44-1.51-.8-2.28-1.29-6.62-4.15-13.91-7-21.42-9.19-5.41-1.73-10.81-3.58-16.2-5.32-.63-.22-1.32-.41-1.82-.86-.38-.34-.35-.81.07-1.03.42-.23,1.04-.18,1.61-.07,3.34.76,6.48,1.88,9.7,2.99,7.39,2.73,15.25,4.3,22.22,8.1,1.63.86,3.24,1.78,4.84,2.7,1.58.91,3.17,1.8,4.78,2.66,1.02.53,2.08,1.22,3.19,1.41,1.24.18,2.43-.35,3.65-.54,2.33-.47,4.68-.79,6.96-1.43,3.59-1.1,7.37-1.39,11-.8,2.06.37,4.2.44,6.17-.33,4.64-2.31,9.51-3.84,14.74-2.52,1.01.24,2,.32,3.04.24.46-.02.79-.09.76-.27-.02-.17-.38-.45-.57-.6ZM131.29,246.12l-.03.02c-.2.1-.58-.16-.81-.29-4.04-2.46-7.63-5.19-11.35-7.7-1.41-.96-2.99-1.71-4.63-2.16-5.05-.93-8.74-3.33-10.48-8.19-.75-1.96-1.55-3.81-2.39-5.7-.15-.33-.3-.7-.34-1.05-.06-.49.12-.98.57-1.04.73-.09,1.42.97,1.71,1.64.54,1.69,1.19,3.29,2,4.88,2.28,4.79,3.01,5.49,8,7.18,1.29.44,2.59.83,3.81,1.4,3.78,1.67,6.76,4.62,10.23,6.8,1.05.73,2.33,1.33,3.27,2.18.37.35.52,1.02.55,1.6.01.16-.02.34-.12.44ZM193.15,256.23c.83.4.15,1.21-.51,1.29-.42.07-.85-.04-1.25-.16-1.5-.48-3-.85-4.53-1.17-4.64-.86-9.22-2.37-13.98-2.31-1.05.02-2.77.2-2.95-1.18v-.07c.05-.85,1.04-1.15,1.78-1.04,7.27.78,14.5,1.95,21.45,4.64ZM251.3,253.42c-.47.89-1.57.07-2.18-.28-3.48-2.07-7.38-2.57-11.28-3.06-3.51-.46-7.01-.89-10.44-1.9-.28-.08-.68-.22-.73-.48v-.05c-.06-.35.51-.84.98-.99.85-.29,1.69.07,2.53.22,1.63.3,3.25.16,4.85.53,4.94.82,10.34.94,14.63,3.79.64.52,1.9,1.28,1.63,2.22Z"/>
      <path class="cls-2" d="M307.69,277.49c-.72-2.5-2.15-4.53-4.91-5.3-2.24-.63-4.58-.34-6.72-.6h-.07c-2.65-.05-5.42-.13-7.96.57-4.26,1.2-8.32,3.07-10.23,7.63-1.57,4.32-1.86,9.06-1.51,13.59.42,6.98,5.42,11.61,12.26,12.32,2.63.46,5.2.69,7.94.27,3.63-.61,7.2-1.51,10.59-2.89,1.43-.61,2.26-1.92,2.48-3.41.44-2.49.84-4.92.85-7.45.01-2.07-.36-4.17-.7-6.21-.51-2.9-1.17-5.75-2.02-8.53ZM306.7,298.24h-.06c-.17-.04-.32-.14-.45-.29-.04-.04-.07-.08-.1-.13,0,0,0,0,0,0-.04-.07-.08-.14-.11-.22-.07-.16-.11-.33-.12-.49,0-.01,0-.02,0-.04-.02-.31,0-.64.06-.92.12-.86.19-1.71.22-2.55,0-.12,0-.25,0-.37,0-.12,0-.24,0-.35,0-3.31-.47-6.58-1.01-9.85-.44-2.56-.92-5.12-1.19-7.7,0,0,0-.01,0-.02-.03-.15-.04-.29-.04-.41,0-.05,0-.1,0-.15,0,0,0-.02,0-.02.02-.2.09-.36.17-.46,0-.01.02-.02.03-.03,0,0,0,0,.01,0,.17-.15.41-.09.62.29.06.11.12.24.17.41.9,2.51,1.62,5.03,2.15,7.59.89,4.25,1.27,8.58,1.15,12.98.06,1.02-.39,2.68-1.54,2.76Z"/>
      <path class="cls-2" d="M517.32,287.71c-.64-7.41-4.16-14.58-9.88-19.33-13.4-11.1-28.05-20.62-40.86-32.43-12.05-11.32-25.71-17.11-41.64-10.01-3.6,1.34-7.14,2.89-10.66,4.46-4.85,2.14-8.96,5.48-13.55,8.04-3.25,1.86-6.62,3.54-9.81,5.5-10.62,7.21-23.12,10.52-35.69,12.54-4.16.52-8.14,2.41-12.35,2.4-6.78-1.17-13.62-1.95-20.5-2-5.68.16-11.35,1.3-17.01,1.99-4.94.67-9.88,1.32-14.76,2.41-16.51,3.8-27.06,18.38-23.38,35.22.84,4.02,2.43,8.18,5.33,11.19,8.64,7.68,21.23,8.39,32.24,9.4,14.81,1.11,29.66-2.29,44.04-5.61,13.81-3.78,27.56-9.04,42.03-9.37,7.03-.03,14.1-.17,21.01,1.28,4.45.87,9.03.52,13.46,1.41,2.85,2.11-7.45,1.43-8.27,1.46-12.08-1.74-24.37-3.01-36.49-.57-1.48.29-2.97.69-4.02,1.86-1.55,1.98-2.48,4.36-4.14,6.28-3.5,4.16-7.23,7.8-11.35,11.5-.97.75-.83.96.31.73,13.31-2.12,25.15-4.32,38.47-7.06,2.26-.27-1.23,2.1-1.72,2.04-19.19,5.62-39.86,5.75-58.18,14.3-9.86,4.39-20.55,5.7-31.23,5.78-5.67,1-11.47.84-17.15,1.73-7.96.96-15.78,2.65-23.59,4.48-2.22.67-4.83.51-6.89,1.48-.49.74.19,2.44-.49,2.96-.21.23-.53.17-.72-.1-.86-2-1.97-4.05-4.22-4.74-10.17-3.7-20.71-6.09-31.44-7.08-6.81-.83-13.66-1.27-20.51-1.45-3.14-.92-6.45-.03-9.59-.8-.39-.08-1.03-.32-1.14.18-.03.42.72,1.26.67,1.74,0,.5-.65.39-.97.26-2.4-1.1-4.67-2.58-7.04-3.78-9.93-5.71-21.38-8.1-32.76-7.89-3.92.12-8.04.61-11.58,2.39-5.45,2.72-9.42,9.73-6.46,15.67.42.73.88.25,1.2-.25,1.78-2.61,4.23-3.99,6.31-6.02,5.52-2.16,11.56.39,16.46,2.94,7.26,3.45,6.8,12.53,2.07,17.88-.66.68-2.16,1.32-.94,2.08,7.04,4.69,15.92,7.96,24.03,10.72,19.12,6.13,37.13,15.22,56.74,19.86,14.17,4.03,28.96,2.12,43.48,2,10.78-.9,21.72-.12,32.39-1.4,3.61.59,7.36.73,11.03.83,5.06.81,10.08,1.93,15.1,3,21.61,3.7,24.62,9.77,45.13-3.29,12.17-5.22,24.45-10.28,36.55-15.67,3.82-.37-.86,2.23-1.96,2.65-12.44,5.8-25.37,10.6-37.46,17.14-6.78,3.69-13.96,7.85-22,6-7.65-1.8-15.33-3.25-23.02-4.84-5.45-1.09-10.9-2.63-16.48-2.66-11.8-.58-23.57.85-35.39.81-5.63.53-11.28.6-16.95.26-8.95.42-17.95.4-26.79-1.37-16.63-3.4-32.17-10.21-47.95-16.24-11.99-4.51-24.7-7.59-35.66-14.43-8.41-5.29-17.35-9.71-25.55-15.32-1.28-.91-2.01-2.61-3.65-2.98-6.08-1.14-12.23,2.01-15.84,6.73-2.57,3.82-2.69,9.3-.3,12.38,1.07,1.34,2.14-.74,2.97-1.4,1.55-1.59,3.35-3.77,5.79-2.82,6.92,2.22,22.16,6.36,18.93,16.44-.35,1.17-1.65,2.66-.6,3.66,2.1,1.07,4.28,2.2,6.54,3.01,23.23,8.38,46.56,17.11,67.8,29.85,10.31,6.23,22.14,6.86,33.87,6.83,11.45.27,22.92.21,34.37-.24,13.57-.51,27.48-1.12,40.85,2.02,11.25,2.27,22.54,11.3,34.15,9.6,4.04-.66,7.38-3.48,10.69-5.73,3.3-2.25,6.64-4.42,9.94-6.67,2.73-1.9,24.75-17.03,25.66-13.75-.06.53-.94.95-1.47,1.22-13.19,6.45-24.63,15.87-36.88,23.9-5.59,4.45-13.19,4.51-19.72,2.32-4.64-1.41-8.95-3.59-13.4-5.49-17.33-7.06-36.36-5.6-54.61-4.68-2.18.07-4.4-.19-6.55-.06-2.88.29-5.8.93-8.69.84-3.17.04-6.28-.64-9.47-.68-4.68-.03-9.35-.06-13.99-.83-5.32-.07-10.84-.04-15.94-2-7.38-2.33-13.84-6.69-20.59-10.4-11.39-6.14-23.33-11.43-35.53-15.67l-.06-.03c-.44-.2-.84-.47-1.3-.64-.5-.19-.9-.1-.84.16.06.2.24.37.44.51,17.81,11.56,34.55,24.94,53.5,34.65,14.46,6.6,30.6,5.03,46.05,5.23,15.97-.93,31.64,3.6,46.89,7.82,12.33,2.97,30.01,12.94,41.95,9.84,3.41-.9,6.8-1.95,10.17-2.97.62-.18,1.58-.47,1.83.32.19.89-.97,1.36-1.71,1.58-4.58,1.6-9.13,3.78-14.08,4.08-6.8.5-13.26-1.95-19.57-4.15-9.27-3.05-18.44-6.49-27.93-8.82-8.93-2.23-17.87-4.27-26.99-5.39-.67.07-3.48-.39-3.01.56,15.04,4.83,27.44,15.19,42.27,20.48,18.23,6.59,36.32,10.27,54.61,1.47,6.29-2.91,11.75-7.29,17.68-10.8,24.38-13.89,48.02-29.11,73.33-41.32,9.85-4.74,20.22-9.4,31.22-10.34,5.43-.38,10.98.97,16.1,2.81,1.19.2,2.5,1.7,3.35.38.58-1.58.8-3.3.94-4.93.66-21.88,2.84-43.71,3.52-65.6-.34-14.52.65-28.99-.55-43.51ZM313.01,293.75c-.14,4.28-1.09,9.32-5.14,11.61-1.22.75-2.58,1.26-3.95,1.68-3.38,1.01-6.91,1.87-10.5,1.72h-.07c-9.16.06-17.38-3.77-19.09-13.51-2.54-10.51,1.38-22.98,13.15-25.31,7.78-1.67,19.02-2.98,22.12,5.94.56,1.28,1.04,2.83,1.41,4.11,1.28,4.46,2.28,9.08,2.06,13.75ZM337.78,299.09c-.03,1.29-.88.78-1.3-.07-.33-1.17.03-2.44-.13-3.65-.14-2.73-.68-5.44-.72-8.18-.06-5.82-.66-11.62-1.61-17.38-.34-2.01-.54-4.1.32-6.02.09-.19.19-.44.37-.5h.02c2.31,11.58,3.95,23.54,3.04,35.79ZM350.82,297.63c-.03.74.02,1.5-.43,2.12-.29.46-1.03,1.17-1.38,1.12h-.04c-.4-11.32,1.68-22.78-2.9-33.64-.19-.4-.3-1,.18-1.15,1-.32,1.82.45,2.12,1.33,3.05,7.84,2.98,16.42,3.2,24.72-.1,1.85-.67,3.64-.75,5.49ZM361.55,289.46c-.05.28,0,.73-.31.79-.46-.15-.9-.66-.99-1.12.25-7.2-.98-14.23-2.81-21.16-.16-.47-.15-1.31.47-1.27h.04c4.37,6.75,4.23,14.74,3.59,22.75ZM504.65,345.19h-.04c-.91-.31-.83-1.75-.66-2.58,1.4-8.16.09-16.36-1.77-24.36-.23-.61-.23-1.73.4-1.94.17-.06.33.02.46.17,3.47,4.95,5.33,22.95,1.61,28.71Z"/>
      <path class="cls-2" d="M58.84,178.25c4.65-1.64,6.59-2.37,6.43-8.19-.05-.73.13-1.77-.23-2.34l-.04-.04c-.16-.18-.44-.27-.7-.32-1.89-.37-3.67-.71-5.46-1.06-.25-.05-.56-.06-.71.15-.13.17-.13.49-.13.73,0,3.5,0,6.93,0,10.39,0,.71.16.94.84.68Z"/>
      <path class="cls-2" d="M149.46,161.04c22.91-9.04,15.34,1.39,16.59-33.85.07-1.16.13-3.22-1.59-2.55-18.25,6.75-36.81,13.5-54.56,21.15-.68,4.45-.04,9.13-.25,13.66,0,.33.03.76.24.97l.04.03c1.9.86,4.09-1.11,6-.12.83.37,1.51,1.39,2.36,1.56.66.15,1.36-.06,2-.26,3.64-1.26,7.26-2.52,10.88-3.82,3.45-.87-.65-4.36,2.36-5.71,1.64-.13.92,2.41,1.17,3.28.16.63.81.91,1.41,1.08,5.52,1.75,10.23-1.77,15.31-3.23,1.19-.55,2.77.15,1.2,1.36-3.56,1.82-7.56,2.75-11.28,4.23-.8.26-1.64.48-2.48.36-2.03-.68-2.85-1.39-5.02-.28-4.86,1.78-9.69,3.77-14.67,5.1-.85.11-1.53-.45-2.19-.92-2.16-1.69-4.64-.62-7.07-.52-.84-.06-1.63-.65-2.46-.59-4.01.99-7.99,2.76-11.85,4.07-.34.12-.71.3-.92.58-.75,4.68-.05,9.62-.28,14.29,0,.43.14.95.56,1.1,6.73-1.3,13.22-4.59,19.97-6.24.62-.17,1.28-.37,1.92-.32.85.02,1.57.85.59,1.41-1.16.64-2.54.7-3.51,1.26-.53.33-.61,1-.6,1.59,0,5.32,0,10.25,0,15.44-.07.76.41,1.22,1.16.92,5.15-1.43,10.01-2.78,14.97-4.16.89-.18,1.31-.99,1.55-1.8.91-2.62,3.58-3.05,5.96-3.73.62-.23.75-.86.73-1.47-.15-4.5.3-9-.17-13.39-.21-.29-.7-.17-1.03-.06-4.54,1.41-8.81,2.9-13.2,4.31-1.17.37-2.31-.8-.76-1.31,4.93-2.09,10.06-3.61,15.52-5.42.81-.38,1.46-.01,1.41.89,1.3,19.92-4.02,16.13,9.92,12.96,1.13-.25,4.34.01,1.56,1.08-4.41,1.45-8.77,3.16-13.28,4.32-1.35.36-2.81.64-3.88,1.59-1.11,1-1.48,2.74-2.9,3.43-1.97.99-4.59.98-6.24,2.55-.88,3.3-.13,6.96-.36,10.4.31,2.84,5.92.37,7.56-.08,9.92-3.36,19.99-6.21,30.02-9.25.98-.3,2.44-.71,3.07-1.52.68-.9.54-2.3.56-3.42.26-10.21-.75-20.58.59-30.68-.18-.8.51-4.48-.92-3.9-5.21,2.14-10.28,3.55-15.5,5.38-4.23,1.22-3.23-.63-.17-1.76Z"/>
      <path class="cls-2" d="M45.64,184.32c-.02.73.34.82.95.51,2.24-1.05,4.35-2.06,6.52-3.03,1.36-.55,2.33-1.47,2.24-3.03.05-3.68.02-7.36.02-11.23,0-.27-.01-.67-.19-.82-.19-.18-.58-.07-.84.02-2.78.97-5.34,1.87-7.85,2.74-.25.09-.51.21-.66.43l-.03.05c-.13.21-.16.5-.16.77,0,1.84,0,3.63,0,5.39,0,2.77,0,5.48,0,8.2Z"/>
      <path class="cls-2" d="M67.51,173.7c0,.29.05.71.26.85l.04.02c.23.14.67-.01.96-.13,4.67-1.69,9.07-3.38,13.67-4.73,1.16-.19,1.64.71.53,1.3-10.16,5.03-7.81-.62-8.1,14.68,0,.33.02.81.29.95.23.13.69-.05.98-.17,5.33-2.21,10.56-3.86,15.58-5.72.64-.24.89-.83.86-1.49,0-4.05,0-7.99,0-12.22,0-.44.08-.91.35-1.25,3.95-3.1,9.44-3.72,14.05-5.75.64-.26.91-.86.88-1.53,0-3.71,0-7.37,0-11.25,0-.6-.08-1.24-.88-.89-7.48,3.33-15.02,6.25-22.59,9.04-5.15,1.9-10.31,3.76-15.47,5.69-.42.17-.73.4-.82.77-.07.26-.05.59-.02.87.42,3.68-.64,7.2-.54,10.94Z"/>
      <path class="cls-2" d="M71.73,208.5c5.79-1.28,12.27-3.39,17.72-.04,4.92,2.72,9.61,5.98,15.45,6.68,1.93.18,3.83.41,5.68,1.02,2.53.66,4.73,2.33,7.09,3.31,5.61,1.67,11.53,1.72,17.3,1.93l.05.02c.66.39,1.54.54,2.37.46,4.09.14,8.21-.12,12.3.04,3.95.28,7.83,1.17,11.59,2.46,1.05.44,2.51,1.38,3.54.98.39-2.11-.02-24.96.13-27.68.2-.47-.97.06-1.18.09-3.93,1.45-8.24,2.21-11.94,4.03-.65,1.7-.03,3.83-.25,5.55-.45,2.28.9,6.06-1.02,7.65-.23-.02-.29-.43-.34-.66-.6-3.62-.22-7.31-.44-11.04,0-.31-.1-.74-.35-.87-7.16,1.43-14.12,4.52-21.29,6.24-6.7,2.09-5.73-3.52-5.75-8.11-.12-1.39.28-3.03-.19-4.38-.28-.36-1.07-.07-1.73.1-5.6,1.31-8.98,3.9-9.63-3.96-.03-4.01-.01-8.02-.02-12.15.02-.54-.11-1.17-.8-.98-3.87,1.19-7.63,2.41-11.33,3.73-1.21.43-2.6.93-3.88.72-1.31-.03-2.2-1.87-3.61-1.24-5.16,1.83-10.23,3.6-15.25,5.46-1.27.47-2.58.89-3.96.73-1.43-.33,1.36-1.46.98-3.22.06-3.23.03-6.49.02-10.04,0-.32-.04-.81-.33-.91-9.23,3.22-17.47,8.5-25.98,11.99-.38.17-1.04.39-1.03.74-.01,1.54,0,11.2,0,12.95-.02.46.61.12.92.04,4.38-1.47,8.65-2.9,12.9-4.33,2.34-.81-.19,8.69.96,10.39.54,1.23-.59,2.38-1.36.94-1.59-1.58.57-9.33-1.96-8.58-3.52,1.14-6.94,2.31-10.44,3.47-.74.18-1.25.78-1.17,1.57,0,2.74,0,5.46,0,8.18,0,.49.08,1.04.4,1.4,2.44,1.27,5.21,2.99,8.05,2.57,1.77-.42,3.17-1.56,4.87-2.08,4.33-1.65,8.29-4.32,12.91-5.18ZM137.14,218.93c3.2-1.17,6.51-1.76,9.81-2.46.64-.19,1.33-.18,1.72.44.05.11.1.26.04.34-.13.19-.35.27-.56.36-4.11,1.7-8.21,2.58-12.31,3.38-.22.04-.61.17-.72.02v-.03c-.04-.9,1.15-1.8,2.03-2.05ZM85.57,199.33c3.71-2.34,18.94-7.55,22.09-6.47l-.02.02c-7.02,3.42-14.41,4.83-21.27,7.28-.51.08-1.28-.41-.8-.83ZM60.16,195.5l-.04-.02c-.26-.16-.36-.83-.16-1.24.21-.47.69-.76,1.16-.97,2.83-1.16,5.75-2.15,8.66-3.13.87-.4,2.1.61.98,1.27-3.05,2.05-6.71,2.31-9.8,3.86-.25.12-.55.34-.8.23Z"/>
      <path class="cls-1" d="M518.87,281.04c-2.52-5.3-5.48-10.3-9.71-14.49-.16-.16-.29-.3-.36-.41-.12-.18-.08-.28.12-.3.18-.01.57.03.79.08,2.61.46,5.26.93,7.86,1.38.46.09,1.03.12,1.18-.39.15-.56.21-1.56-.12-2.07-.86-.69-2.17-.2-3.23-.46-3.38-.43-6.67-1.6-10.11-1.66-1.84.2-3.08-1.09-4.35-2.25-6.86-4.58-12.95-10.2-19.8-14.79-2.52-1.48-4.51-3.64-6.63-5.62-2.66-2.46-5.43-4.79-8.17-7.16-17.3-15.15-29.75-15.74-50.06-6.25-9.88,4.72-18.87,11.2-28.52,16.44-.76.45-1.6.67-2.43.25-7.91-5.11-17.09-7.28-25.5-11.09-.65-.6-.53-2.06-.59-2.95-.01-13.53,0-27.05,0-40.59-.11-1.63.37-4.02-1.33-4.94-1.29-.68-2.81-1.08-4.17-1.63-2.62-1.28-7.16-1.44-8.91-3.73-.6-9.55.09-19.14-.71-28.59-.07-1.1-.28-2.38-.91-3.27-2.12-2.29-6.22-2.87-9.11-4-2.23-.47-3.69-1.35-3.51-3.79-.05-10.97.27-21.89-.68-32.85-.06-2.92.07-5.85.09-8.79-.09-1.5.32-3.64-1.2-4.41-.95-.45-2.26-.66-3.35-.62-3.23.05-6.5-.41-9.48,1.22-.43.2-.96.63-1.41.36-.43-.39-.33-1.25-.38-1.95-.04-12.23.13-24.49-.71-36.72-.22-19.35,3.49-18.81-17.33-17.16-1.66.17-2.6,1.49-2.52,3.01-.12,2.62-.88,5.2-.68,7.83.31,1.95-.21,4.03-2.58,2.33-1.01-.8-1.55-2.05-2.24-3.12-1.68-2.82-4.38-4.77-7.13-6.48-2.97-1.97-6.03-3.88-9.18-5.69-.8-.49-.71-1.34-.38-2.13,3.08-8.94,4.29-19.15.06-27.76-5.14-7.98-16.81-7.63-22.74-.06-5.01,5.35-4.13,12.77-3.52,19.51.12,1.34.3,2.7.83,3.95.78,1.66,2.5,3.83,1.5,5.65-6.18,3.66-13.44,5.98-17.96,11.9-.91,1.67-3.08,1.28-4.61,1.26-.76,0-.99-.63-.93-1.33,0-2.83.04-5.59-.01-8.35.14-2.99-1.34-4.77-4.36-4.73-3.4-.04-6.79-.14-10.15.57-1.96.4-4.34,1.69-5.07,3.25-.68,1.71-.29,3.63-.51,5.46-1.04,13.41-.22,26.9-.52,40.34-.12,1.16.61,3.81-1.26,3.54-4.21-1.54-8.34-3.29-12.49-4.97-2.05-1.02-4.35-1.16-6.44-.15-3.07,1.27-6.17,2.39-9.24,3.62-18.53,7.8-37.3,14.99-55.79,22.88-4.93,2.05-9.89,3.99-14.95,5.7-1.03.36-2.14.86-2.74,1.75-1.17,1.87-.42,4.2-.54,6.31.16,4.07-.7,8.17-.4,12.25.34,3.19.13,6.38.26,9.55.04.96.08,2.11-.7,2.8-1.5,1.2-3.19,2.16-4.97,2.84-7.82,2.65-15.45,5.88-23.35,8.33-2.34.62-4.97,1.85-5.49,4.43-.18,1.9-.1,2.98-2.4,2.45-2.64-.49-5.35-1.25-7.99-.39-2.88.83-5.67,1.94-8.49,2.96-.87.32-1.85.66-2.47,1.35-.64.72-.73,1.83-.7,2.79-.09,12.57-.95,25.08-.62,37.65.11,2.41,0,3.39-2.86,2.61-3.62-.63-7.22-1.92-10.91-1.88-3.7.59-7.52.17-10.77,2.04C-1.36,227.15-1.91,268.56,1.79,296.91l4.84,27.72c-.43-43.39-9.21-73.78,8.64-105.19,10.54-13.87,32.78-3.31,44.74,3.97,9.89,5.44,21.09,7.63,31.22,12.54,7.49,2.91,14.26,7.36,22.2,9.08,10.05,2.42,9.9,7.31,18.1,10.25,6.94,2.37,14.75,1.57,21.81,3.67,6.96,1.97,13.32,5.33,19.17,9.66,1.38,1.01,2.86,2,4.54,2.32,1.64.39,3.49-.16,5.09-.69,2.33-.75,4.68-1.27,7.06-1.64,5.59-.91,11.28-.87,16.93-1.14,7.03-.69,14.07-.83,21.03-2.19,7.62-.83,15.01-2.76,22.57-3.76,3.27-.54,6.59.83,9.86.45,1.03-.18,2.01-.67,2.92-1.18,5.24-3.6,11.72-2.46,17.61-1.74,1.17,0,6.21.83,3.19,2.2-17.69,7.63-24.77,28.67-14.98,45.18,7.01,10.77,21.17,11.65,32.8,13.19,16.72,1.66,33.25-1.57,49.38-5.67,4.51-1.21,8.91-2.77,13.39-4.1,1.16-.09,10.91-3.96,8.6-.38-5.97,8.72-13.94,16.93-24.21,20.31-8.19,2.31-15.77,6.76-24.27,7.95-15.84,1.68-31.94,1.63-47.52,5.34-5.17.87-10.21,2.82-15.37,3.45-2.33-.24-4.35-1.79-6.57-2.44-17.57-6.28-36.3-7.21-54.76-8.49-3.1-.26-6.22-.25-9.32-.45-3.48-.95-6.68-2.85-10.04-4.17-6.23-3.2-13.07-4.31-19.96-4.96-8.92-1.36-18.1-.58-24.67,6.1-3.04,2.87-5.01,6.54-4.38,10.99.04.61.25,1.61-.25,1.98-8.9-.33-19.09,6.2-20.26,15.47-.43,7.22,5.6,12.42,11.44,15.54.6.41,1.48.81,2.04,1.31.25.24.09.36-.4.36-5-.47-10.12.4-13.93-3.6-2.05-2.15-4.89-3.71-5.97-6.61-6.89-18.21-11.17-42.66-32.6-48.76-12.68-3.74-16.46,6.37-18.14,2.97-6.47-9.51-17.1-17.38-29.17-13.73-5.06,1.19-9.14,7-8.47,11.88.16,1.82,1.11,3.82,1.2,5.61,0,.25-.1.4-.27.45-1.1,0-2.31-.74-3.35-.29-.05.02-.09.04-.14.06l.06-.19c-2.31.06-5.23.01-6.97,1.5-7.47,7.29,3.95,28.99,6.17,31.14.73,2.08,2.9,4.54,3.96,6.2,5.13,7.79,11.32,14.63,18.64,20.41,2.92,2.29,5.88,4.63,8.02,7.7,4.12,5.65,9,10.6,14.06,15.35,9.22,8.38,18.83,16.83,29.86,22.79,8.65,3.73,17.85,6.82,27.37,6.84,1.45-.08,2.87.21,4.17.84,3.65,1.65,7.45,3.07,11.26,4.32,20.99,6.52,42.27,12.18,63.55,17.67.93.23,2.2.38,2.86,1.09,1.42,2.4,0,6.02.13,8.69-.46,26.74.89,53.49,1.91,80.2,1.15,11.85,3,23.62,3.64,35.53,1.28,12.45,2.45,24.86,4.47,37.21.71,4.25,1.22,8.52,1.72,12.8.19,1.75.33,3.5.51,5.25.15.93.03,2.08.65,2.8.42.35,1.16.36,1.63.03.42-.31.5-.85.48-1.53-.69-10.95-3.05-21.74-4.09-32.66-.31-4.84-1.72-9.52-1.87-14.36-.99-14.1-2.65-28.17-4.19-42.22-1.06-20.11-1.84-40.32-2.16-60.51-.17-2.83-.74-5.68-.31-8.52.78-7.15.17-14.36.5-21.66.14-1.49,1.61-.78,2.55-.7,1.63.25,3.41.27,3.89,1.95.52,2.3.52,4.89,1.16,7.2,3.26,17.14,4.32,34.55,7.14,51.76,5.93,40.13,22.41,78.01,27.24,118.32.05.57.18,1.12.44,1.62.29.61.81,1.17,1.06,1.1.2-.07.26-.37.29-.61.06-1.34-.1-2.72-.21-4.07-3.66-29.96-13.92-58.53-20.73-87.82-5.66-21.22-8.22-43.05-10.53-64.83-.9-6.85-2.14-13.11-3.61-19.97-.21-.77-.18-1.59.78-.88,8.83,6.39,18.32,11.58,27.17,17.94,15.14,12.7,30.48,25.14,46.1,37.28,3.41,3.19,6.82,4.02,6.26,9.51-.1,27.02-.39,54.06.91,81.05.35,8.72,1.4,17.42,1.56,26.15.12,1.99.39,3.99.58,5.97.2.66,1.1.71,1.72.51.54-.19.56-.71.52-1.39-.36-11.18-1.18-22.35-1.89-33.51-.46-21.75-2.19-43.65-.58-65.38-.85-13.11-.81-26.31.18-39.45-.16-8.61.56-17.18.92-25.78.14-7.9,1.16-15.77.85-23.67-.3-4.47-.14-4.9,3.96-2.35,4.52,2.9,9.27,5.46,14.17,7.64,11.96,4.9,24.65,8.89,37.68,9.14,5.75-.09,11.47-1.18,16.98-2.77,11.54-3.81,21.16-11.68,31.63-17.66,24.93-14.55,49.49-30.1,75.97-41.74.49-.15.89-.41,1.34-.13.18.14.27.42.3.77.21,10.75.13,21.54-1.02,32.25-1.72,22.04-3.73,44.12-4.39,66.22.14,8.3.09,16.59-.09,24.89.2,2.93.86,5.89.78,8.86.04,3.46-.08,6.94.47,10.37.81,4.99.78,10.16,1.39,15.18.75,3.59,1.17,7.22,1.28,10.88,1.29,8.92,2.03,17.93,3.41,26.84,1.02,3.91,1.27,7.87,1.4,11.89.27,3.37.89,6.69,1.33,10.04.78,5.86,1.1,11.79,1.99,17.64.07.55.25,1.25.75,1.43.39.16,1.04.07,1.37-.18.46-.36.42-1.01.37-1.57-.45-4.62-.97-9.24-1.48-13.86-2.11-15.4-3.79-30.84-5.65-46.28-1.42-11.51-2.53-23.11-3.66-34.63.17-4.81-.8-9.57-.73-14.38.04-3.86.21-7.73-.16-11.58-.22-2.28-.69-4.47-.56-6.75-.01-1.68.73-3.31.8-4.94-.38-7.01.06-14,.49-20.99,1.29-25.27,4.4-50.47,4.98-75.76.49-2.61-2.33-6.86.92-8.32,10.93-4.13,21.93-5.05,32.88.24,2.04.73.9,3.02.81,4.57-.67,11.67-2.18,23.23-2.89,34.89-1.99,24.3-5.3,48.41-6.86,72.76-2.59,40.44-1.83,80.95-1.16,121.43.16,1.59-.16,3.31.25,4.84.22.37.88.51,1.43.39.81-.12.85-.88.84-1.53-.26-27.06-1.17-54.09-.28-81.14-.19-26.83,1.56-53.65,4.75-80.27,1.95-15.7,3.52-31.42,4.35-47.18,1.92-19.71,3.69-39.41,4.63-59.2.2-3.22.36-6.44.47-9.66-.03-.67.35-1.57.66-1.9-.06-22.21.11-61.69,0-82.06ZM358.84,252.23c.61-3.3.26-6.53.38-9.54,0-.61.35-1.08.99-1.12,4.71-.43,9.11,1.02,13.55,2.03.48.05.83-.17.5-.6-3.03-2.73-9.41-4.1-14.15-3.5-.6.08-.81-.37-.79-.88.03-1-.06-2.17.05-3.29.08-.61.69-.48,1.15-.28,8,3.05,16.09,5.34,23.45,9.7.51.32.56.61.03.9-7.58,3.77-15.63,6.04-24.12,7.53-.3.06-.79.14-.97-.05l-.03-.03c-.15-.19-.09-.59-.04-.86ZM356.08,185.91c.13.07.22.19.27.39.17,3.78.03,7.67.05,11.47,0,.93-.19,1.61-1.27,1.18-6.44-2.07-12.79-4.13-19.17-6.15-.57-.19-1.25-.4-1.67-.83-.57-.58-.53-1.49-.54-2.26.07-3.63-.12-7.43.07-11.22v-.03c.08-.17.23-.16.38-.12,3.47.83,18.79,6.14,21.87,7.57ZM342.46,167.7c.04.59-.18.94-.8.75-1.35-.39-2.65-.76-3.85-1.29-.23-.11-.44-.26-.54-.5-.09-.21-.08-.47-.05-.7.29-1.79.6-3.59.31-5.44-.04-.24-.06-.55.06-.75l.03-.04c.57-.58,1.8.11,2.54.15.52.06,1.07-.32,1.39-.02,1.38,2.33.8,5.16.9,7.83ZM330.82,144.92c-.01-.81.51-.87,1.15-.64,2.91.92,5.69,1.76,8.42,2.7,1.39.37,1.61,1.59,1.55,2.85-.02,2.53-.01,5.06,0,7.74,0,.28,0,.73-.2.88l-.03.02c-.33.18-.89-.17-1.24-.28-1.03-.42-2.11-.84-3.22-1.23-2.41-.84-3.47-.92-4.49-.52-.58.32.04.82.57,1.15,1.03.68,2.59.4,2.48,1.97-.04,2.06.11,3.99-.09,5.95-.21,1.07-1.24.42-2.03.39-.49-.01-1.11.29-1.09.78.03.26.27.46.5.61,2.53,1.52,5.59,1.87,8.31,3.12.3.14.62.33.8.59.17.24.23.56.25.86.01,1.8,0,3.64,0,5.55,0,.27-.05.63-.27.76-.2.13-.58.03-.84-.06-2.75-.93-5.46-1.89-8.21-2.74-1.79-.47-2.42-1.19-2.32-3.06,0-9.23-.01-18.02,0-27.36ZM319.4,94.61l.04-.04c.93-.69,7.16-.24,7.85.83.72,25.24,0,50.91.25,76.55.03.88-.48,1.01-1.15.84-2.15-.53-4.18-1.22-6.21-2.04-.69-.25-1.04-.82-1.01-1.57.22-24.69-.44-49.68.23-74.56ZM315.9,98.22c-.1-.53-.26-1.1-.22-1.62.04-.49.28-1.03.56-.83.22.14.31.77.38,1.29.34,2.47.13,4.96.19,7.43.02,5.52.07,11.07.04,16.61-.35,4.76-.81,9.51-.63,14.29.02,7.39-.03,14.79.17,22.16.09,1.58.42,3.15.48,4.71.1,2.06-.05,4.14-.09,6.21-.01.26-.04.57-.2.75l-.03.03c-.34.25-.92.12-1.34.06-1.1-.16-1.88-.47-2.27-1.34-1.7-3.82-2.13-7.91-2.29-12.02-.08-2.88-.96-5.67-1.02-8.54-.2-4.64-1.03-9.26-.82-13.9.23-3.11.51-6.22.61-9.35.23-3.67.87-7.33.59-11.02-.08-1.9.15-3.79-.49-5.57-.37-2.02,3.11-.82,4.1-2.11,2.1-1.93,2.88-4.52,2.28-7.24ZM300.47,39.52l.04-.04c.25-.22.67-.23,1.02-.22,2.53,0,4.82-.16,7.28.21,2.86.26,2.33,3.25,2.41,5.36.03,11.91-.06,23.82.03,35.75.1,2.77.64,5.53.63,8.38-.03.8.01,1.65-.21,2.42-.15.45-.63.2-.93,0-2.86-1.86-6.32-2.33-9.44-3.89-.3-.15-.62-.35-.8-.63-.18-.26-.24-.59-.25-.95.21-15.2-.41-30.81.22-46.4ZM291.55,54.22l.03-.04c.18-.19.49-.21.77-.21,2.52.17,3.17-.59,2.95-3.03-.16-3.29.85-6.47.75-9.65-.09-1.24.84-1.58,1.96-1.44.46.05.75.36.74.88-1.05,14.83-.75,29.45-.99,44.04,0,.32-.03.54-.07.54-1.05-3.69-1.73-7.59-2.58-11.37-1.3-6.25-2.48-12.49-3.63-18.8-.06-.3-.12-.71.06-.93ZM227.07,50.28c.55.01.72.38.54.87-.97,3.11-1.91,6.21-2.56,9.32h-.01c-.83-2.87.11-6.04-.75-9-.55-1.65,1.83-1.17,2.79-1.19ZM224.8,85.53c-.65-7.81.75-15.48,2.42-23.04,2.19-14.97,6.56-18.77,20.07-24.55,5.8-1.65,3.57-4.98,1.56-8.94-1.92-4.86-1.8-10.14-1.47-15.3.65-4.61,4.13-8.41,8.5-10.31,14.62-5.03,17.23,9.43,15.39,20.57-3.79,17.19-4.98,9.82,9.54,19.95,4.14,1.89,6.52,5.91,7.76,10.14,1.85,5.39,2,11.17,3.32,16.71.91,4.14,1.94,8.26,2.77,12.41.2.95-.4,1.55-.64,2.39-.24,1.89,2.4,2.01,3.65,2.61,2.26.99,4.29,2.47,6.74,3.01,2.44.64,4.82,1.49,6.66,3.24,2.62,2.31,3.88,6.85,1.19,9.53-3.92,1.22-6.88-3.25-9.46-5.56-2.89-3.63-7.78-3.59-11.99-3.98-2.79-.03-5.72.05-8.43,0-.42-.02-.8-.02-1.11-.32-.38-.66-.31-1.94-.85-2.72-1.79-4.59,3.06-7.5,4.89-11.15.39-.54.83-2.75-.4-1.72-2.21,2.05-3.81,4.33-5.18,6.76-.29.57-.59.7-.57-.1-.5-9.22,2.72-19.26.28-28.17-.96.06-1.03,1.44-.97,2.23.39,8.75-1.64,17.35-1.24,26.09-.23,2.9.85,5.37,2.57,7.78.67,1.29-2.15.58-2.83.78-1.66.04-3.17.76-4.81.52-2.35-.48-2.86,2.22-4.09.94-3.56-4.18-8.3-4.97-13.41-5.6-3.14-1.19-5.79-3.79-7.93-6.34-.34-1.03,0-2.46-.51-3.56-1.98-5.65-2.41-11.63-3.58-17.45-.41-.84-.92-4.58-2.32-3.06-.43.79.02,1.77.17,2.63.54,2.43.96,4.87,1.24,7.35.21,3.31.87,6.51,2,9.66,2.32,5.8-1.48,1.52-3.3-.25-.4-.36-1.1-.46-1.31.07.08,2.64,9.75,9.51,12.23,11.47,3.44,2.86,8.24,2.12,12.02,4.19,2.04,1.08,3.65,2.79,5.28,4.39.58.7,1.83,1.8,2.07.37.07-.62-.51-1.17-.52-1.77.22-1.87,2.89-1.19,4.22-1.4,5.58-.1,11.14.51,16.7.81,2.11.13,4.31,0,6.29.88,14.83,6.85,9.48,20.12,9.15,32.91-.23,7.9-.1,15.83,1.62,23.59.2,4.12-.01,8.04,1.65,12.13.3.7.3,1.24-.63.92-20.27-6.76-40.19-13.42-60.18-20.1-1.22-.29-1.15-1.35-1.07-2.47.03-1.5.17-2.95.44-4.42.82-4.76-2.38-9.3-2.19-14.06.72-9.65,3.01-11.99-.35-22.45-1.49-3.83-.13-10.74-2.46-13.3-4.14-.96-9.11-1.84-12.89.95-1.53.94-3.17,2.12-4.92,2.54h-.05c-2.29-2.23-.98-5.69-.71-8.42ZM282.83,173.98c.02.3.05.76-.24.87-10.96-2.92-21.58-6.57-32.29-9.7-.71-.18-1.01-.76-.97-1.46,0-4.22,0-8.48,0-12.88-.03-.64.15-1.16.9-.9,11.13,3.97,22.62,7.28,33.58,11.62l.03.05c.19.27.21.68.2,1.03-.09,3.94-1.57,7.48-1.21,11.37ZM235.15,93.06c-.02-.7.37-1.2,1.04-1.3,1.48-.25,2.89.5,4.29.59,1.78-.04,2.13,2.22,1.98,3.64-.32,5.07,1.72,9.78,2.32,14.73.33,2.9.12,5.82-.32,8.69-.59,3.85-1.21,7.82-.01,11.62,1.79,4.32,1.17,8.77,1.12,13.61.04.84-.26,1.17-1.08.92-2.92-.8-5.59-1.78-8.32-2.75-.29-.1-.62-.25-.79-.49l-.03-.05c-.56-16.45-.01-32.91-.19-49.22ZM231.55,93.11c.25-.15.71-.39.89-.19.27,16.11.38,32.34-.04,48.42-.19.19-.62.08-.9-.02-4.51-1.54-8.95-3.06-13.54-4.63-.32-.11-.69-.26-.88-.52l-.03-.05c-.57-10.22,0-20.56-.21-30.7,0-.93.03-1.98.4-2.81.47-1.15,1.62-1.95,2.66-2.59,3.76-2.35,7.59-4.57,11.65-6.92ZM210.9,36.75c.2-1.26,9.71-1.54,10.19-.31,2.34,15.36.85,31.46,1.2,47.04.44,6.41-3.24,11.66-6.26,17.01-1.3,1.22-1.68,2.92-1.63,4.67.03,9.69.06,19.39.01,29.06,0,.82-.84.68-1.39.53-2.12-.3-1.68-2.15-1.75-3.69.32-31.42-.24-62.91-.39-94.26l.03-.05ZM246.86,149.23c.78,4.39.05,9.07.29,13.54,0,.34-.01.84-.3,1-4.92-.62-9.73-3-14.69-3.71-.41-.09-.99-.04-.71.49.41.71,1.22,1.05,1.98,1.34,6.97,2.47,14.14,4.2,21.17,6.54,1.6.33.75,2.16,1.63,3.09,1.27.71,1.11-1.71,2.29-1.72,8.3,1.56,16.56,4.64,24.65,7.3.84.23,6.76,2.95,5.24.39-1.11-1.29-4.49-1.03-4.26-3.08.26-1.84.34-3.7,1.05-5.43.53-1.19,1.27-2.2,1.08-3.5.13-.88-1.6-3.51.12-3.33,5.44,1.77,10.71,3.66,16.01,5.31,1.24.34,2.92.99,2.75,2.54-2.56,13.24,4.4,13.07-10.78,9.21-1-.18-1.92.44-1.95,1.49-.45,3.32-.78,6.6-.73,9.94-.18,2.19,1.21,3.97,3.27,4.59,5.01,1.77,10.31,3.18,15.56,3.99,1.05-.09,14.04,5.76,10.49,1.82-2.27-2.19-7.98-1.44-8.35-3.02.4-2.22.32-4.56.32-7.05-.07-1.02.66-1.75,1.69-1.5,4.21.77,8.43,3.53,12.76,2.81,5.37-1.54,1.27-18.31.24-8.8.16,1.89-.06,3.83.01,5.78-.04.53.19,1.36-.32,1.68-3.55-.47-7.05-2-10.41-2.84-1.6-.56-3.91-.87-4.34-2.8-.76-1.39.69-6.07-1.16-6.31-1.04.73-.63,2.92-1,4.04-.96,1.09-2.7-.45-3.96-.38-.59-.09-.56-.68-.38-1.17,1.13-3.7.6-7.4.8-11.14-.05-.96.59-1.24,1.43-.86,7.77,2.77,15.68,4.92,22.98,7.88.28.3.32.78.28,1.21-.26,4.67-.95,9.43.8,13.8,2.52,4.16,12.12,1.72,11.17,8.25.15,1.28-1.07,12.75,1.75,10.18.46-3.78-.2-7.65.09-11.65-.62-2.94,8.16,1.68,9.66,1.7.78.15,1.25.75,1.19,1.54-.18,2.8.38,5.91-.24,8.7-1.33.78-3.86-.92-5.24-.15-.56.52-.13,1.32.58,1.49,2.11.8,5.42.34,5.02,3.57-.02,5.12-.01,10.2,0,15.33.01.36-.04.88-.34,1.03-4.36-.54-8.65-2.17-12.96-3.09-.44-.11-.94-.31-1.19-.67-.83-1.36.77-3.49-.33-4.75l-.04-.04c-9.78-3.14-20.19-4.94-29.9-8.21-.99-.73.12-10.68-1.39-9.43-1.55,1.73.59,9.37-2.11,8.76-1.46.08-8.04-2.71-8.26-1.36.22,3.03,10.65,2.28,9.48,4.99-2.13,15.98,5.05,13.03-16.43,8.66-1.07-.41-1.2-1.56-1.19-2.57.26-4.99-.5-10.34.3-15.31,2.02-1.22,5.52,1.7,7.42.02-1.63-1.95-4.79-1.96-7.1-2.2-.72.01-1.14-.54-1.14-1.23-.88-11.35-8.92-20.67-20.31-22.35-4.05-.87-8.33.72-12.24-.94-3.34-1.18-6.93-1.96-10.33-2.71-1.62,1.12,3.39,2.74,6.25,3.59.59.41,6.09,1.05,4.33,1.88-6.42,2.86-9.16,12.12-10.93,10.88-7.96-2.41-16.1-4.37-24.21-6.55-.91-.14-1.4-.78-1.34-1.68.01-3.85-.02-7.63.01-11.51.34-1.88,3.33-.07,4.66.11,4.49,1.64,9.23,2.32,13.68,4.07.91.61,4.12.86,2.59-.9-1.51-1.18-3.47-1.45-5.27-1.9-2.14-.51-4.16-1.57-6.38-1.91-3.51-.22-1.59-5.63-2.09-7.97.06-.99-.99-2.04-1.46-.77-1.06,1.91,1.41,8.58-2.42,7.11-1.05-.25-2.41-.41-3.04-1.37.08-1.4,2.12,0,2.94-.53,3.91-2.06-22.78-7.45-24.73-8.75-.75-.21-1.07-.84-1.05-1.59,0-3.22,0-6.43,0-9.62-.1-.7.41-1.31,1.11-1.1,1.22.08,1.73,1.39,2.55,2.09.36.15.88-.34,1.42-.39.72-.07,1.42.22,2.11.42,5.36,1.66,10.73,3.31,16.09,4.96,2.84.87.54,4.56,1.95,6.69,1.64,1.51,1.15-6.36.87-6.79-.4-1.23-2.01-1.5-3.08-1.9-5.82-2.28-12.28-3.22-17.92-5.68-.83-1.78-.17-3.99-.37-6,.04-3.17-.08-6.46.05-9.62.11-.5.48-.52.99-.37,13.68,4.91,27.79,9.09,41.23,14.39ZM310.44,196.97c0,.28-.04.67-.3.77-.14.06-.33.05-.55,0-4.84-1.44-9.64-2.9-14.41-4.32-.71-.14-1.16-.66-1.1-1.39,0-3.44,0-6.73,0-10.17-.03-.75.24-1.09.98-.83,2.9.88,5.77,1.76,8.64,2.64,1.94.59,3.89,1.19,5.84,1.79.26.08.53.21.69.42l.03.05c.17.25.19.65.19.98,0,3.5,0,6.78,0,10.09ZM293.89,251.21c-.71-.35-1.98-.05-1.98-1.16-.02-2.64-.04-5.26,0-7.9.03-.67.6-.67,1.1-.51,7.01,2.03,14.19,3.35,21.18,5.27,2.76,1.02,6.84-.06,7.91,3.53.11.26.13.61.38.75h.03c.29-.09.37-.49.51-.76,1.3-2.93-.63-3.99-3.11-4.35-4.91-.95-9.69-2.35-14.57-3.34-3.85-.67-3.34-1.63-2.66-5.01.87-4.79-2.96-7.94,4.25-5.41,6.62.63,2.92,3.74,7.53,4.77,2.04.42,4.04,1,6.03,1.56.33.1.68.25.9.51.7,1.02.1,2.67.36,3.87.2,1.59,1.14,1.18,1.81.14.69-.91.38-2.18.25-3.27-.03-.1.04-.48.15-.52.18-.16.61-.06.88-.01,4.73.98,9.4,1.93,14.15,2.92.76.12.99.79.93,1.48.02,1.99.57,3.81.65,5.75.27,3.23,4.79,3.7,7.33,4.06.86.02,1.14-1.06.52-1.56-.32-.27-.78-.32-1.19-.37-1.07-.08-2.12-.4-3.1-.73-.99-.27-1.96-.98-1.82-2.12-.16-1.89.51-5.76-.75-7.18-.91-.78-2.41-1.06-3.55-1.42-7.61-2.03-15.51-2.97-23.15-4.82-1.78-.49-1.81-2.28-2.77-3.41-.34-.34-.8-.57-1.12-.92-.52-.57-.28-1.36-.13-2.04.77-3.2.3-6.5.43-9.72.03-.43.05-.87.34-1.19.31-.26.66-.25,1.04-.18,8.67,2.24,17.57,4.44,26.47,6.82.55.2.83.66.86,1.22.03.62.05,1.45-.32,1.75-.22.2-.61.2-.92.15-3.65-.52-7.12-2.2-10.85-2.01-.19.02-.76.02-.66.23,8.96,3.79,18.74,5.3,28.03,8.12.77.18,1.09.81,1.05,1.56-.17,5.95.34,11.95-.19,17.79-.24.38-.74.49-1.18.57-3.62.58-7.03,1.76-10.66,2.03-1.9.1-3.78-.09-5.64-.41-4.37-.73-8.76-.95-13.15-1.02-6.8-.23-13.54.47-20.22,1.56-1.5.21-3,.54-4.48.67-1.5.1-3.12-.31-4.74-.43-2.58-.14.31-4.44-2.11-5.29ZM291.68,229.97c-.02-.5.13-1.02.71-1.03,2.48.05,4.76.94,6.99,1.65.25.08.52.2.68.41l.03.05c.16.23.17.58.17.88,0,2.95,0,5.8,0,8.69.03.74-.29,1-1,.8-1.81-.43-3.55-.86-5.35-1.2-1.33-.19-2.24-.78-2.21-2.23-.02-2.64,0-5.21,0-8ZM264.98,196.59c.01-.31.07-.58.23-.77l.04-.04c1.05-.87,4.82.31,5.66,1.21.72,14.75.01,29.82.25,44.83.01.37-.04.92-.37,1-.24.08-.53.01-.78-.05-.87-.24-1.69-.38-2.6-.39-2.05,0-2.4-.46-2.42-2.42-.05-13.05,0-26.1-.02-39.16,0-1.38,0-2.79,0-4.21ZM265.55,244.11c5.39.66,10.58,1.61,15.85,2.56.23.05.43.14.57.29l.04.05c.32.38.37,1.43,0,1.75-.14.12-.36.16-.62.15-5.4-.51-10.64-1.53-15.66-4.34-.29-.16-.95-.54-.18-.45ZM272.81,200.78c.02-.6.04-1.39.37-1.51h.04c.26-.07.52.12.72.29,1.29,1.08,2.02,2.5,2.49,4.05,1.71,6.56,2.2,13.38,2.03,20.18-.12,6.04.03,12.12-.04,18.15-.14,1.51-.74,1.79-2.1,1.47-.8-.15-2.11.14-2.59-.53-.21-.3-.21-.78-.2-1.16.13-5.99-.7-11.96-.73-17.94.06-5.35.65-10.69.64-16.03.1-2.35-.67-4.55-.64-6.98ZM280.78,243.5c.21-4.79-.4-9.3.55-13.91.47-2.43-.28-5.1-.54-7.61-.23-2.64.05-5.32,0-7.96.09-8.54-3.49-17.82-12.33-20.24-5.74-1.73-11.27.69-15.98,3.99l-.05.04c-.46.39-.98.4-.82-.2.99-2.13,1.91-4.44,3.59-6.24,2.98-3.32,6.62-5.44,10.41-5.25,12.11.16,19.87,4.89,22.52,17.01,1.06,3.93.75,8,.71,12.02.11,4.11.79,8.2.73,12.3-.68,7.33-.68,14.54-.74,22.01-.02.36-.1.6-.32.67-.27.1-.78-.11-1.24-.16-.77-.16-2.07.13-2.53-.49-.69-1.68.34-4.4-1.86-5-.75-.33-2.21.26-2.09-1ZM249.39,206.36c.67-3.79,2.85-6.36,6.42-8.24.82-.47,1.22-.29,1.17.68-.21,13.74.4,27.5-.22,41.06l-.04.04c-.19.19-.51.24-.79.24-1.73,0-3.41-.79-5.05-.66-2.02.33-1.69-1.69-1.69-3.06.17-10-.34-20.08.19-30.06ZM256.7,243.06c2.73-.43,5.04.6,7.44.7-2.38.76-4.08.62-7.29-.27-.17-.05-.5-.14-.57-.24v-.02c0-.1.29-.14.42-.17ZM263.39,240.11c.06.38.08.93-.3,1.01-.81.11-1.79-.32-2.52-.43-.85-.12-1.29-.49-1.26-1.32.26-14.24-.02-28.42-.56-42.45l.04-.04c.21-.23.57-.33.88-.41,1.26-.38,3.53-1.22,3.58.79.36,14.36-1.77,28.35.14,42.85ZM246.15,229.84c.03,13.47,1.56,8.74-12.47,6.03-.61-.16-.67-.75-.59-1.29.35-10.65-.94-7.33,8.61-5.88,1.39.26,4.27.01,1.72-1.36-1.1-.42-2.26-.41-3.38-.78-4.1-1.11-8.21-2.22-12.44-2.82-.92-.12-1.98-.4-2.19-1.42-.32-3.21-.03-6.38-.12-9.73-.09-.81.37-1.39,1.22-1.11,5.51,1.08,10.76,3.09,16.39,3.7.31-.08.32-.4.06-.8-1.01-1.5-2.9-1.5-4.48-1.98-4.6-1.19-9.25-2.27-13.85-3.41-1.48-.35-1.07-1.87-1.16-3.08.05-3.03-.71-4.49-3.83-4.86-4.1-1.01-8.16-2.21-12.28-3.22-.92-.38-3.61-.66-2.59,1,.89,1.01,2.83.74,3.79,1.87,1.09,2.08-.55,5.32,1.31,7.15.65.66,1.6.85,2.48.99,3.56.77,7.26,1.46,10.85,2.1.71,1.31.14,3.12.32,4.57-.18,2.27.36,4.78-.23,6.93l-.03.03c-18.19-4.2-37.02-8.3-54.93-13.83-.64-3.39-.15-7.11-.21-10.66.12-.67.8-.55,1.31-.42,5.28,1.23,10.47,2.44,15.64,3.7,2.3.06,6.82,2.75,8.17.29.87-5.34.18-11,.23-16.42-.52-1.94-1.82-.16-1.57,1.02,0,4.34,0,8.72,0,13.26.06.75-.38,1.26-1.14,1.03-1.3-.55-3.79-.04-3.98-1.77.33-5.57-.09-11.1.27-16.64-.02-.84.46-1.3,1.3-1.02,8.3,2.07,16.44,4.83,24.61,7.35,7.53,2.3,15.19,4.07,22.75,6.3,1.75.3,1.39,2.17,1.42,3.5.11,3.52-.36,7.12.27,10.59.66,1.22,1.45-1.31,1.39-2.42.1-2.99.03-5.94.05-8.92-.03-.61.15-1.31.91-1.23,2.57.33,4.93,1.51,7.41,1.92.32.06.7.15.87.4-2.24,10.26-1.97,20.81-1.88,31.31ZM201.68,220.07c0-.27.04-.62.26-.75.15-.1.39-.09.67-.03,9.12,2.19,18.03,4.85,27.17,6.55,1.2.21,1.7,1.1,1.66,2.25.01,2,0,3.97,0,6.01.03.78-.36,1.03-1.07.86-5.8-1.11-11.43-2.94-17.24-3.97-3.38-.6-6.81-.92-10.34-.65-.29.02-.67.04-.88-.14l-.04-.03c-.19-.2-.21-.61-.2-.91,0-3.25,0-6.22,0-9.19ZM221.16,207.24c0,.32-.05.71-.31.91-.17.14-.44.18-.67.19-1.74.04-3.39-.46-5.06-.84-1.05-.25-2.14-.44-3.22-.44-.2,0-.41-.05-.57-.17l-.04-.04c-.16-.15-.23-.41-.26-.65-.24-1.69-.49-3.18-.22-4.7.09-.64.6-.7,1.13-.52,2.72.75,5.41,1.5,8.17,2.26.5.11.94.41,1.01.94.13.95.07,1.96.04,3.05ZM168.52,210.95c10.2,2.27,20.33,5.27,30.43,7.51.29.08.53.19.68.38l.03.04c.17.24.21.61.2.92,0,3.16,0,6.22,0,9.32,0,.37-.07.79-.38.99-6.01,1.13-11.63-2.18-17.49-2.56-3.36-.11-6.74.92-10.12.47-1.08-.11-2.18-.31-3.22-.68-.53-.19-.88-.61-.96-1.17-.54-4.71.57-9.4.53-14.28,0-.32.02-.81.3-.94ZM168.1,158.57c-.04-.71.26-1.03.95-.82,2.21.59,4.35,1.22,6.39,2.15.43.18.72.52.61,1.01-.74,2.22-.34,4.54-.39,6.81-.08,2.16-.04,4.31-.02,6.66,0,.27,0,.64-.18.8l-.04.03c-.19.12-.5.04-.74-.03-1.98-.61-3.88-1.11-5.71-1.9-.28-.13-.57-.31-.71-.57-.1-.18-.15-.39-.16-.63-.02-4.4,0-8.86,0-13.5ZM183.8,199.2c-4.91-1.17-9.68-2.31-14.53-3.46-.62-.11-1.06-.48-1.05-1.14-.02-6.18,0-12.35,0-18.68,0-.27.01-.69.19-.83l.03-.02c.18-.13.58-.02.83.07,4.95,1.64,9.78,3.23,14.58,4.82.32.1.69.25.88.52.2.26.22.67.22,1.01,0,5.54,0,11,0,16.75.05.9-.28,1.2-1.15.95ZM206.49,38.5c-.04-.81,2.51-2.74,2.5-1.05-1.4,17.54.17,35.12-.9,52.45l-.04.02c-.64.13-1.46-.98-1.55-1.68-.32-16.1.05-32.22-.15-48.35,0-.48.03-.97.14-1.4ZM185.35,84.03c.59-1.8,3.04-.33,4.2.08,4.29,1.7,8.52,3.66,12.82,5.38,2.8.99,3.91,2.03,3.66,5.14-.12,3.78-.04,7.57-.03,11.55.02.52-.12,1.05-.73.9-3.95-1.1-7.77-2.49-11.55-3.83-2.49-.9-4.97-1.81-7.46-2.69-.28-.1-.57-.23-.74-.46l-.03-.05c-.16-.24-.19-.62-.18-.94.04-5.06-.08-10.1.04-15.09ZM184.9,103.07c-.03-.3-.05-.8.15-.94l.03-.02c.21-.14.62,0,.89.1,3.13,1.15,5.96,2.19,8.75,3.22.49.16.92.46.9,1.02-.34,2.1-.06,4.23-.27,6.36-.05.47-.28.95-.82.91-2.27-.4-4.48-1.64-6.91-1.07-.93.3.53.81.88,1.01.68.36,1.52.62,1.82,1.26.14.27.19.61.21.92.17,2.74-.18,5.59.42,8.36.05.22.15.6.32.66.1.03.2-.07.31-.25,1.19-2.56.42-5.45.7-8.13.1-1.24,1-1.16,2.04-.73,1.26.56,3.04.86,2.9-1.07-.11-2.43-.14-4.82.01-7.28.02-.75.41-1.04,1.12-.78,2.15.71,4.24,1.41,6.35,2.12.49.17.88.51.94,1.06.09,7.01,0,14.05.03,21.34,0,.37-.04.91-.37,1.02-6.84-1.35-13.39-4.27-20.02-6.39-.59-.22-.88-.64-.91-1.25-.13-7.09,1.05-14.05.52-21.43ZM202.65,134.35l.03.05c.55,4.75.03,9.72.2,14.54.05.57-.19,1.18-.83,1.04-.9.11-3.28-1.8-3.71-.61-.72,4.1-.06,8.28-.32,12.33.05.77-.5,1.21-1.23,1.01-3.69-.59-7.11-2.72-10.98-2.4-.56.03-1,.2-.19.51,11.6,4.56,24.02,7.03,36.22,11.35.4.59-.87,1.36-.93,2.08-.51,4.42-.02,8.82-.19,13.4.17,2.39-4.45-.1-5.75-.33-11.21-3.63-22.57-6.84-33.9-10.05-1.06-.58-3.07-.68-3.36-2.12-.07-4.31-.05-8.63,0-12.93.06-1.5.08-3.41-1.68-3.9-2.39-.67-4.65-1.39-7.03-2.32-.69-.2-1.05-.78-1-1.49,0-4.11,0-8.3,0-12.63,0-.29.02-.72.23-.86.19-.16.66,0,.94.12,7.62,2.92,15.44,4.78,23.09,7.43.72.34,2.28.57,2.31-.5-7.8-4.43-17.44-5.44-25.73-9.13-.58-.24-.87-.7-.88-1.3-.23-2.61-.03-5.23.61-7.8.03-.63-.21-1.22-.37-1.82-.28-1.17-.09-2.58.68-3.54.3-.28.81-.21,1.21-.1,10.85,2.77,22.01,5.58,32.55,9.99ZM116.93,111.97c0-.36.06-.77.27-1.03.13-.16.3-.28.5-.38,4.28-1.8,8.71-3.64,13.45-5.62.25-.11.66-.26.84-.12l.03.03c.18.14.2.61.19.91,0,3.92-.01,7.26,0,10.56.11,2.17-.4,2.93-2.49,3.54-2.51.85-4.94,1.93-7.39,2.92-.49.22-.98.06-1.18-.43-.3-.64-.57-.98-1.23-1.12-.4-.09-.99-.11-1.51-.11-.8.01-1.42.1-1.5-.71-.05-2.76,0-5.49-.02-8.44ZM102.38,118.08c-.01-.56.18-1.1.65-1.43,3.19-2.27,7.18-2.82,10.86-4.7.23-.12.59-.3.8-.22.24.09.31.49.33.76.29,2.98.06,5.8.09,8.61,0,.31,0,.64-.15.9l-.03.05c-.13.21-.36.38-.59.51-1.46.8-2.92,1.55-4.37,2.26-2.19,1.07-4.39,2.06-6.65,3.05-.71.35-.96.07-.94-.67,0-3.14,0-6.13,0-9.13ZM102.32,130.55c.11-.53.58-.83,1.06-1.01,5.38-1.9,10.47-4.85,15.62-7.42l.04.02c.92.92.93,2.83,2.69,2.42,3.69-1.01,7.23-2.59,10.8-3.96,1.39-.58,1.5-2.14,1.44-3.46-.06-3.85-.03-7.7-.02-11.73-.03-.68.23-1.3.87-1.57,3.48-1.48,7.04-2.96,10.6-4.46,2.59-1.5.72,5.69,2,7.26.32.51.59-.15.7-.48,1.2-2.39-.69-7.65,1.55-8.53,10.49-4.34,21.12-8.72,32.1-13.24.63-.26,1-.15,1.03.55.02,8.72.29,17.21-.72,25.68-.07.58-.3,1.05-.82,1.32-3.54,1.43-7.22,2.63-10.57,4.68-.63.35-.9.71.1.58,3.49-.37,6.6-2.13,10.03-3.22.5-.17,1.1-.24,1.18.42.07,3.15.04,6.26,0,9.45-.07,1.48-3.24-.18-4.26-.21-3.17-.62-6.37-1.96-9.56-2.26-6.06.93-11.7,3.9-17.42,5.99-.77.35-1.68.46-2.42.75-.56.27-.86-.03-.9-.57-.47-1.88.74-6.4-1.04-7.35-5.02,1.54-9.86,3.71-14.41,6.08-.85.38-.75,1.28.24,1.3,4.05-1.25,7.9-3.32,11.89-4.76.31-.13.73-.25,1.02-.13.44.2.45.82.48,1.26-.02,2.07.66,4.84-1.38,6.05-5.72,1.68-10.99,4.19-16.76,6.28-.48.2-1.07.33-1.27-.26-.62-2.82.28-5.86-.78-8.49-1.52-.9-.99,7.95-1.19,8.98-.05.68-.43,1.22-1.07,1.46-6.69,2.39-13.51,5.7-20.53,7.75-.24-.15-.3-.57-.28-.89,0-2.43,0-4.69,0-6.94-.02-.63.29-1.16.89-1.39,5.66-2.11,11.25-4.42,16.81-6.87.33-.13.82-.45.7-.8-.37-.92-1.77-.41-2.48-.12-4.39,1.65-8.74,3.38-13.06,5.16-.79.17-1.89,1-2.66.52-.58-1.11-.32-2.6-.26-3.83ZM149.63,162.8c5.22-1.83,10.28-3.24,15.5-5.38,1.42-.58.74,3.1.92,3.9-1.33,10.11-.33,20.47-.59,30.68-.02,1.11.13,2.51-.56,3.42-.63.81-2.09,1.22-3.07,1.52-10.03,3.04-20.1,5.9-30.02,9.25-1.64.45-7.25,2.92-7.56.08.23-3.44-.52-7.11.36-10.4,1.65-1.58,4.27-1.56,6.24-2.55,1.42-.68,1.79-2.42,2.9-3.43,1.08-.95,2.53-1.23,3.88-1.59,4.51-1.16,8.86-2.87,13.28-4.32,2.78-1.07-.43-1.33-1.56-1.08-13.93,3.17-8.61,6.96-9.92-12.96.05-.91-.6-1.28-1.41-.89-5.46,1.81-10.59,3.33-15.52,5.42-1.56.51-.41,1.68.76,1.31,4.39-1.41,8.67-2.89,13.2-4.31.34-.1.82-.23,1.03.06.47,4.39.02,8.89.17,13.39.02.61-.11,1.24-.73,1.47-2.38.68-5.05,1.11-5.96,3.73-.24.81-.66,1.62-1.55,1.8-4.96,1.38-9.81,2.73-14.97,4.16-.75.3-1.23-.17-1.16-.92,0-5.19,0-10.12,0-15.44,0-.6.08-1.27.6-1.59.97-.57,2.35-.62,3.51-1.26.99-.56.26-1.39-.59-1.41-.63-.05-1.29.15-1.92.32-6.75,1.65-13.24,4.94-19.97,6.24-.42-.14-.56-.66-.56-1.1.23-4.67-.47-9.61.28-14.29.2-.28.57-.46.92-.58,3.86-1.31,7.84-3.09,11.85-4.07.84-.06,1.62.53,2.46.59,2.43-.1,4.92-1.16,7.07.52.65.47,1.33,1.04,2.19.92,4.99-1.33,9.81-3.32,14.67-5.1,2.17-1.12,2.99-.4,5.02.28.84.13,1.68-.1,2.48-.36,3.72-1.47,7.73-2.41,11.28-4.23,1.57-1.2,0-1.91-1.2-1.36-5.08,1.47-9.79,4.98-15.31,3.23-.6-.17-1.25-.46-1.41-1.08-.25-.87.48-3.41-1.17-3.28-3.01,1.35,1.09,4.84-2.36,5.71-3.62,1.3-7.24,2.56-10.88,3.82-.64.21-1.34.42-2,.26-.85-.17-1.53-1.19-2.36-1.56-1.9-.98-4.1.99-6,.12l-.04-.03c-.21-.21-.25-.64-.24-.97.21-4.54-.42-9.21.25-13.66,17.75-7.66,36.31-14.4,54.56-21.15,1.72-.67,1.66,1.39,1.59,2.55-1.24,35.24,6.32,24.8-16.59,33.85-3.05,1.12-4.05,2.98.17,1.76ZM68.06,162.76c-.03-.28-.06-.61.02-.87.09-.37.4-.6.82-.77,5.16-1.93,10.33-3.79,15.47-5.69,7.57-2.79,15.11-5.71,22.59-9.04.8-.35.88.29.88.89,0,3.88,0,7.54,0,11.25.03.67-.24,1.26-.88,1.53-4.61,2.03-10.1,2.65-14.05,5.75-.26.34-.34.81-.35,1.25,0,4.23,0,8.16,0,12.22.03.65-.22,1.25-.86,1.49-5.02,1.86-10.25,3.51-15.58,5.72-.29.12-.74.3-.98.17-.27-.14-.29-.62-.29-.95.29-15.3-2.05-9.65,8.1-14.68,1.11-.59.63-1.48-.53-1.3-4.6,1.35-9,3.04-13.67,4.73-.29.11-.73.27-.96.13l-.04-.02c-.21-.15-.25-.56-.26-.85-.1-3.74.96-7.25.54-10.94ZM58,167.18c0-.24,0-.56.13-.73.15-.21.46-.2.71-.15,1.79.34,3.57.69,5.46,1.06.25.05.53.14.7.32l.04.04c.37.57.18,1.61.23,2.34.16,5.82-1.78,6.54-6.43,8.19-.69.27-.85.03-.84-.68,0-3.46,0-6.9,0-10.39ZM45.64,170.73c0-.26.04-.56.16-.77l.03-.05c.14-.21.41-.34.66-.43,2.51-.88,5.07-1.77,7.85-2.74.26-.09.65-.2.84-.02.17.15.19.55.19.82,0,3.87.03,7.55-.02,11.23.09,1.56-.88,2.48-2.24,3.03-2.16.97-4.28,1.98-6.52,3.03-.61.32-.97.22-.95-.51,0-2.72,0-5.43,0-8.2,0-1.76,0-3.55,0-5.39ZM45.9,213.19c-.33-.36-.4-.91-.4-1.4-.01-2.73,0-5.44,0-8.18-.08-.79.43-1.39,1.17-1.57,3.49-1.15,6.92-2.32,10.44-3.47,2.53-.75.38,6.99,1.96,8.58.77,1.44,1.89.3,1.36-.94-1.15-1.7,1.38-11.2-.96-10.39-4.25,1.43-8.52,2.86-12.9,4.33-.31.08-.94.41-.92-.04,0-1.75,0-11.4,0-12.95,0-.35.65-.57,1.03-.74,8.51-3.49,16.75-8.77,25.98-11.99.29.1.32.58.33.91,0,3.55.04,6.81-.02,10.04.38,1.75-2.41,2.89-.98,3.22,1.38.16,2.69-.26,3.96-.73,5.02-1.87,10.09-3.64,15.25-5.46,1.41-.63,2.3,1.2,3.61,1.24,1.29.21,2.67-.28,3.88-.72,3.7-1.32,7.47-2.53,11.33-3.73.69-.19.82.44.8.98,0,4.13-.02,8.15.02,12.15.66,7.86,4.03,5.28,9.63,3.96.66-.17,1.45-.46,1.73-.1.47,1.34.07,2.99.19,4.38.02,4.59-.95,10.2,5.75,8.11,7.17-1.72,14.13-4.82,21.29-6.24.26.13.34.55.35.87.22,3.73-.16,7.42.44,11.04.05.23.11.64.34.66,1.92-1.59.57-5.37,1.02-7.65.21-1.72-.4-3.85.25-5.55,3.7-1.82,8.01-2.58,11.94-4.03.21-.03,1.38-.57,1.18-.09-.15,2.71.27,25.56-.13,27.68-1.04.4-2.5-.54-3.54-.98-3.76-1.28-7.64-2.17-11.59-2.46-4.09-.16-8.21.09-12.3-.04-.83.08-1.71-.07-2.37-.46l-.05-.02c-5.77-.21-11.68-.26-17.3-1.93-2.36-.98-4.56-2.64-7.09-3.31-1.85-.61-3.75-.84-5.68-1.02-5.84-.7-10.53-3.96-15.45-6.68-5.44-3.35-11.93-1.24-17.72.04-4.62.86-8.58,3.52-12.91,5.18-1.69.52-3.1,1.66-4.87,2.08-2.84.41-5.61-1.3-8.05-2.57ZM279.28,256.45c-1.04.08-2.03,0-3.04-.24-5.23-1.32-10.11.2-14.74,2.52-1.97.77-4.11.7-6.17.33-3.63-.59-7.41-.3-11,.8-2.29.64-4.63.97-6.96,1.43-1.22.19-2.41.72-3.65.54-1.11-.19-2.17-.88-3.19-1.41-1.61-.86-3.2-1.76-4.78-2.66-1.61-.92-3.21-1.83-4.84-2.7-6.97-3.8-14.83-5.36-22.22-8.1-3.22-1.11-6.36-2.23-9.7-2.99-.58-.12-1.19-.17-1.61.07-.42.22-.45.69-.07,1.03.5.45,1.19.64,1.82.86,5.4,1.74,10.79,3.59,16.2,5.32,7.51,2.19,14.8,5.04,21.42,9.19.77.48,1.48.85,2.28,1.29.3.18.46.38.39.59-.71,1.03-2.42.68-3.62.81-1.43.11-2.83.41-4.24.63-3.41.58-6.96.18-10.36,1.01-.7.17-1.41.27-2.14.23-5.26-.33-10.47.66-15.73.72-1.82.02-3.64.17-5.43.51-5.3.76-8.21,4.27-13.42.85-8.92-6.96-19.42-11.35-30.71-12.32-2.63-.29-5.28-.53-7.89-.97-3.77-.56-7.49-1.82-10.26-4.55-3.71-4.04-8.79-6.01-13.97-7.32-8.74-2.28-16.33-7.14-24.65-10.44-4-1.65-8.06-3.14-12.16-4.52-3.76-1.22-7.49-2.49-11.04-4.2-2.66-1.26-5.24-2.7-7.77-4.35-.21-.14-.51-.34-.6-.53-.05-.11-.02-.21.1-.3.14-.11.39-.21.6-.27,3.74-1.18,6.94-3.26,10.51-4.83,3.94-1.59,8.03-.34,10.52,3.2.69.99,1.25,2.06,1.94,3.02,2.34,3.35,5.37,6.05,8.71,8.57.28.21.67.46.97.25.31-.22.31-.99.06-1.46-.27-.53-.75-.89-1.23-1.25-1.05-.73-2.2-1.62-3.12-2.54-3.83-3.47-5.21-8.7-10.11-11.22-.25-.15-.78-.36-.71-.61.1-.14.48-.25.72-.29,2.21-.49,4.19-.99,6.22-1.22,2.8-.41,5.61.41,7.94,2.03,3.41,2.09,7.19,3.54,10.78,5.37.68.34,1.4.64,2.13.85,1.76.53,3.56.56,5.37.77,3.62.49,6.64,2.42,9.97,3.54,1.3.3,1.61,1.64,2.33,2.64.83,1.14,2,1.94,3.24,2.56,10.9,4.92,21.54,10.38,32.91,14.22,3,1.01,5.83,2.26,8.69,3.67.91.41,1.16-.55.71-1.24-1.01-1.22-2.7-1.69-4.04-2.4-7.2-3.02-14.63-5.48-21.71-8.8-5.9-2.68-11.83-5.37-17.41-8.68-1.29-.75,1-.6,1.9-.58,5.56.95,11.18,1.29,16.82,1.29,1.9-.02,3.8-.08,5.71-.08,10.54.08,20.24,4.52,29.5,9.12,4.45,2.26,9.38,3.1,14.11,4.55,1.67.51,3.32,1.08,4.95,1.72.49.18,1,.39,1.53.35.52-.03,1.07-.42,1.04-.78v-.04c-.03-.29-.44-.53-.74-.66-6.79-3.33-14.72-4.01-21.77-7.76-.27-.2-.11-.3.36-.32,5.02-.11,9.72-.38,14.21,1.24,1.43.54,2.89.95,4.43,1.07,6.96.12,13.93,0,20.81.99,3.09.46,6.13,1.28,9.14,2.13,5.67,1.54,11.49,2.49,17.08,4.37,3.73,1.2,7.55,2.07,11.05,3.98,1.51.8,3.08,1.5,4.72,1.97,2.4.79,5.04.69,7.49.82,1.89.19,3.72.84,5.38,1.76,3.63,1.97,6.87,4.49,10.26,7.07.19.15.56.43.57.6.03.17-.3.24-.76.27ZM277.13,250.85c5.13.33,10.07,1.76,14.9,2.48.34.06.74.16.95.42.35.4.3,1.38,0,1.76l-.04.04c-.12.12-.29.18-.49.19-4.49-.06-11.89-1.98-15.31-4.89ZM117.52,370.07c-.31-.2-.7-.56-.52-.91.08-.18.24-.35.39-.49,1.3-1.23,2.58-2.43,3.96-3.72.24-.22.52-.43.82-.5.31-.08.66,0,.97.11,4.25,1.51,8.79,2.99,12.95,5.48,4.23,2.46,7.12,5.33,4.24,10.46-.17.34-.42.76-.72.91l-.06.03c-.22.1-.47.07-.74-.02-7.38-3.08-14.56-6.66-21.3-11.35ZM53.55,331.96c.18-.04.42-.01.63.03,1.4.27,2.73.45,4.02.63,3.9.47,8.39,1.47,9.92,5.6.82,2.14,1.4,4.37,1.97,6.58,1.01,4.43,2.77,8.99-1.29,12.45-2.03,1.67-5.24,3.3-7.59,1.29l-.05-.05c-2.91-8.22-5-16.83-7.74-25.57-.1-.32-.25-.88.13-.95ZM10.65,351.37c-1.6-2.75-2.99-5.5-4.39-8.63-.85-1.84-1.45-4.12-1.65-6.5.27,0,.7-.26,1.06-.51,1.79-1.23,3.5-3.61,5.92-2.49,2.99,1.29,4.91,8.8,5.21,11.58.02.68-.02,1.13-.14,1.94-.3,2.26-1.38,3.63-2.96,4.32-.46.26-.91.58-1.39.82-.42.22-.9.33-1.05.51-.22-.36-.43-.71-.62-1.04ZM37.81,384.24c-2.46-2.21-5.05-4.28-7.61-6.38-3.32-2.7-5.76-6.27-8.22-9.73-2.57-3.6-5.24-7.14-7.56-10.92-.35-.45-.64-1.28-1.16-1.59-.38-.61-.8-1.29-1.22-1.96,1.53.9,3.49-2.18,4.14-3.61,3.17-6.14,1.11-11.71-2.59-16.89l-.04-.05c-1.74-2.27-5.61-.46-8.48,1.7-.15.13-.35.33-.51.55-.06-1.4.02-2.82.27-4.21.87-4.44,3.98-5.34,7.79-3.69h0c.16.17.37.3.61.38,2.28.66,5.51,1.09,6.24,3.78,2.61,7.34,4.54,14.9,7.01,22.29,3.36,10.07,7.66,19.77,11.93,29.46.3.69.61,1.76-.6.89ZM18.43,321.19l.02-.03c.11-.18.49-.21.74-.21,3.02-.05,5.71.8,8.44.68.75-.03,1.51-.04,2.15.44.43.31.75.81,1,1.29.74,1.5,1.52,2.93,2.32,4.39,2.17,3.81,4.04,8.18,3.64,12.64-.26,2.38-1.3,5.19-3.54,6.37-1.9.87-4.43.26-6.09-.99-.83-.64-1.35-1.83-1.59-2.87-1.63-6.3-3.89-12.37-6.4-18.37-.41-.87-.4-1.79-.65-2.71-.05-.2-.12-.43-.04-.62ZM110.78,434.11c-.05.14-.37.2-.77.23-2.96.22-5.75-.73-8.54-1.5-14.63-3.77-22.41-9.34-33.63-19.09-8.16-6.61-16.46-13.42-22.16-22.36-6.93-12.04-12.27-24.93-16.7-38.07-.12-.76-3.22-6.32-.65-5.04,1.99.93,3.98,1.09,5.76-.03,2.25-1.45,3.91-3.61,4.5-6.29.35-1.62.32-3.35.16-4.98-.59-5.57-3.34-10.33-6.27-15.03-.6-1.02-1.47-1.9-2.61-2.25-3.49-.92-7.23-.35-10.78-.54-.62-.07-.83-.62-.83-1.19-.1-3.92,2.71-7.06,6.44-7.92,12.22-2.89,21.07,4.46,27.32,14.15.56,1.12-.33,2.21-.78,3.34-.6,1.47-.74,2.99-.55,4.53.12,1.07.44,2.16.77,3.2,3.55,10.92,6.71,21.95,9.65,33.05,2,6.92,6.09,12.85,9.42,19.17,4.21,8.67,8.73,17.38,15.34,24.46,3.15,3.4,6.59,6.52,9.91,9.74,4.45,4.26,9.24,8.16,14.59,11.91.27.2.44.37.42.49v.03ZM289.92,473.43c0,3-.04,6.01-.54,8.98-.65,4.47,0,8.93-.62,13.36-1.06,8.67.06,17.4-.61,26.04-.24.52-.73.34-1.2-.02-15.25-12.48-31.09-24.21-45.85-37.29-8.66-7.31-18.67-12.78-28.1-19-1.24-.68-2.15-1.76-3.16-2.74-.32-.35-.06-.42.52-.42,9.76.17,19.55.11,29.07-2.33,2.81-.6,5.61-1.27,8.46-1.65.74-.09,11-.65,7.51-2.35-2.73-.91-5.21.04-7.88.23-5.36.66-10.64,1.85-15.96,2.82-9.75,1.9-19.63.58-29.41.06-14.14-1.95-27.65-6.94-41.43-10.54-9.91-2.51-19.74-5.28-29.43-8.54-16.36-4.24-27.9-13.53-39.71-25.14-8.45-8.07-13.84-18.32-19.13-28.59-2.5-4.81-5.49-9.4-7.62-14.39-1.08-2.74-1.78-5.62-2.61-8.45-.26-.84-.57-2.14.58-2.38.47-.1,1.01-.1,1.51-.13,5.69.18,9.89-5.96,9.22-11.48-.62-3.45-1.73-6.78-2.69-10.16-.91-3.7-3.36-6.55-6.57-7.74-3.07-1.31-6.57-1.55-9.79-1.59-.38,0-.89-.08-1.03-.36.34-6.8,8.48-10.05,14.52-9.41,12.72,2.2,21.13,12.68,25.2,24.25,3.45,8.92,7.12,17.91,9.09,27.29.05.62.38,2.01,1.24,1.49.42-.28.53-1.2.87-1.38.31-.15.56.09.8.3,4.25,4.25,8.81,8.18,12.44,12.96,2.38,3.13,4.31,6.57,5.2,10.43.23,1.02.43,2.01,1,2.9.35.7,1.03.73,1.2-.02.97-1.27-2.4-6.74.37-5.93,6.94,3.2,14.34,5.44,20.76,9.69,5.87,4.08,9.7,10.47,9.81,17.78.18,3.11-.17,6.26.13,9.34.35,1.14,1.55.72,1.79-.28.54-2.32.27-4.79.47-7.17.75-8.22-4.19-15.24-9.26-21.07-7.72-4.59-16.43-7.66-24.68-11.23-1.04-.35-2.05-.65-2.45-1.79-1.23-2.95-3.52-5.05-5.4-7.42-.31-1.38,1.57-1,2.41-.78,4.26,1,8.65.73,12.96,1.2,4.15,1.38,7.88,3.83,11.95,5.47,5.34,2.74,11.65,3.46,16.17,7.66,17.23,11.88,34.71,23.44,52.1,35.12,13.21,8.48,29.25,10.34,44.57,9.43,5.74-.17,11.23.84,16.55,2.82,5.7,2.24,11.97,3.95,17.19,7.48l.03.05c.99,8.1-.82,16.5-.57,24.61ZM517.86,331.22c-.68,21.88-2.85,43.72-3.52,65.6-.15,1.63-.36,3.35-.94,4.93-.84,1.32-2.15-.18-3.35-.38-5.11-1.84-10.66-3.19-16.1-2.81-11,.94-21.37,5.6-31.22,10.34-25.32,12.2-48.95,27.43-73.33,41.32-5.93,3.51-11.39,7.89-17.68,10.8-18.28,8.79-36.37,5.12-54.61-1.47-14.84-5.29-27.23-15.66-42.27-20.48-.47-.94,2.34-.49,3.01-.56,9.13,1.12,18.06,3.17,26.99,5.39,9.49,2.33,18.66,5.77,27.93,8.82,6.31,2.21,12.77,4.65,19.57,4.15,4.95-.3,9.5-2.47,14.08-4.08.73-.22,1.89-.69,1.71-1.58-.25-.79-1.21-.5-1.83-.32-3.37,1.02-6.76,2.06-10.17,2.97-11.94,3.1-29.62-6.87-41.95-9.84-15.25-4.22-30.92-8.75-46.89-7.82-15.45-.19-31.59,1.37-46.05-5.23-18.95-9.71-35.69-23.09-53.5-34.65-.2-.14-.38-.31-.44-.51-.06-.26.34-.35.84-.16.46.17.86.45,1.3.64l.06.03c12.2,4.24,24.14,9.53,35.53,15.67,6.75,3.71,13.2,8.07,20.59,10.4,5.1,1.96,10.62,1.93,15.94,2,4.64.77,9.31.79,13.99.83,3.18.04,6.3.72,9.47.68,2.89.09,5.8-.55,8.69-.84,2.15-.13,4.37.13,6.55.06,18.25-.92,37.28-2.39,54.61,4.68,4.45,1.9,8.76,4.07,13.4,5.49,6.53,2.19,14.13,2.13,19.72-2.32,12.24-8.03,23.69-17.45,36.88-23.9.54-.27,1.42-.69,1.47-1.22-.91-3.28-22.93,11.86-25.66,13.75-3.29,2.25-6.64,4.43-9.94,6.67-3.31,2.25-6.65,5.06-10.69,5.73-11.61,1.7-22.9-7.34-34.15-9.6-13.38-3.14-27.28-2.54-40.85-2.02-11.45.45-22.92.51-34.37.24-11.73.03-23.55-.6-33.87-6.83-21.25-12.74-44.57-21.48-67.8-29.85-2.25-.82-4.44-1.94-6.54-3.01-1.06-1,.25-2.49.6-3.66,3.23-10.09-12.01-14.23-18.93-16.44-2.44-.94-4.24,1.24-5.79,2.82-.83.66-1.89,2.73-2.97,1.4-2.39-3.07-2.27-8.55.3-12.38,3.61-4.72,9.76-7.88,15.84-6.73,1.63.37,2.37,2.07,3.65,2.98,8.2,5.6,17.14,10.02,25.55,15.32,10.96,6.84,23.67,9.91,35.66,14.43,15.77,6.02,31.32,12.84,47.95,16.24,8.84,1.77,17.84,1.78,26.79,1.37,5.67.34,11.32.27,16.95-.26,11.82.04,23.59-1.39,35.39-.81,5.58.03,11.04,1.57,16.48,2.66,7.69,1.58,15.37,3.04,23.02,4.84,8.03,1.84,15.22-2.32,22-6,12.09-6.54,25.02-11.34,37.46-17.14,1.1-.42,5.78-3.03,1.96-2.65-12.09,5.39-24.38,10.45-36.55,15.67-20.51,13.06-23.53,6.98-45.13,3.29-5.01-1.07-10.03-2.19-15.1-3-3.67-.1-7.42-.24-11.03-.83-10.67,1.28-21.61.5-32.39,1.4-14.52.13-29.31,2.04-43.48-2-19.62-4.64-37.62-13.73-56.74-19.86-8.11-2.76-16.99-6.03-24.03-10.72-1.22-.77.28-1.41.94-2.08,4.74-5.34,5.2-14.43-2.07-17.88-4.9-2.55-10.94-5.1-16.46-2.94-2.08,2.03-4.53,3.41-6.31,6.02-.32.5-.78.98-1.2.25-2.97-5.94,1-12.95,6.46-15.67,3.54-1.78,7.66-2.27,11.58-2.39,11.37-.2,22.83,2.18,32.76,7.89,2.37,1.2,4.64,2.68,7.04,3.78.32.13.97.24.97-.26.05-.49-.7-1.33-.67-1.74.11-.49.75-.25,1.14-.18,3.14.77,6.46-.12,9.59.8,6.85.18,13.69.62,20.51,1.45,10.73.99,21.28,3.37,31.44,7.08,2.25.69,3.37,2.74,4.22,4.74.19.27.5.33.72.1.67-.52,0-2.22.49-2.96,2.05-.97,4.67-.81,6.89-1.48,7.81-1.83,15.63-3.53,23.59-4.48,5.68-.89,11.48-.74,17.15-1.73,10.68-.08,21.37-1.39,31.23-5.78,18.33-8.54,38.99-8.68,58.18-14.3.5.07,3.98-2.3,1.72-2.04-13.32,2.74-25.15,4.94-38.47,7.06-1.13.22-1.28.02-.31-.73,4.12-3.7,7.85-7.34,11.35-11.5,1.66-1.91,2.6-4.29,4.14-6.28,1.04-1.17,2.53-1.57,4.02-1.86,12.12-2.44,24.41-1.18,36.49.57.82-.04,11.12.65,8.27-1.46-4.43-.88-9.01-.53-13.46-1.41-6.92-1.45-13.98-1.31-21.01-1.28-14.48.33-28.22,5.59-42.03,9.37-14.38,3.31-29.23,6.72-44.04,5.61-11.01-1.01-23.6-1.72-32.24-9.4-2.9-3.01-4.49-7.18-5.33-11.19-3.68-16.84,6.87-31.43,23.38-35.22,4.88-1.09,9.81-1.74,14.76-2.41,5.66-.69,11.33-1.83,17.01-1.99,6.87.06,13.72.84,20.5,2,4.21,0,8.19-1.89,12.35-2.4,12.57-2.02,25.07-5.33,35.69-12.54,3.19-1.96,6.56-3.64,9.81-5.5,4.59-2.57,8.7-5.9,13.55-8.04,3.52-1.57,7.06-3.12,10.66-4.46,15.93-7.1,29.58-1.31,41.64,10.01,12.81,11.81,27.46,21.34,40.86,32.43,5.72,4.75,9.24,11.92,9.88,19.33,1.2,14.51.21,28.99.55,43.51ZM136.6,347.67c1.55-2.76,4.19-4.21,6.52-6.01,1.63-1.41,2.8-.45,4.56-.09,4.26.31,8.35,1.78,11.79,4.34,2.7,1.97,3.3,5.23,2.46,8.27-.55,2.41-1.84,5.77-4.33,6.78h-.06c-.31.04-.62-.06-.91-.19-2.67-1.2-5.24-2.55-7.77-4-4.06-2.33-7.98-4.89-11.91-7.47-.65-.36-.73-1.01-.34-1.62Z"/>
      <path class="cls-1" d="M11.79,268.24c-.28.22-.44.62-.35.97l.02.05c.07.22.29.45.49.61.75.57,1.52,1.17,2.29,1.74,2.25,1.63,4.82,3.18,7.52,3.56,1.22.19,2.47.02,3.67-.23,2.05-.39,4.05-.2,6.07-.29.56-.02,1.14-.03,1.67.15.73.23,1.23.8,1.68,1.39,1.54,1.94,3.49,3.48,5.07,5.38,1.7,1.76,3.86,2.64,6.16,3.33.68.21,1.72.36,2.17-.28.48-1.11-1.69-1.51-2.46-1.91-.58-.24-1.15-.51-1.71-.78-1.76-.86-3.37-1.92-4.68-3.68-.51-.68-1.01-1.39-1.56-2.03-3.04-3.54-6.88-4.97-11.57-3.74-4.16,1.5-8.52-.5-11.79-3.21-.69-.42-1.88-1.51-2.68-1.02Z"/>
      <path class="cls-1" d="M455.93,635.83c-4.54-16.21-10.26-32.09-13.86-48.56-5.1-22.87-8.61-46.04-12.78-69.08-3.49-19.82-7.08-39.63-9.92-59.56-.61-4.27-1.26-8.58-1.81-12.87-.14-1.26.26-3.53-1.2-4.09h-.05c-.84.1-.9,1.36-.8,2.12.21,1.74.31,3.5.51,5.23.57,3.74,1.06,7.5,1.49,11.26,2.38,18.38,5.72,36.62,8.96,54.87,5.63,29.77,9.43,60.03,17.88,89.18,2.2,7.51,4.72,14.93,7.05,22.4,1.35,4.61,3.05,9.14,4.09,13.83.18.66.45,1.84,1.17,1.92.24,0,.42-.16.54-.41.21-.5.09-1.05-.02-1.58-.39-1.57-.81-3.12-1.23-4.67Z"/>
      <path class="cls-1" d="M395.93,615.12c-.25-3.55-.97-7-1.4-10.52-.67-5.08-1.23-10.17-2.05-15.23-2.1-13.03-4.59-25.99-6.88-38.98-2.19-10.47-4.13-20.99-6.08-31.5-.91-5.71-1.92-11.41-2.86-17.12-.77-5.35-1.49-10.68-2.53-15.98-.96-4.71-1.16-9.57-2.02-14.29-.21-.97-.23-1.9-.35-2.89-.09-.67-.47-1.8-1.12-1.85h-.05c-.52.05-.79.76-.89,1.32-.18,1.61.69,3.1.77,4.71.65,6.81,1.65,13.6,2.67,20.35.81,4.78,1.43,9.57,2.17,14.36,2.58,15.71,5.91,31.27,8.62,46.96,4.48,22.44,8.34,45.02,10.72,67.78.11.88.12,1.78.22,2.67.06.49.25.99.61,1.12.51.19.9-.34.98-.8.41-2.07-.17-4.25-.4-6.32-.12-1.24-.02-2.53-.12-3.8Z"/>
      <path class="cls-1" d="M460.87,504.87c.96-.22.83-1.68.82-2.52-.05-2.4-.4-4.82-.46-7.19-.05-4.77-1.07-9.5-.78-14.27.03-.58-.02-1.15-.13-1.72-.41-1.81-.59-3.66-.65-5.51.01-7.27-1.18-14.49-1.26-21.77-.06-1.74-.2-3.47-.52-5.18-.89-5.03-1.05-10.14-1.57-15.19-.21-2.02-.57-4.03-.75-6.06-.12-1.26-.13-2.51-.04-3.8.12-1.01-.23-1.78-.99-2.42-.08-.08-.16-.14-.24-.15-.07,0-.09.08-.11.14-.52,2.11-.31,4.56-.21,6.75.65,8.37,1.45,16.73,2.17,25.1.61,5.78,1.06,11.59,1.37,17.39.3,3.79.95,7.57.65,11.38-.12,1.2.33,2.33.52,3.51.26,1.54.31,3.1.35,4.65-.02,5.05,1.37,10,1.02,15.09-.05.64.03,1.7.76,1.77h.05Z"/>
      <path class="cls-1" d="M461.93,505.84c.07-.27-.06-.53-.37-.56-.46-.02-.76.35-.59.78.35,1.48-1.39,3.74.44,4.85h.06c.13,0,.26-.14.35-.24,1.27-1.54-.33-3.3.1-4.83Z"/>
      <path class="cls-1" d="M132.5,303.59c-2.49.97-5.07,1.82-7.34,3.29-.76.53-1.74.75-2.5.12-2.35-1.83-5.14-3.28-7.68-4.86-8.96-5.91-18.24-11.21-28.49-14.58-2.87-.83-4.51-3.34-6.08-5.69-4.97-7.28-9.58-5.95-16.93-8.44-3.1-1.07-5.89-2.98-7.78-5.69-2.09-2.8-4.04-5.77-6.11-8.55-1.94-2.79-4.44-5.33-8.03-5.62-4.55-.41-8.81-2.41-13.18-3.94-3.92-1.34-7.83-2.75-11.35-4.85-.48-.3-1.13-.57-1.55-.07-.28.34-.15.89.19,1.19.83.75,1.87,1.25,2.83,1.8,1.63.89,3.34,1.64,5.09,2.29,5.4,2.03,10.69,4.44,16.41,5.41,1.63.25,3.4.6,4.79,1.46,1.81,1.01,3.01,2.94,3.92,4.8,1.33,2.46,3.33,4.57,4.96,6.73.7.91,1.39,1.83,2.18,2.67,3.04,3.15,7.43,4.45,11.43,5.88,2.45.86,5.17.52,7.44,1.98,4.69,2.89,5.25,8.59,10.68,10.45,2.69,1.11,5.39,2.18,8.07,3.31,9.17,3.65,17.3,9.38,25.65,14.48,2.36,1.45,4.68,2.98,6.76,4.82,2.41,2.2,4.97,4.28,7.44,6.38.22.19.51.39.78.44.37.09.73-.16.76-.55.15-1.63-7.4-7.39-9.02-8.93-.23-.2-.57-.55-.45-.82.06-.16.26-.31.52-.44,7.26-3.06,15.05-4.93,21.61-9.48,1.75-1.47,3.57-1.8,5.72-.99,6.86,2.41,20.54,4.45,25.38,9.14.46.46.87.99,1.27,1.52,2.42,3.33,5.57,5.93,8.37,8.88,1.36,1.53,3.12,2.48,4.84,3.58.29.19.75.39.97.11.24-.26.16-.96-.11-1.38-.41-.67-1.15-1.07-1.81-1.51-2.34-1.51-4.51-3.29-6.18-5.49-.47-.59-.94-1.19-1.44-1.75-1.75-1.99-3.71-3.76-5.48-5.72-1.27-1.48-2.91-2.61-4.76-3.22-5.32-1.8-10.65-3.94-16.25-4.74-.54-.08-1.64-.55-1.55-1.12.03-.3.48-.5.77-.61,2.86-.97,5.33-2.29,6.41-5.11.22-.6.55-1.36,1.29-1.35.91.04,1.71.65,2.52,1.05,5.04,2.6,9.96,5.54,15.57,6.89,5.23,1.17,9.62,4.45,13.27,8.27,2.13,2.15,4.65,3.72,7.56,4.56,3.68,1.18,7.35,2.35,11.33,1.42,2.11-.66,4.07-.13,5.62,1.47,1.84,1.87,3.69,3.72,5.76,5.29,5.34,3.87,11.14,7.07,16.88,10.3,1.93,1.07,4.02,1.96,5.7,3.43,1.33,1.08,2,2.74,3.11,4.05,1.27,1.53,3.03,2.54,5,2.78,1.73.25,3.61-.27,5.16.53,1.86.93,2.95,2.91,4.88,3.77.43.2.82.13.95-.21.19-.67-.3-1.35-.76-1.9-2.18-2.86-5.23-4.47-8.87-4.45-1.38.02-2.93-.09-4.08-.85-1.84-1.08-2.25-3.47-3.77-4.87-.64-.65-1.37-1.18-2.14-1.67-4.09-2.53-8.28-4.91-12.48-7.28-4.73-2.51-9.18-5.38-12.84-9.34-2.34-2.13-5.29-3.26-8.49-3.14-8.56.8-15.83-2.8-21.5-9.17-2.3-2.08-5.13-3.39-8.02-4.44-4.4-1.6-8.98-2.72-13.01-5.26-2.36-1.58-5.06-3.47-7.98-3.51-3.07.08-2.24,4.41-5.1,5.58-.78.4-1.65.62-2.48.89-1.37.4-2.62,1.11-4.02,1.44-1.47.38-3,.58-4.4,1.19-.58.25-1.12.59-1.64.94-2.71,1.89-5.6,3.38-8.77,4.47-.82.34-1.53.13-1.97-.72-.58-.94-1.19-1.94-1.76-2.9-2.08-3.52-4.18-7.02-7.19-9.84-.99-.93-1.86-1.96-2.6-3.1-1.39-2.08-2.38-4.36-3.26-6.68-.31-.76-.65-1.51-1.07-2.23-.29-.51-.63-1.04-1.01-1.08-.7-.03-.73.99-.62,1.51.44,2.49,1.96,4.62,3.01,7.04.12.29.25.69.06.93l-.03.04c-.2.22-.65.27-.99.28-2.59.06-4.43-.43-5.83-1.64-1.88-1.6-2.63-4.35-3.58-6.57-1.29-3.29-3.9-5.84-5.68-8.81-.73-1.45-1.78-2.84-3.41-3.28-2.03-.53-4.18-.79-5.99-1.91-2.05-1.09-3.52-2.84-5.43-4.09-3.12-1.73-6.54-2.86-10.01-3.66-2.69-.51-5.18-1.05-6.47-3.75-2.83-4.99-7.69-7.43-12.56-9.94-2.53-1.4-4.88-3.09-7.21-4.8-4.5-3.35-9.16-6.38-14.92-6.63-1.34-.04-2.84-.02-3.78-1.12-2.52-4.03-4.5-2.83-8.74-3.54-1.4-.27-3.19-.63-3.33-2.32-.24-1.94.79-3.78.42-5.74-.14-.69-.46-.91-.93-.14-.76,1.4-1.1,2.93-1.43,4.34-.21.92-.58,1.85-.13,2.72,1.12,1.93,3.19,3.21,5.38,3.18,1.72.11,3.42.66,5.09.73.42.02.84.16,1.13.45.59.58.78,1.42,1.34,1.97.71.78,1.92.92,2.95,1.14,4.57.8,9.28,1.82,13.03,4.75,4.38,3.15,8.74,6.32,13.63,8.72,1.74.84,3.51,1.69,4.98,2.97,1.46,1.16,2.17,2.94,3.28,4.42.87,1.15,1.93,2.14,3.14,2.91,1.8,1.17,4.03,1.83,6.17,2.23,3.36.66,6.56,1.68,9.37,3.72,1.01.71,1.88,1.61,2.8,2.43,1.6,1.45,3.87,2.33,6.11,2.56,1.69.11,3,.87,3.81,2.38,2.04,3.17,4.69,5.95,5.85,9.68.74,2.48,1.3,5.45,3.84,6.71,2.72,1.56,5.66,2.79,8.81,2.22.76-.13,1.51.09,2.08.63,4.38,3.87,6.58,9.26,9.93,13.72.27.35.57.83.43,1.25-.34.83-1.43,1.06-2.19,1.39Z"/>
      <path class="cls-1" d="M215.03,295.42c-5.33-1.12-10.28-2.86-14.32-6.43-2.03-1.76-3.5-4.07-5.64-5.67-2.13-1.89-12.93-9.63-15.24-6.83-.19.31.02.64.44.87,6.7,2.35,13.01,5.86,17.62,11.47,3.67,4.85,9.47,6.82,15.23,8.28,1.89.5,3.79,1.16,5.28,2.46,4.49,4.34,9.68,7.73,14.8,11.23.45.3.92.66,1.43.79.48.12,1.01-.13,1.04-.57v-.05c0-.29-.22-.6-.52-.88-.59-.58-1.23-1.06-1.91-1.52-5.73-3.68-10.93-8.04-16.14-12.39-.63-.37-1.35-.59-2.06-.75Z"/>
      <path class="cls-1" d="M143.63,285.4c-.11.69-.41,1.53-.01,2.17.26.39.84.52,1.25.28.7-.43.52-1.64.74-2.4.75-2.17.39-5.51,2.43-6.92,1.1-.79,2.81-.83,4.2-.8,6.55.17,13.05-.98,19.59-.72.9,0,2.54.34,2.79-.79v-.05c-.24-1.24-2.03-.79-2.99-.84-6.58.11-13.21-.24-19.78.14-2.53.26-4.9,1.47-7.36,2.11-3.27.81-6.69.28-9.71-1.13-3.31-1.43-6.54-3.07-9.68-4.84-.67-.34-1.28-.88-1.99-1-.74-.15-1.89.89-.97,1.47,6.64,3.32,12.57,8.45,20.78,8.04.36-.02.91-.05,1.14.16.19.16.21.46.2.72-.15,1.44-.3,2.95-.6,4.43Z"/>
      <path class="cls-1" d="M228.19,286.7c4.07.22,7.84,1.34,10.75,4.17,1.45,1.61,3.11,3.12,5.39,3.26,1.97.29,3.75.98,5.47,1.84.64.38,2.07.85,2.24-.15v-.05c-.01-.28-.28-.57-.51-.77-3.31-3.14-8.33-2.58-11.67-5.6-2.23-2.15-3.93-3.81-7.18-4.04-3.35-.49-6.7-1.07-10.03-1.59-.96-.2-2.14-1.1-2.98-.18-.61.76.39,1.64,1.16,1.82,2.42.58,4.88,1.1,7.37,1.28Z"/>
      <path class="cls-1" d="M123.42,262.02c-1.35-.89-2.78-1.69-4.08-2.66-.94-.68-1.8-1.48-2.6-2.31-1.56-1.58-3.33-2.91-5.27-3.98-2.69-1.36-5.45-2.63-7.95-4.29-2.14-1.36-4.22-2.83-6.29-4.28-1.1-.71-1.99-1.83-3.34-2.1-.51-.1-1.26-.05-1.38.19l-.02.03c-.05.13.07.31.27.5,2.39,2.01,4.85,3.94,7.41,5.71,5.19,3.72,11.42,5.81,16.16,10.15.91.8,1.71,1.71,2.7,2.41,1.06.77,2.24,1.4,3.38,2.09.57.36,1.53.96,2.08.49.74-.72-.51-1.54-1.09-1.96Z"/>
      <path class="cls-1" d="M280.36,616.83c-9.69-24.29-20.4-48.16-31.45-71.86-8.82-20.56-17.06-41.81-20.85-63.91-.03-.75-.34-2.09-1.05-2.22h-.04c-1.31.49-.53,3.15-.38,4.59.36,2.41.81,4.86,1.33,7.25,4.31,18.41,10.67,36.35,18.32,53.62,11.88,26.01,24.51,51.73,34.53,78.53.45,1.3.71,2.49,1.68,3.59.18.19.43.42.69.35.23-.12.26-.45.25-.7-.05-1.01-.44-1.85-.72-2.78-.72-2.17-1.49-4.33-2.3-6.46Z"/>
      <path class="cls-1" d="M309.53,275.89c-3.1-8.93-14.34-7.61-22.12-5.94-11.77,2.33-15.69,14.8-13.15,25.31,1.71,9.74,9.93,13.58,19.09,13.51h.07c3.59.15,7.11-.71,10.5-1.72,1.37-.42,2.73-.94,3.95-1.68,4.06-2.3,5.01-7.33,5.14-11.61.22-4.67-.78-9.28-2.06-13.75-.37-1.29-.86-2.84-1.41-4.11ZM309.56,299.68c-.22,1.49-1.05,2.81-2.48,3.41-3.39,1.38-6.96,2.29-10.59,2.89-2.74.42-5.31.19-7.94-.27-6.84-.71-11.84-5.34-12.26-12.32-.35-4.54-.06-9.27,1.51-13.59,1.91-4.55,5.97-6.43,10.23-7.63,2.54-.7,5.31-.62,7.96-.58h.07c2.14.26,4.48-.02,6.72.6,2.76.77,4.18,2.79,4.91,5.3.85,2.79,1.52,5.64,2.02,8.53.34,2.04.71,4.14.7,6.21,0,2.53-.41,4.96-.85,7.45Z"/>
      <path class="cls-1" d="M346.25,266.09c-.48.15-.37.75-.18,1.15,4.58,10.85,2.5,22.32,2.9,33.63h.04c.35.06,1.09-.66,1.38-1.12.45-.62.39-1.38.43-2.12.08-1.85.65-3.64.75-5.49-.22-8.29-.15-16.88-3.2-24.72-.3-.89-1.12-1.65-2.12-1.33Z"/>
      <path class="cls-1" d="M334.72,263.31c-.18.06-.28.31-.37.5-.86,1.92-.66,4.01-.32,6.02.95,5.75,1.55,11.56,1.61,17.38.05,2.74.58,5.45.72,8.18.16,1.21-.2,2.48.13,3.65.42.85,1.27,1.35,1.3.07.91-12.24-.73-24.21-3.04-35.79h-.02Z"/>
      <path class="cls-1" d="M502.59,316.31c-.63.21-.63,1.33-.4,1.94,1.86,8,3.17,16.2,1.77,24.36-.17.83-.25,2.28.66,2.58h.04c3.73-5.75,1.87-23.75-1.61-28.7-.13-.15-.29-.23-.46-.17Z"/>
      <path class="cls-1" d="M357.91,266.71c-.61-.05-.63.8-.47,1.27,1.83,6.93,3.06,13.96,2.81,21.16.09.46.52.97.99,1.12.32-.07.25-.52.31-.79.63-8.02.77-16-3.59-22.74h-.04Z"/>
      <path class="cls-1" d="M127.59,241.9c-3.48-2.17-6.45-5.13-10.23-6.8-1.23-.57-2.52-.96-3.81-1.4-5-1.69-5.72-2.4-8-7.18-.81-1.59-1.46-3.19-2-4.88-.29-.67-.98-1.73-1.71-1.64-.45.07-.63.55-.57,1.04.04.35.19.72.34,1.05.84,1.89,1.64,3.74,2.39,5.7,1.74,4.85,5.43,7.25,10.48,8.19,1.64.45,3.22,1.21,4.63,2.16,3.72,2.51,7.31,5.23,11.35,7.7.23.13.61.39.81.29l.03-.02c.1-.09.13-.27.12-.44-.03-.58-.19-1.26-.55-1.6-.94-.85-2.22-1.45-3.27-2.18Z"/>
      <path class="cls-1" d="M249.67,251.2c-4.29-2.85-9.7-2.97-14.63-3.79-1.6-.36-3.22-.22-4.85-.53-.84-.15-1.68-.52-2.53-.22-.46.15-1.03.64-.98.99v.05c.05.26.46.41.73.48,3.43,1.01,6.92,1.44,10.44,1.9,3.9.49,7.8.99,11.28,3.06.61.35,1.71,1.17,2.18.28.27-.94-.99-1.7-1.63-2.22Z"/>
      <path class="cls-1" d="M169.93,252.64v.07c.19,1.37,1.9,1.2,2.95,1.18,4.76-.06,9.33,1.45,13.98,2.31,1.53.32,3.03.7,4.53,1.17.41.11.83.23,1.25.16.67-.08,1.34-.9.51-1.29-6.95-2.69-14.18-3.86-21.45-4.64-.74-.1-1.73.2-1.78,1.04Z"/>
      <path class="cls-1" d="M324.07,202.13c-.21,2.05.49,2.74,2.4,3.26,2.22.67,4.59.8,6.76,1.7.62.3.67,1.01.63,1.63-.02.32-.03.71-.3.93-.44.31-1.16-.1-1.67-.04-.51.01-1.19.26-1.3.82v.05c-.03.48.63.73,1.04.85,4.38,1.21,8.78,2.42,13.18,3.54.95.29,2.53.57,2.62-.79-.05-.37-.37-.55-.71-.65-2.77-.82-5.5-1.69-8.27-2.32-.89-.23-2.04-.38-2.55-1.21-.65-1.31.16-3.11-1.4-4.1-2.44-1.51-5.57-1.24-8.05-2.61-1.06-.68-.65-2.17-.69-3.27.01-.68-.01-1.38-.19-2.04-.17-.6-.54-1.64-1.05-.98-.83,1.68-.4,3.58-.46,5.23Z"/>
      <path class="cls-1" d="M341.82,216.2c-.15,2.25-.03,4.55-.09,6.82,0,.15-.03.44.03.52l.02.02c.13.06.3-.05.44-.09.56-.14,1.08-.27,1.14-.88.2-2.34.52-4.72-.15-7.06-.31-1.11-1.34-.04-1.4.66Z"/>
      <path class="cls-1" d="M86.37,200.15c6.86-2.45,14.25-3.85,21.27-7.28l.02-.02c-3.15-1.07-18.38,4.13-22.09,6.47-.48.42.28.9.8.83Z"/>
      <path class="cls-1" d="M135.84,220.99c4.1-.81,8.2-1.68,12.31-3.38.22-.1.44-.17.56-.36.07-.08,0-.24-.04-.34-.39-.62-1.08-.63-1.72-.44-3.3.71-6.61,1.29-9.81,2.46-.87.26-2.07,1.15-2.04,2.05v.03c.13.15.52.02.74-.02Z"/>
      <path class="cls-1" d="M70.76,191.41c1.12-.67-.11-1.67-.98-1.27-2.91.97-5.83,1.97-8.66,3.13-.47.21-.95.5-1.16.97-.2.41-.1,1.08.16,1.24l.04.02c.25.11.55-.11.8-.23,3.09-1.55,6.75-1.8,9.8-3.86Z"/>
      <path class="cls-1" d="M142.44,116.22c4.44-1.89,8.87-3.8,13.42-5.4,1.23-.42,2.52-.98,2.76-2.39.26-1.48.86-.19.97.52.12,3,.01,6.03.06,9.05.02.46.07.97.33,1.35.44.67,1.55.52,1.76-.28.13-.45.04-.99-.05-1.46-.67-3.24-.18-6.49-.28-9.79-.05-.65.2-1.22.84-1.46,5.19-2.07,10.31-4.08,15.63-6.18.27-.1.66-.28.7-.55v-.04c.03-.33-.5-.72-.95-.77-.41-.04-.78.09-1.18.22-4.76,1.85-9.6,3.48-14.35,5.31-2.02.76-4.07,1.45-6,2.43-.62.38-1.56.61-1.67,1.35-.02.25.05.54.05.8-.06,1.28-1.8,1.08-2.69,1.51-3.12,1.02-6.03,2.6-9.11,3.7-.94.41-3.1.77-3.08,2.03.43,1.14,2.02.39,2.84.04Z"/>
      <path class="cls-1" d="M169.2,96.2c4.24-1.02,8.47-2.76,12.43-5.15v-.02c-2-1.21-11.6,2.75-13.11,5.16.04.16.49.05.68,0Z"/>
      <path class="cls-1" d="M307.09,282.5c-.53-2.55-1.25-5.08-2.15-7.59-.05-.16-.11-.3-.17-.41-.21-.38-.45-.44-.62-.29,0,0,0,0-.01,0-.01,0-.02.02-.03.03-.08.1-.15.25-.17.46,0,0,0,.02,0,.02,0,.05,0,.1,0,.15,0,.13,0,.27.04.41,0,0,0,.01,0,.02.27,2.58.75,5.14,1.19,7.7.54,3.27,1.02,6.54,1.01,9.85,0,.12,0,.24,0,.35,0,.12,0,.25,0,.37-.03.85-.1,1.7-.22,2.55-.05.28-.08.61-.06.92,0,.01,0,.02,0,.04,0,.16.05.33.12.49.03.08.07.15.11.22,0,0,0,0,0,0,.03.05.06.09.1.13.12.15.28.26.45.28h.06c1.15-.07,1.6-1.73,1.54-2.75.11-4.41-.27-8.73-1.15-12.98Z"/>
    </g>
  </g>
  <g id="Capa_3" data-name="Capa 3">
    <text class="cls-4" transform="translate(558.01 385.47)"><tspan x="0" y="0">TERCER</tspan></text>
    <text class="cls-5" transform="translate(1361.53 383.01)"><tspan x="0" y="0">CIELO</tspan></text>
    <text class="cls-3" transform="translate(1669.18 484.25)"><tspan x="0" y="0">CENTRAL</tspan></text>
  </g>
</svg>