<?xml version="1.0" encoding="UTF-8"?>
<svg id="Capa_2" data-name="Capa 2" xmlns="http://www.w3.org/2000/svg" xmlns:xlink="http://www.w3.org/1999/xlink" viewBox="0 0 1625.71 1958.82">
  <defs>
    <style>
      .cls-1 {
        fill: #1d1d1d;
      }

      .cls-1, .cls-2 {
        stroke-width: 0px;
      }

      .cls-2 {
        fill: none;
      }

      .cls-3 {
        font-family: Rockwell, Rockwell;
        font-size: 116.52px;
      }

      .cls-3, .cls-4, .cls-5 {
        fill: #000;
      }

      .cls-4 {
        font-size: 268.15px;
      }

      .cls-4, .cls-5 {
        font-family: Impact, Impact;
      }

      .cls-6 {
        clip-path: url(#clippath);
      }

      .cls-5 {
        font-size: 193.13px;
      }
    </style>
    <clipPath id="clippath">
      <circle class="cls-2" cx="818.71" cy="855.78" r="510.66"/>
    </clipPath>
  </defs>
  <g id="Capa_3_Imagen" data-name="Capa 3 Imagen">
    <g class="cls-6">
      <g>
        <path class="cls-2" d="M805.44,792.23c.03,3.31.62,4.08,4.1,4.09,1.54.02,2.93.27,4.4.67.42.11.92.22,1.32.09.56-.14.65-1.07.63-1.7-.41-25.39.79-50.91-.43-75.89-1.42-1.52-7.8-3.53-9.58-2.05l-.06.07c-.27.31-.37.78-.39,1.3-.01,2.39,0,4.78,0,7.12.02,22.1-.05,44.2.03,66.29Z"/>
        <path class="cls-2" d="M729.45,730.07c-4.66-1.29-9.21-2.55-13.82-3.82-.9-.31-1.77-.2-1.92.88-.45,2.57-.04,5.1.38,7.96.06.39.18.84.45,1.09l.07.06c.26.21.61.27.96.29,1.84,0,3.67.32,5.46.74,2.83.65,5.62,1.5,8.56,1.43.4-.01.85-.08,1.14-.32.43-.34.5-1,.52-1.54.04-1.84.14-3.56-.08-5.17-.11-.9-.87-1.41-1.71-1.6Z"/>
        <path class="cls-2" d="M698.6,775.66l.06.06c.35.31.99.28,1.49.24,5.98-.45,11.79.09,17.51,1.11,9.82,1.74,19.36,4.84,29.18,6.72,1.2.29,1.88-.14,1.82-1.46,0-3.45.01-6.78,0-10.17.06-1.94-.79-3.45-2.81-3.81-15.47-2.89-30.56-7.39-46-11.1-.47-.1-.87-.11-1.13.05-.37.22-.44.81-.44,1.26,0,5.02,0,10.05,0,15.55,0,.51.02,1.21.34,1.54Z"/>
        <path class="cls-2" d="M802.49,719.95c-.08-3.4-3.92-1.98-6.06-1.35-.52.14-1.12.31-1.49.7l-.06.07c.9,23.75,1.38,47.75.94,71.87-.05,1.41.68,2.04,2.13,2.24,1.22.19,2.89.91,4.26.73.64-.14.61-1.08.5-1.72-3.23-24.54.37-48.22-.23-72.54Z"/>
        <path class="cls-2" d="M819.9,795.21c-.01.66-.01,1.46.34,1.97.81,1.14,3.03.64,4.38.9,2.3.54,3.31.07,3.55-2.49.11-10.21-.14-20.51.06-30.73.29-11.51-.55-23.05-3.43-34.16-.79-2.63-2.03-5.03-4.22-6.86-.35-.29-.79-.61-1.23-.52l-.07.02c-.55.21-.59,1.55-.62,2.56-.06,4.12,1.24,7.84,1.08,11.81.02,9.04-.98,18.08-1.08,27.13.05,10.11,1.45,20.22,1.23,30.36Z"/>
        <path class="cls-2" d="M806.7,800.03c8.5,4.76,17.37,6.5,26.52,7.36.43.02.8-.05,1.05-.25.63-.55.54-2.33,0-2.97l-.07-.08c-.24-.25-.58-.4-.97-.49-8.93-1.62-17.71-3.22-26.84-4.34-1.31-.14-.19.5.31.77Z"/>
        <path class="cls-2" d="M535,612.62c7.31-3.01,14.68-5.94,22.11-8.73,1.19-.48,3.56-1.35,4.19.21.21.6-.62,1.13-1.18,1.35-9.41,4.15-18.88,8.06-28.46,11.63-1.03.38-1.55,1.28-1.51,2.35,0,3.8,0,7.63,0,11.74-.02.54.07,1.26.48,1.51,11.88-3.48,23.42-9.08,34.75-13.13,1.09-.41,1.73-1.33,1.81-2.48.34-1.73-.55-16.71,2.02-15.19,1.79,4.46.27,9.61,1.32,14.38.33,1,1.34.77,2.15.44,9.76-3.54,18.69-7.79,28.37-10.64,3.46-2.05,2.31-6.74,2.34-10.24-.05-.74-.07-1.79-.81-2.13-.48-.21-1.2,0-1.73.22-6.76,2.44-13.27,5.96-20.13,8.06-1.68-.04-1.85-1.57-.41-2.21,7.7-4.02,15.9-7.69,24.4-10.3,3.01,1.61.96,9.25,1.75,12.45.07.92.57,1.43,1.52.97,1.27-.49,2.8-.67,4.1-1.27,9.69-3.54,19.23-8.56,29.5-10.13,5.4.51,10.81,2.77,16.18,3.83,1.73.05,7.09,2.86,7.22.35.05-5.41.1-10.66-.02-16-.14-1.12-1.15-1.01-2-.71-5.81,1.84-11.06,4.82-16.98,5.45-1.69.22-1.24-.39-.17-.98,5.67-3.47,11.91-5.5,17.9-7.92.88-.45,1.28-1.26,1.4-2.24,1.7-14.33,1.24-28.7,1.21-43.47-.06-1.2-.67-1.38-1.74-.94-18.6,7.67-36.59,15.08-54.35,22.42-3.79,1.5-.6,10.4-2.62,14.45-.18.55-.64,1.67-1.19.81-2.16-2.65.99-14.83-3.38-12.29-6.03,2.54-12.05,5.03-17.95,7.54-1.09.46-1.52,1.51-1.48,2.66-.02,6.83-.07,13.35.03,19.86.11,2.23-.08,4.87-2.44,5.86-6.04,2.31-12.03,4.99-18.28,6.7-2.97.7-2.99-2.53-4.55-4.09l-.07-.03c-8.72,4.35-17.34,9.35-26.44,12.56-.83.3-1.62.82-1.8,1.71-.11,2.09-.55,4.61.43,6.49,1.31.82,3.16-.59,4.51-.88ZM664.34,540.12l-.02.04c-6.7,4.04-13.86,6.99-21.04,8.71-.33.07-1.09.26-1.15-.01,2.55-4.08,18.81-10.78,22.21-8.74ZM598.38,579.25c5.22-1.85,10.14-4.53,15.43-6.26,1.52-.73,4.46-.4,4.56-2.56,0-.44-.12-.93-.09-1.35.19-1.26,1.78-1.65,2.82-2.29,3.26-1.67,6.74-2.84,10.16-4.12,8.04-3.1,16.24-5.86,24.3-8.99.68-.24,1.3-.45,2-.38.76.07,1.65.75,1.61,1.3v.07c-.07.45-.73.75-1.19.92-8.99,3.56-17.67,6.97-26.45,10.47-1.08.4-1.51,1.36-1.43,2.47.18,5.58-.66,11.09.48,16.57.15.79.32,1.71.09,2.47-.35,1.35-2.23,1.62-2.98.48-.44-.63-.52-1.5-.56-2.28-.09-5.11.09-10.25-.11-15.32-.2-1.21-1.2-3.39-1.65-.88-.41,2.39-2.6,3.35-4.68,4.05-7.7,2.7-15.2,5.93-22.72,9.13-1.39.59-4.08,1.85-4.81-.07-.03-2.14,3.63-2.74,5.22-3.43Z"/>
        <path class="cls-2" d="M838.86,808.38c.77,1.05,2.98.56,4.28.83.78.08,1.63.44,2.09.26.36-.11.5-.53.53-1.13.11-12.66.11-24.87,1.25-37.27.11-6.94-1.05-13.87-1.23-20.83.06-6.81.59-13.69-1.21-20.35-4.49-20.52-17.62-28.53-38.12-28.79-6.42-.32-12.58,3.27-17.63,8.89-2.84,3.04-4.4,6.95-6.07,10.56-.27,1.01.61.98,1.38.33l.09-.07c7.98-5.59,17.33-9.68,27.05-6.75,14.98,4.1,21.03,19.81,20.88,34.27.1,4.48-.37,9.01.02,13.48.45,4.24,1.72,8.77.92,12.88-1.6,7.8-.57,15.44-.93,23.55-.2,2.13,2.27,1.13,3.54,1.69,3.72,1.01,1.98,5.61,3.15,8.46Z"/>
        <path class="cls-2" d="M781.56,791.41c2.78-.22,5.62,1.11,8.55,1.12.47,0,1.02-.09,1.34-.4l.06-.06c1.04-22.96.02-46.25.36-69.51.08-1.64-.59-1.94-1.98-1.15-6.04,3.19-9.73,7.54-10.87,13.96-.88,16.89-.03,33.96-.31,50.88-.01,2.31-.57,5.73,2.85,5.17Z"/>
        <path class="cls-2" d="M775.26,721.41c-4.2-.69-8.19-2.69-12.54-3.24-1.27-.14-1.59,1.04-1.53,2.08-.04,5.03.09,10.03-.09,15.09.1,1.89-1.23,6.17-2.35,4.1-1.07-5.86-.27-11.97-.46-17.92-.06-2.25.56-5.4-2.41-5.92-12.8-3.79-25.76-6.78-38.52-10.67-13.83-4.27-27.61-8.95-41.66-12.45-1.43-.48-2.24.3-2.2,1.72-.61,9.38.1,18.74-.46,28.17.32,2.92,4.53,2.07,6.73,3,1.29.39,2.04-.47,1.93-1.74,0-7.69,0-15.11,0-22.46-.42-2,1.78-5.01,2.66-1.73-.08,9.18,1.08,18.76-.39,27.8-2.29,4.16-9.94-.39-13.83-.5-8.76-2.13-17.55-4.18-26.48-6.26-.87-.22-2.02-.42-2.22.71.11,6.02-.73,12.3.36,18.04,30.31,9.37,62.2,16.31,92.99,23.42l.06-.04c1-3.64.09-7.89.39-11.73-.29-2.46.67-5.52-.54-7.73-6.07-1.09-12.34-2.26-18.36-3.56-1.5-.23-3.11-.56-4.2-1.68-3.14-3.11-.37-8.6-2.22-12.11-1.63-1.92-4.9-1.46-6.42-3.17-1.73-2.81,2.83-2.33,4.38-1.69,6.97,1.7,13.84,3.74,20.79,5.45,5.29.62,6.58,3.09,6.49,8.22.15,2.05-.54,4.61,1.96,5.21,7.79,1.94,15.66,3.77,23.45,5.77,2.68.82,5.87.81,7.59,3.35.44.68.43,1.23-.1,1.36-9.53-1.03-18.42-4.44-27.75-6.27-1.44-.48-2.23.49-2.07,1.87.16,5.67-.32,11.03.21,16.47.36,1.73,2.15,2.21,3.7,2.41,7.16,1.01,14.11,2.9,21.05,4.77,1.9.62,3.86.6,5.72,1.31,4.31,2.32-.56,2.75-2.92,2.3-16.17-2.45-13.99-8.07-14.58,9.96-.15.91-.04,1.91.99,2.18,23.75,4.59,21.18,12.61,21.12-10.2-.15-17.78-.6-35.64,3.19-53.01-.28-.43-.93-.59-1.47-.68Z"/>
        <path class="cls-2" d="M642.75,596.72c-1.3,1.63-1.63,4.01-1.15,5.99.27,1.01.67,2.02.62,3.08-1.07,4.35-1.42,8.78-1.03,13.2.02,1.02.51,1.81,1.48,2.21,14.03,6.24,30.36,7.97,43.56,15.46-.05,1.8-2.7,1.42-3.91.85-12.96-4.49-26.19-7.63-39.09-12.58-.48-.2-1.26-.47-1.59-.2-.35.24-.4.97-.39,1.45,0,7.32,0,14.42,0,21.37-.09,1.19.53,2.18,1.69,2.52,4.03,1.56,7.86,2.8,11.9,3.92,2.97.82,2.95,4.07,2.84,6.6-.07,7.29-.11,14.6.01,21.9.48,2.44,3.89,2.61,5.69,3.59,19.18,5.44,38.41,10.87,57.39,17.02,2.19.38,10.01,4.6,9.73.55.3-7.75-.54-15.2.33-22.68.1-1.21,2.25-2.52,1.57-3.52-20.66-7.31-41.68-11.5-61.32-19.22-1.38-.51-.64-.81.31-.86,6.55-.53,12.33,3.06,18.58,4.07,1.24.34,2.17-.4,2.08-1.7.44-6.87-.68-13.94.55-20.88.72-2.01,4.76,1.22,6.28,1.03,1.08.23,1.49-.81,1.41-1.77-.3-8.15.59-16.57-.34-24.61l-.06-.08c-17.83-7.45-36.72-12.21-55.1-16.91-.68-.18-1.54-.29-2.05.18Z"/>
        <path class="cls-2" d="M668.97,596.77c.05,1.04.56,1.75,1.55,2.12,11.23,3.59,22.3,8.54,33.89,10.83.56-.18.64-1.11.63-1.73-.05-12.35.09-24.26-.05-36.13-.1-.93-.75-1.51-1.58-1.8-3.57-1.21-7.11-2.39-10.75-3.6-1.21-.44-1.86.05-1.9,1.32-.26,4.17-.2,8.22-.02,12.33.23,3.27-2.78,2.75-4.92,1.81-1.76-.73-3.29-.86-3.45,1.23-.47,4.55.83,9.43-1.18,13.77-.18.31-.36.47-.52.43-.29-.09-.46-.74-.54-1.11-1.01-4.7-.42-9.52-.7-14.15-.03-.53-.12-1.1-.35-1.56-.52-1.08-1.93-1.52-3.08-2.13-.59-.35-3.06-1.21-1.49-1.71,4.1-.96,7.85,1.15,11.69,1.82.91.07,1.3-.75,1.38-1.55.34-3.61-.13-7.2.45-10.76.04-.95-.7-1.46-1.52-1.73-4.73-1.74-9.5-3.49-14.81-5.44-.46-.17-1.17-.4-1.51-.17l-.05.04c-.33.24-.29,1.08-.25,1.59.9,12.49-1.1,24.29-.89,36.28Z"/>
        <path class="cls-2" d="M640.72,768.89c.13.95.73,1.66,1.62,1.98,1.77.62,3.63.96,5.46,1.15,5.73.76,11.46-.98,17.14-.8,9.92.63,19.43,6.25,29.6,4.33.52-.34.64-1.06.64-1.68,0-5.26,0-10.44,0-15.78,0-.53-.05-1.16-.34-1.56l-.06-.07c-.26-.32-.67-.5-1.16-.64-17.09-3.79-34.25-8.86-51.51-12.71-.47.2-.51,1.04-.5,1.58.06,8.26-1.81,16.2-.9,24.18Z"/>
        <path class="cls-2" d="M531.74,602.49c3.82-1.67,7.54-3.35,11.25-5.16,2.46-1.2,4.93-2.46,7.4-3.82.39-.22.78-.5,1-.87l.05-.09c.24-.44.27-1,.26-1.52-.04-4.75.35-9.53-.15-14.58-.04-.46-.15-1.15-.57-1.29-.35-.14-.96.16-1.36.37-6.23,3.19-12.98,4.12-18.39,7.96-.79.56-1.12,1.46-1.1,2.42,0,5.08,0,10.14,0,15.45-.04,1.25.38,1.73,1.59,1.14Z"/>
        <path class="cls-2" d="M554.81,589.85c.13,1.37,1.18,1.22,2.53,1.2.88,0,1.88.03,2.55.18,1.1.23,1.57.81,2.07,1.89.35.83,1.17,1.1,2,.72,4.15-1.68,8.27-3.5,12.51-4.94,3.53-1.03,4.4-2.32,4.21-5.99-.03-5.59-.01-11.25,0-17.89,0-.5-.01-1.29-.33-1.53l-.06-.04c-.32-.23-1,.03-1.43.21-8.03,3.36-15.52,6.46-22.77,9.52-.34.17-.64.37-.85.64-.37.45-.46,1.14-.46,1.74.02,4.98-.06,9.62.03,14.28Z"/>
        <path class="cls-2" d="M670.53,553.8c0,.54.03,1.18.31,1.59l.05.08c.28.38.78.61,1.24.78,4.2,1.5,8.4,3.04,12.63,4.56,6.4,2.27,12.87,4.62,19.56,6.48,1.03.24,1.27-.66,1.23-1.53-.02-6.73-.16-13.15.05-19.55.43-5.26-1.45-7.02-6.19-8.69-7.28-2.92-14.43-6.24-21.7-9.11-1.97-.7-6.12-3.19-7.11-.14-.2,8.44,0,16.97-.07,25.54Z"/>
        <path class="cls-2" d="M641.42,677.31c.02.4.1.76.27,1.06.25.45.72.75,1.2.97,3.09,1.34,6.3,2.19,9.66,3.22.4.12.93.26,1.26.05l.06-.04c.31-.27.31-.9.31-1.35-.03-3.98-.09-7.62.04-11.27.08-3.85-.59-7.79.65-11.54.19-.82-.3-1.4-1.03-1.71-3.46-1.56-7.08-2.63-10.82-3.63-1.18-.36-1.68.19-1.62,1.39,0,7.86-.02,15.41.01,22.86Z"/>
        <path class="cls-2" d="M706.43,535.4c.15,1.18,1.55,3.06,2.62,2.84l.06-.03c1.8-29.35-.85-59.11,1.52-88.8.03-2.87-4.3.41-4.23,1.77-.19.72-.22,1.56-.23,2.36.34,27.3-.28,54.59.26,81.85Z"/>
        <path class="cls-2" d="M791.66,798.22c5.43,1.51,8.3,1.76,12.34.46-4.06-.17-7.98-1.92-12.59-1.19-.22.04-.71.11-.72.29v.04c.13.17.69.32.98.41Z"/>
        <path class="cls-2" d="M880.82,568.1c1.08,3.01.69,6.21.82,9.43.47,6.25-.61,12.44-.99,18.66-.17,5.28-.65,10.55-1.04,15.82-.35,7.86,1.05,15.67,1.39,23.53.1,4.87,1.58,9.58,1.72,14.46.26,6.96.99,13.88,3.87,20.35.67,1.48,1.99,2,3.85,2.27.7.11,1.7.33,2.27-.09l.06-.05c.28-.3.32-.83.34-1.27.08-3.5.32-7.03.16-10.51-.1-2.63-.66-5.29-.82-7.97-.34-12.48-.25-25-.28-37.52-.32-8.09.47-16.13,1.06-24.19.05-9.37-.04-18.76-.07-28.11-.09-4.19.26-8.41-.31-12.58-.12-.87-.28-1.94-.65-2.18-.49-.34-.88.57-.96,1.4-.06.88.2,1.84.37,2.74,1.02,4.6-.31,8.98-3.85,12.25-1.67,2.19-7.56.15-6.94,3.57Z"/>
        <path class="cls-2" d="M737.78,488.38h.02c1.11-5.27,2.7-10.51,4.34-15.78.3-.84.02-1.45-.91-1.48-1.61.03-5.65-.78-4.72,2.01,1.45,5.02-.14,10.38,1.27,15.24Z"/>
        <path class="cls-2" d="M897.16,672.4c-.06,1.27.53,2.24,1.71,2.66,3.43,1.39,6.86,2.56,10.51,3.45,1.14.29,1.98.07,1.94-1.41-.4-43.41.8-86.86-.42-129.58-1.17-1.8-11.71-2.57-13.29-1.4l-.06.06c-1.13,42.13-.01,84.42-.39,126.23Z"/>
        <path class="cls-2" d="M856.45,511.2c1.43,6.39,2.59,13,4.36,19.24.07,0,.1-.37.12-.92.41-24.7-.1-49.46,1.68-74.56.02-.89-.47-1.4-1.26-1.49-1.91-.24-3.47.33-3.33,2.44.18,5.39-1.53,10.78-1.27,16.34.38,4.13-.72,5.43-5,5.14-.47,0-.99.04-1.31.36l-.05.06c-.3.36-.21,1.06-.11,1.57,1.95,10.68,3.95,21.24,6.15,31.83Z"/>
        <path class="cls-2" d="M850.64,788.86c-.06,2.46,1.49,3.46,3.74,3.78,3.05.57,6.01,1.31,9.06,2.04,1.21.34,1.75-.09,1.69-1.35,0-4.9,0-9.71,0-14.71,0-.51-.02-1.1-.29-1.49l-.05-.08c-.26-.35-.72-.55-1.15-.69-3.78-1.2-7.62-2.71-11.83-2.79-.97.02-1.23.89-1.2,1.75.02,4.73-.03,9.07.01,13.55Z"/>
        <path class="cls-2" d="M922,688.12l-.02.06c-.32,6.41,0,12.84-.13,18.99.01,1.29-.05,2.84.91,3.82.71.73,1.86,1.09,2.83,1.4,10.79,3.42,21.55,6.9,32.45,10.41,1.82.72,2.16-.42,2.15-2-.04-6.43.2-13.01-.08-19.41-.08-.34-.24-.53-.45-.66-5.21-2.42-31.16-11.42-37.02-12.82-.25-.06-.51-.08-.62.21Z"/>
        <path class="cls-2" d="M964.43,814.52c.31.32,1.14.17,1.64.08,14.38-2.52,28.01-6.37,40.84-12.75.89-.49.81-.99-.05-1.53-12.45-7.38-26.16-11.25-39.7-16.42-.78-.33-1.8-.56-1.94.48-.18,1.89-.03,3.88-.08,5.57-.04.87.31,1.62,1.34,1.5,8.03-1.01,18.82,1.31,23.95,5.93.54.74-.04,1.1-.85,1.02-7.52-1.71-14.97-4.16-22.94-3.43-1.08.08-1.68.86-1.67,1.9-.21,5.1.38,10.56-.65,16.14-.08.47-.2,1.14.06,1.46l.05.05Z"/>
        <path class="cls-2" d="M935.07,656.64c-.55-.51-1.47.14-2.35.03-1.26-.07-3.34-1.25-4.3-.26l-.05.07c-.21.33-.16.85-.1,1.26.49,3.13-.04,6.17-.53,9.21-.06.4-.07.84.08,1.19.16.39.52.65.91.84,2.03.89,4.23,1.53,6.51,2.18,1.06.32,1.41-.26,1.35-1.27-.17-4.52.81-9.33-1.53-13.26Z"/>
        <path class="cls-2" d="M916.87,677.67c-.17,3.17.89,4.38,3.92,5.19,4.65,1.44,9.24,3.05,13.9,4.63.44.15,1.09.33,1.43.11.37-.21.44-.82.45-1.28,0-3.23.01-6.35,0-9.39-.02-.51-.13-1.04-.42-1.45-.3-.45-.84-.77-1.35-1.01-4.6-2.12-9.78-2.71-14.07-5.29-.39-.24-.81-.58-.85-1.03-.04-.83,1.02-1.33,1.84-1.32,1.35.05,3.09,1.16,3.44-.66.33-3.32.07-6.59.14-10.07.18-2.65-2.46-2.18-4.2-3.33-.91-.57-1.96-1.41-.97-1.95,1.74-.69,3.54-.55,7.61.88,1.88.66,3.71,1.38,5.45,2.09.6.2,1.54.78,2.09.48l.06-.04c.33-.25.35-1.01.34-1.49,0-4.54-.02-8.81.01-13.1.1-2.13-.26-4.21-2.62-4.83-4.63-1.58-9.33-3.01-14.26-4.57-1.07-.38-1.96-.28-1.94,1.09-.03,15.82,0,30.7,0,46.32Z"/>
        <path class="cls-2" d="M865.14,531.47c.01.6.12,1.16.42,1.6.3.46.84.81,1.35,1.06,5.27,2.63,11.13,3.44,15.97,6.58.52.34,1.32.75,1.58,0,.38-1.31.31-2.76.36-4.1.01-4.82-.89-9.49-1.07-14.19-.15-20.18,0-40.36-.05-60.51-.13-3.58.78-8.65-4.07-9.08-4.16-.62-8.05-.37-12.33-.35-.59,0-1.32,0-1.73.38l-.06.06c-1.06,26.4-.02,52.83-.37,78.56Z"/>
        <path class="cls-2" d="M703.27,614.91c-.22,5.35-.01,10.91-.08,16.28.34,3.41-.78,7.15.62,10.16,9.54,4.18,20.48,5.77,30.33,9.62,1.81.69,4.54,1.15,5.22,3.22.48.73,1.32,14.04-1.46,11.49-2.38-3.6,1.51-9.84-3.3-11.32-9.07-2.79-18.16-5.58-27.24-8.39-1.18-.34-2.37-.82-3.58-.71-.92.09-1.79.91-2.41.67-1.39-1.18-2.26-3.4-4.32-3.54-1.18-.36-2.05.67-1.88,1.86,0,5.39,0,10.83,0,16.28-.05,1.26.5,2.33,1.77,2.69,3.31,2.2,48.48,11.32,41.87,14.81-1.4.89-4.85-1.48-4.98.89,1.06,1.63,3.37,1.9,5.14,2.32,6.49,2.49,2.3-8.8,4.1-12.04.8-2.15,2.58-.38,2.48,1.3.85,3.96-2.41,13.12,3.54,13.49,3.75.58,7.17,2.37,10.8,3.24,3.05.76,6.38,1.22,8.93,3.22,2.59,2.97-2.84,2.55-4.38,1.52-7.54-2.97-15.57-4.12-23.17-6.9-2.25-.31-7.31-3.37-7.89-.19-.06,6.56,0,12.97-.02,19.48-.11,1.53.73,2.61,2.27,2.85,13.73,3.69,27.5,7.01,40.99,11.1,3.01,2.1,7.64-13.58,18.51-18.42,2.98-1.4-6.33-2.48-7.33-3.18-4.84-1.44-13.32-4.18-10.58-6.08,5.76,1.27,11.84,2.59,17.49,4.59,6.63,2.81,13.87.12,20.72,1.59,19.27,2.84,32.88,18.62,34.38,37.84,0,1.16.71,2.1,1.93,2.08,3.92.41,9.27.43,12.02,3.73-3.21,2.86-9.14-2.1-12.55-.03-1.35,8.41-.06,17.47-.51,25.91-.02,1.7.2,3.65,2.01,4.34,36.37,7.39,24.2,12.39,27.81-14.67,1.97-4.6-15.69-3.32-16.06-8.45.37-2.28,11.52,2.45,13.98,2.3,4.57,1.04.94-11.9,3.57-14.83,2.57-2.11.69,14.74,2.36,15.97,16.44,5.54,34.06,8.58,50.62,13.9l.07.06c1.85,2.14-.86,5.74.55,8.04.42.62,1.27.96,2.02,1.14,7.31,1.56,14.57,4.31,21.95,5.22.51-.25.6-1.12.58-1.74,0-8.69-.02-17.29.01-25.96.68-5.47-4.91-4.69-8.49-6.04-1.21-.29-1.94-1.64-.98-2.52,2.33-1.3,6.62,1.58,8.87.25,1.06-4.73.1-9.99.41-14.73.09-1.34-.7-2.36-2.02-2.61-2.53-.03-17.4-7.86-16.35-2.88-.48,6.78.63,13.33-.14,19.73-4.77,4.35-2.71-15.07-2.96-17.24,1.61-11.05-14.63-6.93-18.9-13.97-2.97-7.4-1.8-15.45-1.36-23.37.06-.71,0-1.53-.48-2.04-12.36-5.01-25.74-8.65-38.9-13.34-1.42-.64-2.5-.17-2.42,1.46-.34,6.34.55,12.61-1.36,18.87-.31.83-.36,1.83.65,1.98,2.13-.13,5.07,2.49,6.7.64.62-1.9-.07-5.61,1.69-6.84,3.12.41.67,8.34,1.96,10.69.72,3.25,4.63,3.79,7.35,4.73,5.7,1.42,11.61,4.01,17.62,4.81.86-.55.49-1.95.55-2.85-.13-3.29.25-6.58-.02-9.78,1.75-16.11,8.68,12.29-.41,14.9-7.33,1.22-14.49-3.46-21.61-4.76-1.75-.43-2.99.82-2.87,2.54,0,4.22.14,8.18-.54,11.94.62,2.68,10.29,1.41,14.13,5.11,6.01,6.66-15.98-3.23-17.77-3.08-8.88-1.38-17.86-3.77-26.34-6.76-3.49-1.04-5.83-4.06-5.53-7.77-.09-5.66.48-11.22,1.23-16.83.05-1.79,1.62-2.83,3.3-2.53,25.7,6.53,13.92,6.82,18.26-15.6.3-2.63-2.54-3.71-4.65-4.3-8.97-2.79-17.9-6-27.1-8.99-2.91-.31.01,4.15-.2,5.64.33,2.2-.93,3.9-1.82,5.92-1.21,2.93-1.34,6.08-1.78,9.2-.38,3.47,5.34,3.04,7.22,5.22,2.57,4.33-7.46-.27-8.88-.66-13.69-4.5-27.68-9.71-41.73-12.36-2,.02-1.73,4.11-3.88,2.91-1.48-1.58-.04-4.66-2.75-5.23-11.89-3.96-24.04-6.89-35.83-11.08-1.28-.48-2.66-1.06-3.35-2.26-.46-.91.5-.98,1.2-.84,8.39,1.19,16.54,5.22,24.86,6.27.49-.26.5-1.12.51-1.69-.41-7.57.83-15.49-.49-22.92-22.75-8.96-46.65-16.04-69.8-24.36-.87-.26-1.49-.23-1.67.62ZM938.12,762.85c-.1,1.05-.98,1.25-1.93,1.49-.23.05-.52.25-.74.14l-.03-.03c-.1-.14-.05-.62-.06-.88.09-3.85-.11-7.74.15-11.55.09-1.19,1.84-3,2.37-1.12,1.13,3.95.59,7.99.25,11.95ZM906.23,719.34c.86-1.12,1.48.65,1.78,1.67.3,1.13.34,2.31.32,3.46.08,1.85-.62,4.39,1.17,5.53,4.21,2.33,9.51,1.87,13.63,4.42,2.63,1.68,1.27,4.71,2.37,6.93.87,1.4,2.82,1.66,4.32,2.04,4.69,1.08,9.31,2.56,14,3.94.57.17,1.13.48,1.2,1.1-.16,2.31-2.84,1.83-4.44,1.34-7.45-1.91-14.9-3.95-22.31-6-.71-.21-1.81-.64-1.77-1.44v-.09c.18-.94,1.34-1.37,2.2-1.39.85-.09,2.08.61,2.82.08.45-.37.47-1.02.5-1.57.07-1.05-.02-2.25-1.06-2.75-3.68-1.53-7.7-1.75-11.45-2.88-3.23-.89-4.42-2.05-4.06-5.52.1-2.8-.63-6.01.78-8.86Z"/>
        <path class="cls-2" d="M714.47,607.89c.12,2.61-.62,5.75,2.96,6.25.94.25,2.37.49,2.36-.9.07-16.38.04-32.8-.02-49.2-.09-2.97.55-5.84,2.75-7.91,5.12-9.06,11.35-17.95,10.61-28.8-.58-26.38,1.94-53.64-2.02-79.64-.81-2.08-16.9-1.61-17.24.53l-.06.09c.26,53.08,1.2,106.4.66,159.58Z"/>
        <path class="cls-2" d="M882.06,700.73l-.06-.08c-.27-.36-.72-.57-1.17-.71-3.29-1.01-6.6-2.02-9.88-3.02-4.86-1.48-9.72-2.97-14.62-4.47-1.26-.43-1.72.14-1.67,1.41,0,5.83,0,11.39,0,17.22-.09,1.24.67,2.13,1.87,2.36,8.07,2.42,16.2,4.88,24.4,7.32.38.09.7.11.93.01.43-.17.51-.83.51-1.3,0-5.6,0-11.15,0-17.08,0-.56-.03-1.22-.32-1.65Z"/>
        <path class="cls-2" d="M738.68,545.06c2.95-.71,5.73-2.71,8.32-4.3,6.4-4.73,14.82-3.25,21.82-1.61,3.96,4.33,1.66,16.03,4.17,22.51,5.68,17.7,1.81,21.66.59,38-.32,8.06,5.1,15.73,3.71,23.8-.45,2.48-.68,4.95-.74,7.49-.14,1.89-.24,3.7,1.82,4.19,33.84,11.3,67.57,22.57,101.88,34.02,1.56.54,1.57-.36,1.06-1.55-2.83-6.92-2.46-13.55-2.8-20.53-2.9-13.14-3.13-26.56-2.74-39.94.55-21.65,9.61-44.12-15.5-55.71-3.34-1.48-7.08-1.27-10.64-1.49-9.41-.5-18.82-1.54-28.27-1.37-2.24.36-6.76-.8-7.14,2.37.02,1.01.99,1.94.87,3-.4,2.42-2.52.56-3.5-.62-2.76-2.71-5.48-5.61-8.93-7.44-6.41-3.5-14.53-2.25-20.35-7.09-4.2-3.32-20.57-14.95-20.71-19.42.36-.89,1.55-.72,2.22-.12,3.09,2.99,9.51,10.23,5.59.41-1.91-5.33-3.03-10.75-3.38-16.35-.47-4.2-1.18-8.33-2.1-12.44-.25-1.45-1.01-3.12-.29-4.45,2.38-2.58,3.24,3.75,3.93,5.17,1.99,9.86,2.71,19.97,6.07,29.55.87,1.85.29,4.28.87,6.03,3.63,4.3,8.11,8.72,13.43,10.73,8.66,1.07,16.67,2.42,22.7,9.49,2.08,2.18,2.94-2.4,6.92-1.59,2.77.4,5.34-.82,8.14-.88,1.14-.34,5.93.88,4.79-1.31-2.9-4.08-4.73-8.26-4.35-13.17-.67-14.8,2.77-29.35,2.1-44.16-.1-1.35.02-3.67,1.64-3.78,4.12,15.07-1.33,32.08-.48,47.69-.03,1.36.49,1.14.97.17,2.33-4.11,5.03-7.97,8.77-11.44,2.08-1.74,1.35,2.01.68,2.92-3.11,6.19-11.32,11.11-8.28,18.88.92,1.31.8,3.48,1.45,4.6.52.51,1.17.51,1.88.55,4.58.08,9.54-.05,14.27,0,7.13.67,15.42.6,20.31,6.74,4.36,3.92,9.37,11.49,16.01,9.42,4.55-4.54,2.42-12.23-2.02-16.14-3.11-2.97-7.15-4.41-11.27-5.49-4.15-.91-7.58-3.42-11.4-5.09-2.11-1-6.58-1.2-6.17-4.41.41-1.42,1.41-2.44,1.08-4.04-1.41-7.02-3.15-14.01-4.69-21.02-2.23-9.36-2.48-19.16-5.61-28.28-2.1-7.18-6.13-13.97-13.14-17.17-24.58-17.15-22.57-4.68-16.15-33.78,3.11-18.85-1.31-43.33-26.06-34.82-7.41,3.22-13.29,9.66-14.4,17.46-.57,8.72-.76,17.66,2.48,25.89,3.41,6.7,7.19,12.33-2.64,15.13-22.89,9.78-30.27,16.22-33.99,41.56-2.81,12.8-5.19,25.78-4.09,39.01-.46,4.63-2.67,10.49,1.2,14.23l.08.02Z"/>
        <path class="cls-2" d="M857.93,820.25c2.74.19,5.5.89,8.03.72,2.51-.23,5.05-.77,7.59-1.13,11.31-1.86,22.73-3.04,34.24-2.65,7.44.12,14.86.5,22.27,1.73,3.15.55,6.33.88,9.55.7,6.15-.46,11.91-2.45,18.05-3.43.75-.14,1.59-.32,2-.96.89-9.88.04-20.03.32-30.11.07-1.27-.47-2.34-1.78-2.64-15.73-4.77-32.28-7.32-47.45-13.74-.17-.34.8-.34,1.12-.38,6.32-.33,12.19,2.52,18.37,3.4.53.07,1.18.08,1.55-.26.63-.51.59-1.91.55-2.97-.05-.94-.53-1.72-1.46-2.06-15.08-4.03-30.15-7.76-44.82-11.55-.65-.11-1.24-.13-1.76.31-.5.54-.52,1.3-.57,2.02-.21,5.44.58,11.04-.72,16.45-.25,1.15-.66,2.5.23,3.46.54.6,1.32.99,1.89,1.56,1.62,1.92,1.68,4.95,4.69,5.78,12.92,3.12,26.29,4.71,39.18,8.15,1.93.61,4.47,1.08,6.01,2.41,2.13,2.4.99,8.95,1.27,12.15-.23,1.94,1.4,3.13,3.09,3.6,1.66.56,3.45,1.09,5.25,1.23.7.08,1.47.17,2.01.63,1.06.83.58,2.66-.87,2.63-4.3-.61-11.94-1.39-12.41-6.87-.15-3.27-1.08-6.36-1.11-9.73.09-1.16-.28-2.3-1.58-2.5-8.04-1.68-15.94-3.29-23.95-4.94-.46-.09-1.18-.25-1.49.02-.18.06-.29.71-.25.87.22,1.85.75,3.99-.42,5.53-1.14,1.77-2.72,2.47-3.07-.23-.44-2.03.58-4.83-.61-6.55-.37-.45-.95-.7-1.52-.87-3.37-.96-6.76-1.93-10.21-2.65-7.8-1.74-1.55-7-12.75-8.07-12.21-4.28-5.73,1.05-7.19,9.16-1.15,5.72-2,7.33,4.51,8.48,8.26,1.69,16.35,4.05,24.66,5.66,4.21.62,7.47,2.41,5.27,7.37-.23.46-.37,1.12-.86,1.29h-.05c-.42-.25-.45-.84-.64-1.28-1.81-6.09-8.71-4.25-13.39-5.98-11.83-3.25-23.98-5.48-35.85-8.92-.84-.28-1.8-.27-1.86.86-.08,4.48-.05,8.91-.01,13.38,0,1.87,2.15,1.37,3.35,1.96,4.1,1.45-.78,8.73,3.58,8.96Z"/>
        <path class="cls-2" d="M837.35,659.54l-.06-.08c-18.55-7.35-38-12.95-56.85-19.68-1.27-.44-1.58.44-1.53,1.53,0,7.44,0,14.67,0,21.81-.07,1.18.44,2.16,1.65,2.47,18.12,5.3,36.11,11.47,54.66,16.41.49-.18.45-.96.41-1.47-.6-6.58,1.91-12.58,2.05-19.24.02-.59-.02-1.29-.34-1.75Z"/>
        <path class="cls-2" d="M724.61,559.73c-.63,1.41-.69,3.19-.68,4.76.33,17.16-.62,34.67.35,51.97l.06.08c.32.44.95.69,1.5.88,7.76,2.65,15.28,5.23,22.91,7.84.47.17,1.2.36,1.53.03.7-27.22.52-54.7.06-81.97-.31-.34-1.08.06-1.51.31-6.86,3.97-13.36,7.73-19.72,11.71-1.76,1.08-3.71,2.43-4.5,4.38Z"/>
        <path class="cls-2" d="M755.24,626.87l.06.08c.3.41.84.66,1.34.84,4.61,1.64,9.14,3.3,14.08,4.66,1.39.41,1.89-.14,1.82-1.56.09-8.21,1.14-15.74-1.89-23.05-2.03-6.44-.97-13.16.02-19.67.75-4.86,1.09-9.81.53-14.72-1.01-8.38-4.46-16.35-3.92-24.93.26-2.41-.32-6.23-3.34-6.17-2.37-.16-4.75-1.43-7.27-1-1.13.17-1.79,1.02-1.76,2.2.31,27.62-.62,55.49.33,83.33Z"/>
        <path class="cls-2" d="M669.57,691.56c-.31-.46-.93-.71-1.48-.89-8.14-2.69-16.31-5.39-24.69-8.17-.43-.15-1.1-.35-1.41-.12l-.06.04c-.31.23-.33.94-.32,1.4,0,10.71-.02,21.16.01,31.62-.01,1.11.74,1.74,1.78,1.93,8.2,1.96,16.28,3.88,24.59,5.86,1.46.43,2.03-.08,1.94-1.6,0-9.74,0-18.98,0-28.36,0-.58-.04-1.27-.37-1.71Z"/>
        <path class="cls-2" d="M460.37,992.88l.08.09c3.98,3.4,9.41.63,12.85-2.19,6.87-5.86,3.89-13.58,2.18-21.08-.97-3.74-1.96-7.5-3.34-11.13-2.58-7-10.18-8.68-16.79-9.48-2.18-.3-4.44-.59-6.8-1.06-.35-.07-.77-.12-1.07-.05-.63.12-.39,1.07-.21,1.61,4.64,14.8,8.19,29.37,13.1,43.29Z"/>
        <path class="cls-2" d="M380.02,980.35c2.68-1.16,4.51-3.5,5.01-7.31.21-1.37.28-2.13.24-3.28-.51-4.7-3.76-17.42-8.82-19.61-4.1-1.9-6.99,2.12-10.03,4.21-.6.43-1.34.88-1.8.87.34,4.04,1.36,7.89,2.79,11.01,2.36,5.3,4.73,9.97,7.43,14.61.31.55.67,1.14,1.04,1.76.26-.3,1.07-.5,1.77-.87.82-.4,1.58-.95,2.35-1.39Z"/>
        <path class="cls-2" d="M401.66,985.13c-4.19-12.5-7.45-25.31-11.87-37.73-1.24-4.55-6.7-5.28-10.56-6.39-.41-.13-.77-.36-1.04-.65h0c-6.45-2.79-11.71-1.27-13.19,6.26-.43,2.35-.56,4.76-.46,7.13.26-.37.6-.71.86-.93,4.86-3.65,11.42-6.73,14.36-2.88l.07.09c6.26,8.77,9.75,18.19,4.39,28.59-1.1,2.42-4.41,7.64-7.01,6.12.71,1.14,1.43,2.28,2.07,3.32.88.53,1.37,1.93,1.96,2.7,3.92,6.39,8.43,12.39,12.79,18.48,4.17,5.86,8.31,11.89,13.92,16.47,4.33,3.55,8.72,7.06,12.89,10.81,2.05,1.49,1.53-.33,1.02-1.5-7.24-16.4-14.52-32.82-20.2-49.87Z"/>
        <path class="cls-2" d="M852.75,818.63l.06-.06c.52-.65.6-2.3,0-2.98-.36-.43-1.03-.61-1.6-.71-8.17-1.22-16.54-3.65-25.22-4.21,5.8,4.92,18.32,8.18,25.92,8.28.34-.02.63-.11.83-.32Z"/>
        <path class="cls-2" d="M400.04,966.48c.41,1.76,1.29,3.78,2.7,4.86,2.82,2.13,7.09,3.16,10.31,1.68,3.8-1.99,5.56-6.76,6-10.78.68-7.54-2.49-14.94-6.17-21.39-1.36-2.47-2.69-4.89-3.93-7.43-.42-.82-.97-1.66-1.7-2.18-1.07-.82-2.36-.8-3.63-.75-4.63.21-9.18-1.23-14.29-1.15-.42,0-1.07.06-1.26.36l-.04.06c-.15.32-.03.71.06,1.06.42,1.55.41,3.12,1.1,4.59,4.25,10.14,8.09,20.42,10.84,31.09Z"/>
        <path class="cls-2" d="M593.09,1031.76l.09-.05c.5-.26.93-.97,1.22-1.54,4.86-8.68-.02-13.56-7.19-17.71-7.03-4.21-14.72-6.72-21.92-9.27-.52-.19-1.11-.32-1.64-.19-.51.12-.99.48-1.39.85-2.34,2.19-4.5,4.22-6.71,6.3-.26.24-.53.53-.66.83-.3.59.35,1.19.88,1.54,11.41,7.93,23.56,14,36.06,19.21.45.16.87.21,1.25.04Z"/>
        <path class="cls-2" d="M848.56,1145.73c-8.84-5.99-19.44-8.87-29.09-12.67-9-3.35-18.31-5.05-28.02-4.77-25.93,1.54-53.1-1.61-75.46-15.97-29.44-19.76-59.03-39.34-88.21-59.45-7.64-7.1-18.33-8.33-27.37-12.96-6.9-2.77-13.2-6.92-20.23-9.26-7.3-.8-14.73-.33-21.94-2.03-1.43-.37-4.6-1.01-4.08,1.32,3.18,4.01,7.06,7.56,9.14,12.55.66,1.93,2.39,2.45,4.14,3.04,13.96,6.03,28.71,11.24,41.77,19.01,8.57,9.87,16.93,21.75,15.67,35.66-.33,4.03.11,8.22-.8,12.15-.4,1.69-2.43,2.41-3.03.48-.51-5.2.08-10.55-.22-15.81-.17-12.38-6.67-23.21-16.6-30.11-10.86-7.19-23.39-10.99-35.14-16.4-4.7-1.37,1.01,7.89-.63,10.05-.29,1.27-1.44,1.22-2.03.03-.96-1.52-1.3-3.2-1.69-4.92-1.49-6.54-4.76-12.36-8.8-17.66-6.15-8.08-13.87-14.74-21.07-21.94-.41-.36-.84-.76-1.36-.51-.56.3-.75,1.86-1.46,2.33-1.46.88-2.01-1.47-2.1-2.52-3.34-15.87-9.56-31.09-15.39-46.2-6.89-19.59-21.13-37.33-42.67-41.06-10.21-1.09-24,4.41-24.58,15.93.23.48,1.1.61,1.74.61,5.46.07,11.37.48,16.58,2.69,5.43,2.02,9.59,6.83,11.12,13.1,1.62,5.71,3.49,11.35,4.55,17.2,1.13,9.34-5.98,19.73-15.61,19.44-.84.05-1.76.05-2.55.22-1.95.41-1.42,2.6-.99,4.02,1.39,4.79,2.59,9.66,4.41,14.31,3.61,8.45,8.67,16.22,12.9,24.37,8.97,17.38,18.09,34.75,32.39,48.4,19.99,19.66,39.53,35.38,67.23,42.56,16.4,5.52,33.03,10.22,49.82,14.46,23.33,6.09,46.19,14.54,70.13,17.85,16.57.88,33.3,3.11,49.8-.1,8.99-1.63,17.93-3.66,27.01-4.77,4.52-.33,8.72-1.94,13.33-.4,5.92,2.87-11.46,3.83-12.71,3.97-4.83.64-9.56,1.79-14.32,2.8-16.11,4.13-32.67,4.24-49.2,3.94-.98.01-1.42.12-.88.71,1.71,1.66,3.25,3.48,5.35,4.64,15.97,10.52,32.92,19.79,47.58,32.16,25,22.14,51.81,42,77.63,63.13.8.61,1.61.91,2.03.03,1.15-14.63-.76-29.41,1.04-44.09,1.05-7.51-.06-15.05,1.05-22.62.83-5.02.91-10.12.91-15.2-.42-13.72,2.65-27.95.97-41.66l-.06-.09Z"/>
        <path class="cls-2" d="M543.67,1120.04c-9.05-6.36-17.17-12.94-24.7-20.16-5.63-5.45-11.45-10.74-16.78-16.49-11.19-11.99-18.86-26.74-25.98-41.41-5.63-10.69-12.55-20.75-15.94-32.46-4.98-18.79-10.33-37.46-16.34-55.95-.57-1.75-1.11-3.6-1.31-5.41-.31-2.61-.07-5.18.94-7.66.77-1.92,2.26-3.75,1.32-5.66-10.58-16.4-25.56-28.84-46.25-23.95-6.32,1.46-11.08,6.77-10.91,13.41,0,.97.34,1.89,1.4,2.02,6.02.33,12.35-.65,18.25.91,1.94.61,3.4,2.09,4.42,3.82,4.97,7.96,9.62,16.02,10.62,25.45.27,2.76.33,5.7-.27,8.44-1,4.53-3.82,8.19-7.62,10.64-3,1.9-6.37,1.63-9.75.04-4.36-2.16.89,7.25,1.1,8.54,7.5,22.24,16.55,44.06,28.28,64.45,9.66,15.13,23.7,26.66,37.52,37.85,18.99,16.51,32.16,25.93,56.93,32.32,4.73,1.29,9.44,2.9,14.46,2.53.69-.05,1.23-.16,1.31-.39v-.04c.06-.21-.24-.5-.69-.83Z"/>
        <path class="cls-2" d="M608.81,989.97c4.27,2.45,8.64,4.74,13.15,6.77.49.22,1.02.4,1.54.34h.11c4.22-1.72,6.4-7.41,7.33-11.49,1.43-5.14.42-10.66-4.16-13.99-5.81-4.34-12.75-6.82-19.95-7.34-2.99-.61-4.97-2.23-7.73.15-3.93,3.04-8.4,5.49-11.03,10.17-.67,1.04-.53,2.13.58,2.75,6.64,4.36,13.28,8.7,20.16,12.64Z"/>
        <path class="cls-2" d="M829.94,818.69c-5.73-4.37-11.21-8.64-17.36-11.97-2.81-1.55-5.9-2.65-9.11-2.97-4.15-.21-8.61-.04-12.68-1.38-2.78-.79-5.44-1.97-7.99-3.33-5.92-3.23-12.38-4.71-18.7-6.74-9.45-3.18-19.31-4.78-28.91-7.39-5.09-1.43-10.24-2.83-15.47-3.61-11.66-1.67-23.46-1.47-35.24-1.67-2.6-.2-5.07-.9-7.5-1.81-7.59-2.74-15.55-2.28-24.06-2.1-.8.04-1.07.22-.61.55,11.94,6.35,25.37,7.49,36.86,13.13.5.23,1.19.64,1.25,1.12v.07c.06.61-.87,1.27-1.75,1.33-.9.06-1.75-.28-2.58-.59-2.75-1.09-5.55-2.06-8.37-2.92-8-2.45-16.35-3.88-23.88-7.7-15.68-7.78-32.1-15.31-49.94-15.43-3.23,0-6.44.1-9.66.13-9.54,0-19.06-.56-28.47-2.18-1.53-.04-5.41-.29-3.22.98,9.46,5.62,19.5,10.17,29.48,14.7,11.98,5.62,24.57,9.79,36.75,14.9,2.28,1.19,5.14,1.99,6.84,4.06.77,1.18.34,2.79-1.2,2.1-4.84-2.4-9.63-4.51-14.71-6.22-19.26-6.51-37.26-15.74-55.71-24.08-2.11-1.05-4.09-2.41-5.49-4.33-1.22-1.7-1.74-3.96-3.94-4.47-5.63-1.91-10.75-5.18-16.88-6-3.06-.36-6.11-.4-9.09-1.31-1.24-.35-2.45-.86-3.61-1.43-6.07-3.1-12.48-5.57-18.25-9.1-3.94-2.74-8.7-4.13-13.43-3.43-3.44.39-6.78,1.24-10.52,2.07-.41.08-1.05.25-1.22.5-.11.42.78.79,1.21,1.03,8.29,4.27,10.64,13.12,17.12,19,1.57,1.56,3.5,3.07,5.29,4.3.82.6,1.63,1.2,2.08,2.11.43.79.43,2.1-.1,2.47-.49.36-1.16-.06-1.64-.42-5.66-4.26-10.79-8.84-14.75-14.51-1.18-1.64-2.13-3.45-3.29-5.12-4.21-5.99-11.15-8.11-17.82-5.42-6.04,2.65-11.46,6.19-17.8,8.18-.34.11-.77.27-1.01.46-.19.15-.25.32-.17.52.14.32.65.67,1.01.9,4.28,2.79,8.66,5.23,13.15,7.37,6.02,2.91,12.33,5.06,18.69,7.12,6.94,2.33,13.81,4.86,20.58,7.65,14.09,5.58,26.93,13.82,41.73,17.68,8.77,2.21,17.37,5.54,23.64,12.39,4.7,4.62,10.99,6.76,17.38,7.71,4.43.73,8.9,1.14,13.36,1.64,19.12,1.65,36.88,9.08,51.99,20.86,8.82,5.79,13.75-.15,22.72-1.43,3.04-.58,6.11-.83,9.19-.86,8.9-.11,17.72-1.78,26.62-1.22,1.23.07,2.43-.1,3.62-.39,5.74-1.4,11.76-.73,17.53-1.71,2.39-.37,4.76-.87,7.17-1.06,2.03-.21,4.93.37,6.13-1.36.13-.34-.15-.68-.66-.99-1.35-.74-2.56-1.36-3.86-2.18-11.21-7.03-23.55-11.85-36.26-15.56-9.16-2.93-18.29-6.05-27.43-9-1.07-.37-2.23-.69-3.08-1.45-.64-.58-.59-1.37.12-1.74.72-.39,1.75-.31,2.73-.11,5.65,1.29,10.97,3.19,16.42,5.07,12.51,4.63,25.82,7.28,37.62,13.71,2.77,1.46,5.48,3.01,8.2,4.56,2.68,1.53,5.37,3.05,8.09,4.51,1.73.9,3.52,2.07,5.4,2.38,2.1.3,4.11-.6,6.18-.92,3.94-.79,7.92-1.35,11.79-2.43,6.08-1.85,12.47-2.35,18.62-1.35,3.49.63,7.11.75,10.45-.55,7.85-3.91,16.1-6.5,24.96-4.26,1.7.41,3.39.53,5.14.41.78-.04,1.33-.15,1.28-.45-.03-.29-.64-.77-.97-1.02ZM579.09,802.66l-.05.03c-.33.17-.99-.27-1.37-.49-6.85-4.17-12.92-8.78-19.22-13.03-2.38-1.62-5.06-2.89-7.84-3.66-8.54-1.58-14.8-5.64-17.74-13.86-1.27-3.31-2.62-6.45-4.05-9.65-.25-.56-.51-1.19-.57-1.78-.1-.83.21-1.66.97-1.77,1.24-.15,2.4,1.64,2.89,2.77.91,2.86,2.02,5.57,3.39,8.26,3.86,8.1,5.09,9.3,13.55,12.16,2.19.74,4.38,1.4,6.45,2.37,6.4,2.83,11.44,7.83,17.33,11.51,1.77,1.24,3.94,2.26,5.53,3.69.62.59.88,1.72.93,2.71.02.27-.03.58-.21.74ZM683.82,819.78c1.4.67.26,2.05-.87,2.19-.71.11-1.43-.08-2.12-.27-2.54-.81-5.08-1.44-7.67-1.99-7.86-1.46-15.61-4.02-23.66-3.91-1.78.04-4.68.33-5-1.99v-.11c.09-1.43,1.76-1.95,3.01-1.77,12.31,1.32,24.55,3.29,36.31,7.85ZM782.26,815.02c-.8,1.51-2.66.12-3.69-.47-5.89-3.5-12.49-4.35-19.09-5.18-5.95-.78-11.86-1.51-17.67-3.22-.47-.13-1.15-.38-1.23-.82v-.08c-.1-.6.87-1.43,1.65-1.68,1.43-.5,2.87.11,4.28.37,2.75.51,5.5.27,8.21.89,8.36,1.39,17.51,1.59,24.77,6.41,1.08.88,3.22,2.16,2.76,3.76Z"/>
        <path class="cls-2" d="M877.72,855.76c-1.22-4.24-3.63-7.66-8.3-8.97-3.79-1.06-7.76-.57-11.38-1.01h-.12c-4.48-.08-9.17-.21-13.47.97-7.21,2.03-14.09,5.2-17.32,12.91-2.65,7.32-3.15,15.34-2.55,23.01.71,11.82,9.17,19.66,20.76,20.86,4.46.79,8.81,1.17,13.44.46,6.14-1.02,12.18-2.55,17.92-4.9,2.41-1.02,3.82-3.25,4.19-5.77.75-4.22,1.43-8.33,1.44-12.62.02-3.5-.6-7.06-1.18-10.51-.86-4.9-1.99-9.73-3.43-14.45ZM876.06,890.9h-.09c-.29-.06-.55-.24-.76-.49-.06-.07-.11-.14-.16-.22,0,0,0,0,0,0-.08-.12-.14-.24-.19-.38-.11-.27-.19-.56-.2-.82,0-.02,0-.04,0-.06-.04-.53.02-1.08.1-1.56.2-1.45.32-2.89.38-4.32,0-.21.01-.42.02-.63,0-.2,0-.4,0-.6.01-5.6-.8-11.15-1.71-16.68-.75-4.34-1.56-8.67-2.02-13.03,0-.01,0-.03,0-.04-.05-.25-.06-.49-.06-.7,0-.09,0-.17.02-.25,0-.01,0-.03,0-.04.04-.35.15-.61.29-.77.02-.02.03-.04.05-.06,0,0,.01,0,.02-.01.29-.26.69-.15,1.05.49.1.19.2.41.29.69,1.53,4.24,2.74,8.52,3.64,12.84,1.5,7.2,2.14,14.52,1.95,21.98.1,1.73-.65,4.54-2.6,4.67Z"/>
        <path class="cls-2" d="M1232.6,873.08c-1.09-12.55-7.05-24.68-16.73-32.72-22.68-18.79-47.49-34.91-69.18-54.91-20.4-19.16-43.52-28.96-70.49-16.94-6.1,2.27-12.09,4.89-18.05,7.56-8.21,3.62-15.17,9.27-22.93,13.62-5.51,3.15-11.21,5.99-16.61,9.32-17.98,12.21-39.13,17.8-60.42,21.22-7.04.88-13.79,4.08-20.91,4.07-11.48-1.98-23.07-3.3-34.7-3.39-9.62.27-19.22,2.2-28.79,3.37-8.37,1.14-16.72,2.23-24.98,4.08-27.96,6.43-45.81,31.11-39.58,59.63,1.41,6.8,4.11,13.85,9.02,18.95,14.63,13,35.95,14.21,54.58,15.91,25.07,1.88,50.22-3.88,74.56-9.49,23.38-6.4,46.65-15.3,71.16-15.86,11.9-.05,23.86-.29,35.58,2.17,7.53,1.47,15.28.89,22.79,2.38,4.82,3.57-12.61,2.42-14.01,2.48-20.45-2.95-41.26-5.1-61.78-.96-2.51.5-5.04,1.17-6.8,3.15-2.62,3.36-4.2,7.39-7.01,10.63-5.93,7.04-12.23,13.2-19.22,19.47-1.64,1.28-1.4,1.62.52,1.24,22.53-3.59,42.57-7.31,65.12-11.95,3.83-.45-2.07,3.56-2.91,3.45-32.49,9.51-67.47,9.74-98.5,24.2-16.68,7.44-34.78,9.65-52.86,9.78-9.6,1.68-19.42,1.42-29.04,2.93-13.47,1.62-26.71,4.49-39.93,7.59-3.76,1.14-8.18.87-11.66,2.51-.83,1.25.32,4.12-.82,5.01-.36.39-.89.29-1.21-.17-1.45-3.39-3.34-6.86-7.15-8.03-17.21-6.27-35.06-10.31-53.23-11.98-11.53-1.41-23.12-2.15-34.71-2.46-5.31-1.55-10.93-.05-16.24-1.36-.66-.13-1.75-.54-1.93.3-.05.71,1.22,2.12,1.14,2.95,0,.85-1.1.66-1.64.45-4.07-1.86-7.91-4.37-11.92-6.4-16.81-9.66-36.2-13.71-55.46-13.36-6.64.2-13.61,1.03-19.6,4.05-9.23,4.61-15.95,16.48-10.93,26.53.71,1.23,1.49.42,2.03-.43,3.02-4.42,7.16-6.75,10.68-10.19,9.34-3.65,19.57.67,27.86,4.98,12.29,5.84,11.52,21.22,3.5,30.27-1.11,1.14-3.66,2.23-1.59,3.53,11.91,7.95,26.95,13.48,40.67,18.16,32.36,10.37,62.85,25.77,96.06,33.62,23.99,6.83,49.03,3.6,73.6,3.38,18.25-1.52,36.76-.21,54.83-2.37,6.12,1,12.46,1.24,18.68,1.41,8.57,1.37,17.07,3.27,25.55,5.08,36.58,6.26,41.68,16.55,76.4-5.56,20.6-8.84,41.4-17.4,61.87-26.53,6.47-.63-1.46,3.78-3.33,4.49-21.06,9.82-42.95,17.95-63.42,29.02-11.48,6.24-23.64,13.29-37.24,10.16-12.95-3.04-25.96-5.51-38.97-8.19-9.22-1.85-18.45-4.46-27.9-4.5-19.98-.99-39.9,1.44-59.91,1.37-9.54.9-19.1,1.02-28.7.45-15.15.7-30.4.68-45.36-2.32-28.15-5.76-54.47-17.29-81.17-27.49-20.3-7.64-41.82-12.84-60.37-24.42-14.23-8.96-29.37-16.44-43.25-25.93-2.17-1.54-3.41-4.42-6.17-5.04-10.29-1.94-20.7,3.4-26.81,11.39-4.36,6.47-4.56,15.75-.51,20.95,1.82,2.26,3.62-1.25,5.02-2.36,2.62-2.68,5.66-6.38,9.8-4.78,11.72,3.75,37.51,10.76,32.04,27.84-.59,1.98-2.8,4.5-1.01,6.2,3.56,1.82,7.25,3.72,11.06,5.1,39.33,14.18,78.82,28.97,114.79,50.54,17.46,10.55,37.48,11.61,57.33,11.55,19.38.46,38.8.35,58.19-.41,22.98-.87,46.52-1.9,69.16,3.42,19.04,3.84,38.16,19.14,57.82,16.26,6.84-1.12,12.49-5.89,18.1-9.7,5.58-3.8,11.25-7.48,16.82-11.29,4.61-3.21,41.9-28.83,43.43-23.28-.1.9-1.58,1.61-2.5,2.06-22.33,10.92-41.7,26.87-62.43,40.46-9.46,7.54-22.33,7.64-33.39,3.93-7.86-2.39-15.16-6.07-22.68-9.29-29.34-11.96-61.55-9.48-92.44-7.92-3.69.11-7.45-.32-11.09-.1-4.88.5-9.82,1.58-14.7,1.43-5.36.07-10.64-1.09-16.03-1.15-7.92-.05-15.83-.1-23.68-1.4-9-.13-18.35-.08-26.98-3.39-12.5-3.94-23.43-11.33-34.85-17.61-19.29-10.39-39.49-19.35-60.15-26.52l-.1-.05c-.75-.33-1.43-.8-2.2-1.09-.85-.32-1.52-.16-1.42.28.1.34.41.63.74.86,30.15,19.57,58.5,42.23,90.57,58.66,24.49,11.17,51.81,8.52,77.96,8.85,27.04-1.58,53.57,6.09,79.38,13.24,20.87,5.03,50.8,21.9,71.01,16.66,5.78-1.53,11.52-3.3,17.22-5.02,1.04-.31,2.67-.8,3.09.54.32,1.51-1.65,2.31-2.89,2.68-7.75,2.72-15.45,6.4-23.83,6.9-11.51.85-22.46-3.29-33.14-7.03-15.7-5.17-31.22-10.99-47.29-14.94-15.12-3.77-30.25-7.23-45.7-9.13-1.14.11-5.89-.65-5.1.94,25.46,8.17,46.45,25.72,71.57,34.68,30.87,11.16,61.49,17.38,92.45,2.5,10.65-4.92,19.89-12.33,29.93-18.28,41.28-23.52,81.29-49.29,124.15-69.95,16.68-8.03,34.23-15.92,52.86-17.51,9.2-.64,18.59,1.65,27.25,4.76,2.02.34,4.24,2.88,5.67.64.99-2.68,1.35-5.59,1.59-8.35,1.12-37.03,4.8-74.01,5.96-111.05-.57-24.57,1.1-49.08-.93-73.65ZM886.73,883.3c-.24,7.25-1.84,15.77-8.71,19.66-2.07,1.26-4.37,2.13-6.69,2.85-5.73,1.71-11.7,3.17-17.77,2.91h-.12c-15.5.11-29.42-6.38-32.31-22.87-4.3-17.78,2.34-38.9,22.27-42.84,13.17-2.82,32.2-5.05,37.45,10.06.94,2.16,1.76,4.78,2.39,6.96,2.17,7.56,3.86,15.37,3.5,23.28ZM928.67,892.35c-.04,2.18-1.49,1.32-2.2-.11-.55-1.97.05-4.12-.21-6.17-.24-4.62-1.14-9.2-1.22-13.85-.1-9.85-1.11-19.68-2.72-29.42-.57-3.4-.92-6.93.54-10.19.15-.32.32-.74.63-.84h.04c3.91,19.61,6.69,39.86,5.15,60.59ZM950.74,889.88c-.06,1.25.04,2.54-.72,3.59-.49.77-1.74,1.99-2.34,1.9h-.07c-.68-19.17,2.84-38.57-4.91-56.94-.32-.67-.51-1.69.31-1.95,1.69-.54,3.07.75,3.59,2.26,5.16,13.26,5.05,27.81,5.42,41.84-.17,3.14-1.13,6.17-1.27,9.3ZM968.91,876.04c-.09.47.01,1.23-.52,1.35-.79-.25-1.52-1.11-1.67-1.89.43-12.19-1.66-24.1-4.75-35.83-.27-.79-.25-2.22.79-2.14l.07.02c7.39,11.41,7.15,24.93,6.08,38.5ZM1211.16,970.38h-.07c-1.54-.52-1.4-2.96-1.11-4.37,2.37-13.82.15-27.7-3-41.24-.39-1.03-.38-2.93.68-3.28.29-.1.56.03.77.29,5.88,8.38,9.03,38.86,2.72,48.6Z"/>
        <path class="cls-2" d="M456.45,687.77c7.87-2.78,11.15-4.01,10.88-13.86-.08-1.23.23-3-.39-3.96l-.06-.08c-.28-.31-.75-.46-1.18-.55-3.2-.62-6.22-1.21-9.25-1.79-.42-.08-.96-.1-1.2.26-.21.29-.23.83-.23,1.24,0,5.92,0,11.74,0,17.59-.02,1.2.27,1.6,1.43,1.14Z"/>
        <path class="cls-2" d="M609.85,658.63c38.78-15.31,25.98,2.36,28.08-57.3.12-1.96.22-5.44-2.68-4.32-30.89,11.43-62.31,22.85-92.36,35.81-1.14,7.54-.07,15.45-.43,23.13,0,.56.05,1.29.41,1.64l.06.06c3.21,1.46,6.93-1.87,10.15-.21,1.41.63,2.55,2.35,3.99,2.64,1.12.26,2.3-.1,3.38-.45,6.16-2.13,12.29-4.26,18.42-6.47,5.84-1.48-1.1-7.39,3.99-9.67,2.78-.23,1.56,4.08,1.97,5.56.27,1.06,1.36,1.55,2.38,1.83,9.35,2.96,17.31-2.99,25.91-5.47,2.02-.94,4.69.26,2.03,2.3-6.02,3.08-12.8,4.66-19.1,7.15-1.36.44-2.78.82-4.2.61-3.43-1.14-4.82-2.36-8.5-.47-8.23,3.01-16.4,6.38-24.84,8.64-1.44.19-2.6-.76-3.7-1.56-3.65-2.86-7.86-1.05-11.97-.89-1.43-.1-2.75-1.11-4.17-1.01-6.79,1.67-13.53,4.68-20.06,6.9-.58.21-1.2.5-1.55.98-1.28,7.93-.09,16.28-.47,24.19,0,.74.23,1.61.94,1.86,11.39-2.21,22.39-7.77,33.81-10.57,1.05-.29,2.17-.63,3.24-.55,1.44.04,2.66,1.45.99,2.39-1.96,1.09-4.3,1.18-5.95,2.14-.89.55-1.02,1.68-1.02,2.7,0,9,0,17.35,0,26.14-.12,1.28.7,2.07,1.97,1.56,8.72-2.41,16.94-4.7,25.34-7.04,1.51-.31,2.22-1.67,2.62-3.05,1.55-4.43,6.06-5.17,10.1-6.32,1.05-.4,1.27-1.46,1.24-2.49-.25-7.62.51-15.23-.29-22.67-.36-.5-1.18-.28-1.75-.11-7.68,2.39-14.91,4.9-22.35,7.29-1.98.63-3.92-1.35-1.28-2.22,8.35-3.54,17.04-6.11,26.28-9.17,1.37-.65,2.48-.02,2.39,1.51,2.21,33.73-6.8,27.31,16.79,21.94,1.91-.42,7.35.02,2.65,1.83-7.47,2.45-14.84,5.34-22.48,7.31-2.29.62-4.75,1.08-6.57,2.69-1.88,1.7-2.51,4.65-4.91,5.8-3.34,1.68-7.77,1.66-10.56,4.32-1.5,5.58-.22,11.79-.62,17.61.52,4.81,10.02.63,12.79-.14,16.8-5.68,33.85-10.52,50.83-15.66,1.66-.51,4.14-1.2,5.2-2.57,1.16-1.53.91-3.9.94-5.78.43-17.29-1.26-34.83.99-51.94-.3-1.35.86-7.58-1.55-6.6-8.83,3.62-17.4,6.01-26.23,9.1-7.15,2.07-5.46-1.07-.29-2.97Z"/>
        <path class="cls-2" d="M434.09,698.05c-.03,1.23.57,1.39,1.61.86,3.78-1.78,7.37-3.48,11.03-5.13,2.3-.92,3.95-2.49,3.79-5.12.09-6.23.04-12.46.03-19.01,0-.46-.02-1.14-.31-1.39-.32-.31-.98-.12-1.42.04-4.71,1.64-9.05,3.16-13.29,4.64-.42.15-.87.36-1.11.72l-.05.08c-.22.35-.27.85-.28,1.3,0,3.11,0,6.15,0,9.13,0,4.7,0,9.28,0,13.89Z"/>
        <path class="cls-2" d="M471.12,680.06c0,.49.08,1.2.43,1.44l.06.04c.39.24,1.13-.02,1.62-.21,7.9-2.87,15.35-5.73,23.14-8,1.96-.31,2.77,1.21.9,2.2-17.19,8.51-13.22-1.04-13.72,24.85,0,.55.03,1.37.48,1.6.4.22,1.16-.08,1.65-.29,9.03-3.75,17.88-6.54,26.37-9.69,1.08-.4,1.51-1.41,1.46-2.51,0-6.86,0-13.53,0-20.68,0-.74.14-1.54.59-2.11,6.68-5.25,15.99-6.3,23.79-9.73,1.08-.44,1.54-1.46,1.49-2.59,0-6.28,0-12.48,0-19.04,0-1.02-.14-2.09-1.49-1.51-12.66,5.64-25.43,10.58-38.24,15.3-8.71,3.22-17.46,6.36-26.19,9.63-.72.28-1.24.68-1.4,1.3-.12.43-.08.99-.03,1.47.71,6.23-1.08,12.19-.92,18.51Z"/>
        <path class="cls-2" d="M478.25,738.98c9.8-2.17,20.78-5.74,29.99-.07,8.32,4.61,16.26,10.13,26.16,11.31,3.27.31,6.49.7,9.62,1.74,4.28,1.12,8.01,3.94,12.01,5.6,9.5,2.83,19.52,2.91,29.28,3.26l.09.03c1.12.66,2.61.92,4.01.78,6.92.24,13.9-.2,20.82.07,6.68.48,13.26,1.99,19.63,4.16,1.77.74,4.24,2.34,6,1.66.67-3.58-.03-42.26.21-46.85.34-.8-1.65.11-2,.16-6.65,2.45-13.95,3.75-20.21,6.83-1.1,2.87-.06,6.48-.42,9.39-.76,3.86,1.52,10.26-1.73,12.95-.39-.04-.49-.73-.58-1.12-1.01-6.12-.37-12.38-.74-18.69-.02-.53-.16-1.25-.6-1.47-12.12,2.41-23.9,7.65-36.04,10.57-11.35,3.54-9.7-5.96-9.73-13.74-.2-2.35.47-5.14-.33-7.41-.47-.61-1.81-.11-2.93.17-9.48,2.22-15.2,6.6-16.31-6.71-.06-6.78-.02-13.58-.03-20.57.03-.92-.18-1.98-1.35-1.66-6.54,2.02-12.92,4.08-19.18,6.31-2.06.73-4.4,1.57-6.57,1.21-2.21-.05-3.73-3.17-6.11-2.09-8.73,3.09-17.31,6.09-25.82,9.25-2.16.79-4.37,1.5-6.71,1.24-2.42-.55,2.31-2.47,1.66-5.44.1-5.46.05-10.99.04-16.99-.01-.55-.06-1.37-.55-1.53-15.63,5.45-29.58,14.39-43.99,20.3-.65.28-1.76.66-1.75,1.24-.02,2.61,0,18.96,0,21.92-.03.78,1.04.2,1.56.08,7.41-2.49,14.64-4.91,21.84-7.33,3.96-1.37-.32,14.71,1.63,17.59.91,2.09-1,4.03-2.3,1.58-2.69-2.68.96-15.79-3.32-14.52-5.96,1.94-11.76,3.91-17.67,5.87-1.26.31-2.12,1.32-1.99,2.65,0,4.64-.02,9.24,0,13.85,0,.83.13,1.76.68,2.37,4.14,2.16,8.82,5.05,13.64,4.35,3-.71,5.37-2.64,8.24-3.52,7.33-2.8,14.03-7.32,21.85-8.77ZM589,756.64c5.42-1.98,11.02-2.97,16.6-4.17,1.09-.32,2.25-.31,2.91.74.08.18.17.44.06.58-.21.32-.59.45-.95.62-6.96,2.89-13.9,4.36-20.84,5.72-.37.06-1.03.29-1.22.03l-.02-.04c-.04-1.52,1.98-3.04,3.46-3.47ZM501.69,723.45c6.28-3.97,32.06-12.77,37.39-10.95l-.03.03c-11.88,5.79-24.4,8.18-36.01,12.32-.87.13-2.17-.69-1.35-1.4ZM458.68,716.97l-.07-.04c-.44-.27-.61-1.41-.28-2.1.36-.8,1.17-1.29,1.96-1.65,4.79-1.96,9.74-3.64,14.66-5.29,1.47-.68,3.55,1.03,1.66,2.16-5.17,3.48-11.36,3.91-16.6,6.53-.42.21-.93.58-1.35.39Z"/>
        <path class="cls-1" d="M1235.23,861.78c-4.26-8.97-9.27-17.43-16.44-24.52-.27-.27-.48-.51-.6-.7-.2-.3-.13-.47.21-.5.31-.02.97.04,1.34.13,4.43.78,8.9,1.57,13.3,2.34.77.15,1.74.2,2-.66.25-.94.36-2.64-.21-3.5-1.45-1.16-3.67-.34-5.46-.77-5.73-.73-11.29-2.72-17.11-2.81-3.11.33-5.22-1.84-7.36-3.8-11.61-7.76-21.92-17.27-33.53-25.03-4.27-2.51-7.64-6.16-11.22-9.51-4.5-4.16-9.19-8.11-13.83-12.12-29.29-25.65-50.37-26.65-84.74-10.58-16.72,7.99-31.94,18.96-48.27,27.83-1.28.75-2.7,1.14-4.12.43-13.39-8.65-28.92-12.32-43.17-18.77-1.11-1.01-.89-3.48-1-4.99-.02-22.9,0-45.79-.01-68.72-.19-2.76.63-6.81-2.26-8.36-2.19-1.15-4.75-1.84-7.06-2.76-4.43-2.17-12.12-2.45-15.09-6.32-1.02-16.18.16-32.41-1.19-48.4-.12-1.86-.48-4.03-1.54-5.54-3.59-3.87-10.54-4.86-15.42-6.77-3.78-.8-6.25-2.29-5.94-6.42-.09-18.57.46-37.07-1.15-55.61-.11-4.95.11-9.9.15-14.89-.16-2.55.54-6.17-2.04-7.47-1.61-.77-3.83-1.12-5.67-1.05-5.46.08-11.01-.69-16.06,2.06-.73.35-1.62,1.06-2.39.6-.72-.65-.56-2.12-.64-3.3-.07-20.7.22-41.45-1.21-62.16-.38-32.75,5.9-31.84-29.33-29.05-2.8.29-4.4,2.52-4.27,5.1-.2,4.44-1.49,8.81-1.15,13.26.52,3.3-.36,6.83-4.36,3.94-1.71-1.36-2.62-3.48-3.8-5.28-2.85-4.77-7.41-8.07-12.07-10.97-5.03-3.34-10.2-6.56-15.54-9.64-1.36-.83-1.21-2.27-.64-3.6,5.22-15.14,7.26-32.42.1-47-8.7-13.51-28.47-12.91-38.5-.11-8.48,9.05-6.99,21.62-5.96,33.04.2,2.27.51,4.57,1.4,6.68,1.33,2.82,4.23,6.48,2.53,9.56-10.46,6.19-22.75,10.12-30.41,20.15-1.54,2.83-5.21,2.17-7.81,2.13-1.28.01-1.68-1.07-1.58-2.25,0-4.79.07-9.47-.02-14.14.23-5.06-2.27-8.07-7.38-8.01-5.75-.06-11.5-.24-17.18.96-3.32.68-7.35,2.87-8.58,5.51-1.15,2.89-.49,6.15-.86,9.25-1.77,22.71-.37,45.54-.88,68.29-.2,1.97,1.04,6.46-2.13,6-7.12-2.6-14.11-5.57-21.14-8.41-3.47-1.73-7.36-1.97-10.9-.26-5.19,2.15-10.45,4.04-15.65,6.13-31.36,13.2-63.15,25.38-94.45,38.74-8.34,3.47-16.75,6.76-25.31,9.66-1.75.61-3.62,1.45-4.63,2.96-1.98,3.16-.71,7.11-.92,10.69.26,6.89-1.19,13.83-.68,20.74.57,5.4.21,10.8.45,16.17.07,1.63.13,3.57-1.19,4.75-2.53,2.03-5.4,3.65-8.41,4.81-13.23,4.48-26.16,9.96-39.53,14.11-3.97,1.05-8.41,3.13-9.3,7.51-.3,3.21-.16,5.04-4.07,4.15-4.47-.83-9.05-2.12-13.53-.67-4.87,1.4-9.59,3.29-14.37,5.02-1.47.54-3.13,1.12-4.19,2.28-1.09,1.22-1.23,3.09-1.19,4.73-.16,21.28-1.6,42.46-1.05,63.73.18,4.09,0,5.74-4.84,4.43-6.12-1.06-12.22-3.26-18.47-3.18-6.27,1-12.74.28-18.22,3.46-33.01,26.03-33.95,96.15-27.69,144.13l8.19,46.92c-.73-73.45-15.58-124.9,14.63-178.08,17.85-23.48,55.5-5.6,75.75,6.72,16.74,9.22,35.71,12.93,52.85,21.23,12.68,4.92,24.14,12.46,37.58,15.37,17.01,4.1,16.76,12.38,30.64,17.36,11.74,4.01,24.97,2.66,36.93,6.21,11.78,3.33,22.54,9.03,32.45,16.35,2.33,1.7,4.84,3.38,7.69,3.93,2.78.66,5.9-.27,8.61-1.17,3.94-1.26,7.92-2.15,11.96-2.78,9.47-1.53,19.09-1.48,28.65-1.93,11.9-1.17,23.83-1.4,35.6-3.71,12.89-1.41,25.42-4.68,38.22-6.37,5.54-.92,11.16,1.41,16.7.77,1.74-.31,3.39-1.14,4.93-2,8.87-6.09,19.84-4.17,29.82-2.95,1.99,0,10.51,1.4,5.4,3.72-29.94,12.92-41.94,48.54-25.36,76.48,11.86,18.24,35.84,19.72,55.53,22.32,28.3,2.81,56.29-2.66,83.6-9.6,7.63-2.05,15.09-4.7,22.66-6.95,1.96-.15,18.47-6.7,14.55-.64-10.11,14.76-23.59,28.65-40.98,34.39-13.87,3.91-26.7,11.45-41.09,13.46-26.82,2.85-54.07,2.76-80.45,9.05-8.75,1.48-17.28,4.77-26.02,5.85-3.94-.41-7.37-3.02-11.13-4.12-29.75-10.63-61.46-12.21-92.7-14.37-5.24-.44-10.53-.42-15.77-.76-5.9-1.61-11.31-4.83-17-7.06-10.54-5.41-22.12-7.3-33.8-8.39-15.1-2.3-30.64-.99-41.77,10.32-5.14,4.85-8.48,11.07-7.41,18.61.07,1.04.42,2.73-.43,3.36-15.06-.56-32.32,10.5-34.29,26.19-.74,12.23,9.49,21.02,19.37,26.31,1.01.69,2.51,1.37,3.45,2.22.43.4.16.6-.67.6-8.47-.8-17.13.67-23.59-6.1-3.47-3.64-8.27-6.28-10.1-11.19-11.66-30.83-18.91-72.22-55.19-82.54-21.47-6.34-27.87,10.78-30.71,5.03-10.96-16.1-28.94-29.42-49.38-23.24-8.57,2.01-15.47,11.85-14.34,20.11.27,3.09,1.87,6.47,2.04,9.49-.01.42-.16.68-.46.77-1.86-.02-3.91-1.25-5.68-.5-.08.03-.16.06-.24.1l.1-.32c-3.91.09-8.85.02-11.8,2.53-12.65,12.34,6.69,49.08,10.44,52.71,1.23,3.51,4.92,7.68,6.7,10.49,8.68,13.2,19.16,24.77,31.56,34.56,4.94,3.87,9.96,7.83,13.58,13.04,6.97,9.57,15.23,17.95,23.8,25.98,15.61,14.19,31.88,28.5,50.56,38.59,14.64,6.31,30.21,11.54,46.33,11.58,2.45-.13,4.87.35,7.06,1.42,6.17,2.79,12.61,5.2,19.06,7.32,35.53,11.04,71.56,20.62,107.59,29.91,1.58.39,3.72.65,4.84,1.84,2.4,4.06,0,10.2.23,14.71-.78,45.27,1.51,90.56,3.23,135.78,1.94,20.05,5.09,39.99,6.17,60.15,2.17,21.08,4.15,42.08,7.57,62.99,1.2,7.19,2.06,14.43,2.91,21.66.32,2.96.56,5.93.86,8.9.25,1.57.05,3.52,1.11,4.74.7.6,1.97.6,2.75.06.72-.53.85-1.45.81-2.58-1.17-18.54-5.16-36.81-6.93-55.3-.52-8.19-2.91-16.12-3.17-24.31-1.68-23.87-4.48-47.69-7.09-71.48-1.8-34.05-3.11-68.25-3.66-102.43-.29-4.79-1.25-9.61-.52-14.42,1.32-12.1.3-24.31.85-36.66.24-2.52,2.72-1.32,4.32-1.18,2.76.42,5.78.46,6.59,3.3.88,3.89.88,8.27,1.96,12.19,5.51,29.01,7.31,58.5,12.09,87.62,10.04,67.94,37.93,132.07,46.11,200.31.08.96.3,1.89.75,2.74.49,1.03,1.36,1.98,1.8,1.85.34-.12.43-.63.48-1.03.1-2.28-.18-4.61-.35-6.9-6.19-50.72-23.56-99.08-35.1-148.68-9.59-35.92-13.92-72.87-17.83-109.74-1.52-11.59-3.62-22.19-6.11-33.8-.35-1.3-.3-2.68,1.32-1.48,14.94,10.82,31.01,19.61,46,30.37,25.63,21.49,51.6,42.56,78.05,63.11,5.77,5.4,11.54,6.8,10.6,16.1-.18,45.75-.67,91.51,1.53,137.22.6,14.76,2.37,29.48,2.64,44.27.2,3.37.66,6.76.99,10.11.34,1.12,1.87,1.19,2.92.86.91-.33.94-1.21.88-2.35-.61-18.93-2-37.83-3.2-56.74-.78-36.83-3.7-73.9-.98-110.68-1.44-22.2-1.37-44.54.31-66.78-.28-14.58.95-29.09,1.56-43.65.24-13.37,1.97-26.7,1.44-40.08-.51-7.57-.23-8.3,6.71-3.97,7.65,4.91,15.69,9.25,24,12.94,20.24,8.29,41.74,15.05,63.8,15.47,9.73-.15,19.42-2,28.75-4.7,19.54-6.44,35.83-19.78,53.55-29.89,42.21-24.64,83.78-50.96,128.61-70.65.83-.26,1.5-.7,2.26-.21.3.24.45.71.51,1.3.35,18.21.22,36.47-1.73,54.6-2.91,37.31-6.31,74.7-7.44,112.1.24,14.05.15,28.08-.16,42.14.33,4.96,1.45,9.97,1.32,15.01.07,5.86-.13,11.75.8,17.56,1.37,8.45,1.32,17.19,2.35,25.69,1.27,6.08,1.98,12.22,2.16,18.41,2.19,15.1,3.43,30.35,5.76,45.43,1.73,6.61,2.15,13.33,2.37,20.13.46,5.7,1.5,11.33,2.25,17,1.32,9.93,1.86,19.96,3.37,29.86.12.94.43,2.11,1.27,2.41.65.26,1.76.12,2.32-.31.78-.62.71-1.71.62-2.66-.76-7.83-1.64-15.65-2.5-23.46-3.57-26.07-6.41-52.21-9.57-78.34-2.4-19.48-4.29-39.12-6.2-58.62.29-8.14-1.35-16.2-1.23-24.34.07-6.53.36-13.09-.27-19.6-.37-3.87-1.17-7.57-.94-11.43-.02-2.85,1.23-5.6,1.35-8.37-.64-11.86.11-23.7.82-35.54,2.18-42.77,7.44-85.43,8.44-128.25.83-4.42-3.95-11.61,1.56-14.09,18.51-7,37.13-8.56,55.67.41,3.45,1.23,1.53,5.11,1.38,7.73-1.13,19.75-3.68,39.33-4.89,59.07-3.38,41.13-8.97,81.96-11.61,123.18-4.38,68.46-3.1,137.05-1.96,205.57.27,2.69-.27,5.61.43,8.19.37.62,1.48.86,2.42.66,1.37-.2,1.44-1.49,1.43-2.59-.44-45.81-1.99-91.57-.47-137.37-.33-45.41,2.64-90.82,8.04-135.9,3.29-26.58,5.96-53.19,7.37-79.88,3.25-33.36,6.24-66.71,7.84-100.22.34-5.45.61-10.9.79-16.35-.04-1.13.59-2.65,1.13-3.21-.11-37.6.19-104.43,0-138.93ZM964.32,813.01c1.03-5.58.44-11.05.65-16.14-.02-1.04.59-1.82,1.67-1.9,7.97-.73,15.42,1.72,22.94,3.43.82.08,1.4-.28.85-1.02-5.14-4.62-15.93-6.94-23.95-5.93-1.02.13-1.38-.63-1.34-1.5.04-1.68-.11-3.67.08-5.57.14-1.04,1.16-.81,1.94-.48,13.54,5.17,27.25,9.04,39.7,16.42.86.53.94,1.03.05,1.53-12.83,6.38-26.46,10.23-40.84,12.75-.51.09-1.34.24-1.64-.08l-.05-.05c-.26-.32-.15-.99-.06-1.46ZM959.65,700.74c.22.13.37.32.45.66.29,6.41.05,12.98.08,19.41.01,1.58-.33,2.72-2.15,2-10.9-3.51-21.66-6.99-32.45-10.41-.97-.31-2.12-.68-2.83-1.4-.96-.98-.9-2.53-.91-3.82.13-6.15-.19-12.58.13-18.99l.02-.06c.12-.29.37-.27.62-.21,5.87,1.41,31.81,10.4,37.02,12.82ZM936.59,669.9c.06,1-.3,1.59-1.35,1.27-2.28-.65-4.48-1.29-6.51-2.18-.39-.19-.75-.45-.91-.84-.15-.35-.14-.8-.08-1.19.49-3.03,1.02-6.08.53-9.21-.06-.41-.11-.93.1-1.26l.05-.07c.96-.99,3.04.18,4.3.26.88.11,1.81-.54,2.35-.03,2.33,3.94,1.36,8.74,1.53,13.26ZM916.88,631.34c-.02-1.36.87-1.47,1.94-1.09,4.93,1.56,9.63,2.99,14.26,4.57,2.36.62,2.72,2.7,2.62,4.83-.04,4.29-.02,8.56-.01,13.1,0,.48,0,1.24-.34,1.49l-.06.04c-.55.3-1.5-.28-2.09-.48-1.74-.7-3.57-1.43-5.45-2.09-4.07-1.43-5.87-1.56-7.61-.88-.98.54.07,1.38.97,1.95,1.74,1.15,4.38.68,4.2,3.33-.08,3.48.19,6.75-.14,10.07-.35,1.82-2.09.71-3.44.66-.83-.02-1.88.49-1.84,1.32.04.44.46.79.85,1.03,4.29,2.58,9.47,3.16,14.07,5.29.51.23,1.05.56,1.35,1.01.29.41.4.94.42,1.45.02,3.04.01,6.16,0,9.39,0,.46-.08,1.07-.45,1.28-.33.22-.99.05-1.43-.11-4.66-1.58-9.25-3.2-13.9-4.63-3.03-.8-4.09-2.02-3.92-5.19,0-15.62-.02-30.5,0-46.32ZM897.55,546.18l.06-.06c1.58-1.17,12.12-.4,13.29,1.4,1.21,42.72.02,86.18.42,129.58.04,1.49-.8,1.7-1.94,1.41-3.65-.89-7.08-2.06-10.51-3.45-1.17-.42-1.77-1.39-1.71-2.66.38-41.8-.74-84.1.39-126.23ZM891.62,552.28c-.17-.9-.44-1.86-.37-2.74.07-.83.47-1.74.96-1.4.37.24.53,1.31.65,2.18.57,4.17.22,8.39.31,12.58.03,9.35.12,18.74.07,28.11-.59,8.06-1.38,16.1-1.06,24.19.04,12.52-.06,25.04.28,37.52.15,2.68.72,5.34.82,7.97.16,3.48-.08,7.01-.16,10.51-.02.45-.06.97-.34,1.27l-.06.05c-.57.42-1.56.21-2.27.09-1.85-.26-3.18-.79-3.85-2.27-2.88-6.47-3.61-13.39-3.87-20.35-.14-4.88-1.62-9.59-1.72-14.46-.34-7.86-1.74-15.67-1.39-23.53.39-5.27.87-10.54,1.04-15.82.38-6.22,1.47-12.41.99-18.66-.13-3.22.26-6.42-.82-9.43-.62-3.42,5.27-1.38,6.94-3.57,3.55-3.27,4.87-7.65,3.85-12.25ZM865.51,452.92l.06-.06c.42-.37,1.14-.39,1.73-.38,4.29-.02,8.17-.26,12.33.35,4.85.44,3.94,5.51,4.07,9.08.06,20.16-.1,40.33.05,60.51.18,4.69,1.08,9.37,1.07,14.19-.05,1.35.02,2.8-.36,4.1-.26.76-1.06.34-1.58,0-4.84-3.14-10.7-3.95-15.97-6.58-.51-.25-1.05-.6-1.35-1.06-.3-.44-.41-1-.42-1.6.35-25.73-.69-52.16.37-78.56ZM850.4,477.8l.05-.06c.31-.32.83-.35,1.31-.36,4.27.29,5.37-1,5-5.14-.26-5.56,1.44-10.95,1.27-16.34-.15-2.11,1.42-2.68,3.33-2.44.78.09,1.28.6,1.26,1.49-1.78,25.1-1.27,49.86-1.68,74.56-.01.55-.05.92-.12.92-1.77-6.24-2.93-12.85-4.36-19.24-2.2-10.58-4.2-21.15-6.15-31.83-.1-.5-.2-1.21.11-1.57ZM741.23,471.13c.93.02,1.21.64.91,1.48-1.64,5.26-3.23,10.5-4.34,15.78h-.02c-1.4-4.86.18-10.22-1.27-15.24-.93-2.79,3.1-1.98,4.72-2.01ZM737.41,530.81c-1.1-13.23,1.28-26.21,4.09-39.01,3.71-25.35,11.1-31.78,33.99-41.56,9.83-2.8,6.05-8.44,2.64-15.13-3.24-8.23-3.05-17.17-2.48-25.89,1.1-7.8,6.98-14.23,14.4-17.46,24.75-8.51,29.17,15.97,26.06,34.82-6.42,29.1-8.43,16.63,16.15,33.78,7.01,3.21,11.04,10,13.14,17.17,3.13,9.12,3.39,18.92,5.61,28.28,1.55,7,3.28,13.99,4.69,21.02.33,1.6-.68,2.62-1.08,4.04-.4,3.21,4.06,3.41,6.17,4.41,3.83,1.68,7.26,4.18,11.4,5.09,4.12,1.08,8.16,2.52,11.27,5.49,4.44,3.92,6.57,11.6,2.02,16.14-6.64,2.07-11.65-5.5-16.01-9.42-4.89-6.14-13.18-6.07-20.31-6.74-4.73-.05-9.69.08-14.27,0-.71-.03-1.35-.03-1.88-.55-.65-1.12-.53-3.29-1.45-4.6-3.04-7.76,5.17-12.69,8.28-18.88.66-.91,1.4-4.65-.68-2.92-3.74,3.47-6.45,7.33-8.77,11.44-.48.97-1,1.18-.97-.17-.85-15.61,4.6-32.61.48-47.69-1.62.11-1.74,2.44-1.64,3.78.67,14.81-2.77,29.37-2.1,44.16-.39,4.91,1.45,9.09,4.35,13.17,1.14,2.19-3.65.98-4.79,1.31-2.8.06-5.37,1.28-8.14.88-3.98-.81-4.85,3.76-6.92,1.59-6.03-7.07-14.04-8.42-22.7-9.49-5.32-2.01-9.8-6.42-13.43-10.73-.58-1.75,0-4.17-.87-6.03-3.36-9.57-4.08-19.68-6.07-29.55-.69-1.42-1.55-7.76-3.93-5.17-.72,1.33.04,3,.29,4.45.92,4.11,1.63,8.24,2.1,12.44.35,5.6,1.47,11.02,3.38,16.35,3.92,9.82-2.5,2.58-5.59-.41-.67-.6-1.86-.77-2.22.12.14,4.47,16.5,16.1,20.71,19.42,5.83,4.85,13.94,3.6,20.35,7.09,3.45,1.83,6.18,4.73,8.93,7.44.99,1.18,3.1,3.04,3.5.62.11-1.05-.86-1.99-.87-3,.38-3.17,4.89-2.02,7.14-2.37,9.45-.18,18.86.87,28.27,1.37,3.57.22,7.3.02,10.64,1.49,25.11,11.59,16.04,34.06,15.5,55.71-.39,13.38-.16,26.8,2.74,39.94.34,6.98-.02,13.62,2.8,20.53.51,1.19.5,2.09-1.06,1.55-34.31-11.45-68.04-22.72-101.88-34.02-2.06-.49-1.95-2.29-1.82-4.19.06-2.54.29-5,.74-7.49,1.39-8.07-4.03-15.74-3.71-23.8,1.22-16.34,5.09-20.31-.59-38-2.51-6.48-.21-18.18-4.17-22.51-7-1.63-15.42-3.12-21.82,1.61-2.59,1.59-5.37,3.59-8.32,4.3l-.08-.02c-3.87-3.75-1.66-9.6-1.2-14.23ZM835.64,680.53c.04.51.08,1.29-.41,1.47-18.55-4.94-36.54-11.12-54.66-16.41-1.21-.3-1.72-1.28-1.65-2.47,0-7.14,0-14.36,0-21.81-.05-1.09.26-1.97,1.53-1.53,18.85,6.72,38.29,12.33,56.85,19.68l.06.08c.32.46.36,1.15.34,1.75-.15,6.66-2.65,12.66-2.05,19.24ZM754.92,543.54c-.03-1.18.63-2.03,1.76-2.2,2.51-.43,4.89.84,7.27,1,3.02-.06,3.6,3.76,3.34,6.17-.54,8.57,2.92,16.55,3.92,24.93.56,4.9.21,9.85-.53,14.72-.99,6.52-2.05,13.23-.02,19.67,3.03,7.31,1.97,14.84,1.89,23.05.06,1.42-.43,1.98-1.82,1.56-4.94-1.36-9.46-3.01-14.08-4.66-.5-.17-1.04-.43-1.34-.84l-.06-.08c-.95-27.84-.02-55.71-.33-83.33ZM748.83,543.64c.42-.25,1.2-.66,1.51-.31.46,27.28.63,54.75-.06,81.97-.33.33-1.05.14-1.53-.03-7.63-2.61-15.16-5.18-22.91-7.84-.55-.18-1.17-.44-1.5-.88l-.06-.08c-.97-17.31-.02-34.81-.35-51.97,0-1.58.05-3.36.68-4.76.79-1.95,2.74-3.3,4.5-4.38,6.36-3.98,12.85-7.74,19.72-11.71ZM713.86,448.21c.34-2.13,16.44-2.61,17.24-.53,3.97,26,1.45,53.26,2.02,79.64.75,10.85-5.48,19.74-10.61,28.8-2.21,2.07-2.85,4.94-2.75,7.91.06,16.4.09,32.82.02,49.2,0,1.39-1.41,1.15-2.36.9-3.59-.5-2.84-3.64-2.96-6.25.54-53.18-.4-106.5-.66-159.58l.06-.09ZM774.74,638.65c1.32,7.43.08,15.35.49,22.92,0,.57-.02,1.43-.51,1.69-8.32-1.05-16.47-5.08-24.86-6.27-.7-.15-1.67-.08-1.2.84.69,1.2,2.07,1.78,3.35,2.26,11.79,4.19,23.94,7.11,35.83,11.08,2.72.57,1.27,3.65,2.75,5.23,2.16,1.21,1.88-2.89,3.88-2.91,14.05,2.65,28.04,7.86,41.73,12.36,1.42.39,11.44,4.99,8.88.66-1.88-2.18-7.6-1.75-7.22-5.22.44-3.12.58-6.27,1.78-9.2.89-2.02,2.15-3.72,1.82-5.92.22-1.49-2.7-5.95.2-5.64,9.2,2.99,18.13,6.2,27.1,8.99,2.11.58,4.95,1.67,4.65,4.3-4.34,22.42,7.44,22.13-18.26,15.6-1.69-.3-3.25.74-3.3,2.53-.76,5.62-1.32,11.17-1.23,16.83-.3,3.7,2.04,6.72,5.53,7.77,8.48,3,17.46,5.38,26.34,6.76,1.79-.15,23.78,9.74,17.77,3.08-3.84-3.7-13.51-2.43-14.13-5.11.68-3.76.55-7.72.54-11.94-.12-1.72,1.12-2.97,2.87-2.54,7.12,1.3,14.28,5.98,21.61,4.76,9.09-2.61,2.15-31.01.41-14.9.27,3.2-.11,6.49.02,9.78-.06.9.32,2.3-.55,2.85-6.01-.8-11.93-3.39-17.62-4.81-2.71-.94-6.62-1.48-7.35-4.73-1.29-2.35,1.16-10.27-1.96-10.69-1.77,1.23-1.07,4.94-1.69,6.84-1.63,1.85-4.57-.76-6.7-.64-1-.16-.95-1.15-.65-1.98,1.91-6.26,1.02-12.52,1.36-18.87-.08-1.62,1-2.09,2.42-1.46,13.16,4.69,26.54,8.33,38.9,13.34.48.51.54,1.33.48,2.04-.44,7.91-1.61,15.97,1.36,23.37,4.27,7.04,20.51,2.92,18.9,13.97.25,2.17-1.81,21.59,2.96,17.24.78-6.4-.34-12.95.14-19.73-1.06-4.98,13.82,2.84,16.35,2.88,1.32.25,2.11,1.27,2.02,2.61-.31,4.74.65,10-.41,14.73-2.24,1.32-6.54-1.56-8.87-.25-.95.88-.23,2.23.98,2.52,3.58,1.35,9.17.57,8.49,6.04-.03,8.67-.02,17.27-.01,25.96.02.62-.07,1.48-.58,1.74-7.37-.92-14.64-3.67-21.95-5.22-.75-.19-1.6-.52-2.02-1.14-1.41-2.3,1.3-5.9-.55-8.04l-.07-.06c-16.55-5.32-34.18-8.36-50.62-13.9-1.67-1.23.21-18.07-2.36-15.97-2.63,2.92,1,15.86-3.57,14.83-2.47.14-13.62-4.58-13.98-2.3.37,5.14,18.03,3.86,16.06,8.45-3.61,27.06,8.56,22.06-27.81,14.67-1.81-.69-2.03-2.64-2.01-4.34.45-8.45-.84-17.5.51-25.91,3.42-2.07,9.34,2.88,12.55.03-2.76-3.3-8.11-3.32-12.02-3.73-1.22.02-1.93-.92-1.93-2.08-1.5-19.22-15.1-35-34.38-37.84-6.85-1.47-14.09,1.22-20.72-1.59-5.65-2-11.73-3.32-17.49-4.59-2.74,1.9,5.74,4.65,10.58,6.08.99.7,10.31,1.77,7.33,3.18-10.87,4.84-15.5,20.51-18.51,18.42-13.48-4.08-27.26-7.41-40.99-11.1-1.54-.24-2.38-1.32-2.27-2.85.02-6.51-.04-12.92.02-19.48.57-3.18,5.63-.12,7.89.19,7.59,2.78,15.63,3.93,23.17,6.9,1.54,1.03,6.97,1.45,4.38-1.52-2.55-1.99-5.88-2.45-8.93-3.22-3.63-.87-7.04-2.66-10.8-3.24-5.95-.37-2.69-9.53-3.54-13.49.1-1.68-1.68-3.45-2.48-1.3-1.8,3.24,2.39,14.53-4.1,12.04-1.77-.42-4.08-.7-5.14-2.32.13-2.36,3.59,0,4.98-.89,6.61-3.49-38.56-12.61-41.87-14.81-1.27-.36-1.82-1.43-1.77-2.69,0-5.45,0-10.89,0-16.28-.17-1.19.7-2.22,1.88-1.86,2.06.14,2.93,2.36,4.32,3.54.62.25,1.49-.58,2.41-.67,1.21-.11,2.4.37,3.58.71,9.07,2.81,18.16,5.6,27.24,8.39,4.81,1.48.92,7.72,3.3,11.32,2.78,2.55,1.94-10.76,1.46-11.49-.68-2.07-3.41-2.53-5.22-3.22-9.85-3.86-20.79-5.45-30.33-9.62-1.4-3.01-.29-6.75-.62-10.16.07-5.37-.14-10.93.08-16.28.19-.85.81-.88,1.67-.62,23.15,8.32,47.05,15.39,69.8,24.36ZM882.38,719.46c0,.47-.07,1.13-.51,1.3-.23.1-.56.08-.93-.01-8.2-2.44-16.33-4.9-24.4-7.32-1.2-.23-1.96-1.12-1.87-2.36,0-5.83,0-11.39,0-17.22-.05-1.27.41-1.84,1.67-1.41,4.9,1.49,9.76,2.98,14.62,4.47,3.29,1.01,6.59,2.01,9.88,3.02.44.14.9.35,1.17.71l.06.08c.29.43.32,1.1.32,1.65,0,5.93,0,11.49,0,17.08ZM854.35,811.29c-1.21-.59-3.36-.08-3.35-1.96-.03-4.47-.07-8.9.01-13.38.06-1.13,1.02-1.14,1.86-.86,11.87,3.44,24.01,5.67,35.85,8.92,4.68,1.73,11.58-.11,13.39,5.98.19.45.22,1.03.64,1.28h.05c.49-.16.63-.82.86-1.28,2.2-4.96-1.06-6.75-5.27-7.37-8.32-1.61-16.4-3.97-24.66-5.66-6.51-1.14-5.66-2.75-4.51-8.48,1.46-8.1-5.02-13.44,7.19-9.16,11.2,1.07,4.95,6.33,12.75,8.07,3.45.71,6.83,1.69,10.21,2.65.56.17,1.15.42,1.52.87,1.19,1.72.17,4.52.61,6.55.34,2.7,1.93,2,3.07.23,1.17-1.54.64-3.69.42-5.53-.04-.17.06-.81.25-.87.31-.26,1.03-.11,1.49-.02,8.01,1.66,15.91,3.26,23.95,4.94,1.29.2,1.67,1.34,1.58,2.5.03,3.36.96,6.45,1.11,9.73.46,5.47,8.11,6.26,12.41,6.87,1.45.03,1.94-1.8.87-2.63-.55-.45-1.31-.55-2.01-.63-1.81-.14-3.59-.68-5.25-1.23-1.68-.46-3.32-1.65-3.09-3.6-.28-3.2.86-9.74-1.27-12.15-1.54-1.33-4.08-1.8-6.01-2.41-12.89-3.44-26.26-5.04-39.18-8.15-3.01-.83-3.06-3.86-4.69-5.78-.58-.57-1.36-.96-1.89-1.56-.89-.96-.47-2.3-.23-3.46,1.3-5.41.51-11.01.72-16.45.06-.72.08-1.48.57-2.02.52-.45,1.11-.42,1.76-.31,14.67,3.78,29.74,7.52,44.82,11.55.93.34,1.41,1.12,1.46,2.06.05,1.06.08,2.45-.55,2.97-.37.34-1.03.33-1.55.26-6.18-.87-12.05-3.73-18.37-3.4-.32.04-1.29.04-1.12.38,15.17,6.42,31.72,8.97,47.45,13.74,1.31.3,1.84,1.37,1.78,2.64-.29,10.08.57,20.24-.32,30.11-.41.64-1.25.83-2,.96-6.13.98-11.9,2.97-18.05,3.43-3.22.18-6.39-.15-9.55-.7-7.4-1.23-14.82-1.62-22.27-1.73-11.51-.39-22.93.79-34.24,2.65-2.54.36-5.08.91-7.59,1.13-2.53.17-5.29-.53-8.03-.72-4.36-.23.52-7.51-3.58-8.96ZM850.63,775.32c-.03-.85.23-1.72,1.2-1.75,4.2.09,8.05,1.59,11.83,2.79.43.14.89.34,1.15.69l.05.08c.26.4.29.99.29,1.49,0,4.99,0,9.81,0,14.71.06,1.26-.49,1.69-1.69,1.35-3.06-.72-6.02-1.46-9.06-2.04-2.25-.32-3.8-1.32-3.74-3.78-.04-4.47,0-8.81-.01-13.55ZM805.41,718.82c.02-.53.12-.99.39-1.3l.06-.07c1.78-1.48,8.17.53,9.58,2.05,1.22,24.97.02,50.49.43,75.89.02.63-.06,1.56-.63,1.7-.4.13-.9.02-1.32-.09-1.47-.4-2.85-.65-4.4-.67-3.48-.01-4.07-.79-4.1-4.09-.08-22.09,0-44.18-.03-66.29,0-2.34,0-4.73,0-7.12ZM806.39,799.26c9.13,1.12,17.91,2.72,26.84,4.34.39.09.73.24.97.49l.07.08c.53.64.63,2.42,0,2.97-.25.2-.61.26-1.05.25-9.15-.86-18.02-2.59-26.52-7.36-.5-.27-1.62-.91-.31-.77ZM818.67,725.9c.04-1.02.07-2.35.62-2.56l.07-.02c.43-.09.88.23,1.23.52,2.19,1.83,3.43,4.23,4.22,6.86,2.89,11.11,3.72,22.65,3.43,34.16-.2,10.22.04,20.52-.06,30.73-.24,2.56-1.25,3.03-3.55,2.49-1.35-.25-3.58.24-4.38-.9-.35-.51-.35-1.31-.34-1.97.22-10.14-1.18-20.25-1.23-30.36.1-9.05,1.1-18.09,1.08-27.13.16-3.97-1.14-7.69-1.08-11.81ZM832.17,798.23c.36-8.11-.68-15.75.93-23.55.8-4.11-.47-8.64-.92-12.88-.38-4.48.08-9-.02-13.48.15-14.46-5.9-30.17-20.88-34.27-9.72-2.93-19.08,1.16-27.05,6.75l-.09.07c-.78.65-1.65.68-1.38-.33,1.68-3.6,3.24-7.52,6.07-10.56,5.04-5.62,11.21-9.2,17.63-8.89,20.5.26,33.63,8.27,38.12,28.79,1.8,6.66,1.27,13.54,1.21,20.35.18,6.95,1.34,13.89,1.23,20.83-1.15,12.4-1.14,24.61-1.25,37.27-.03.6-.18,1.02-.53,1.13-.46.17-1.31-.18-2.09-.26-1.3-.27-3.51.22-4.28-.83-1.17-2.85.57-7.45-3.15-8.46-1.27-.56-3.74.44-3.54-1.69ZM779.02,735.36c1.14-6.41,4.83-10.77,10.87-13.96,1.39-.79,2.06-.49,1.98,1.15-.35,23.26.67,46.55-.36,69.51l-.06.06c-.31.32-.86.41-1.34.4-2.94-.01-5.77-1.34-8.55-1.12-3.42.56-2.87-2.87-2.85-5.17.29-16.92-.57-33.99.31-50.88ZM791.41,797.49c4.62-.72,8.53,1.02,12.59,1.19-4.04,1.29-6.91,1.05-12.34-.46-.29-.09-.85-.24-.96-.41v-.04c0-.17.49-.24.71-.29ZM802.72,792.49c.11.64.14,1.57-.5,1.72-1.37.18-3.04-.54-4.26-.73-1.45-.21-2.18-.83-2.13-2.24.43-24.11-.04-48.12-.94-71.87l.06-.07c.36-.39.96-.56,1.49-.7,2.13-.64,5.97-2.06,6.06,1.35.61,24.31-2.99,47.99.23,72.54ZM773.54,775.1c.06,22.81,2.64,14.8-21.12,10.2-1.03-.27-1.14-1.26-.99-2.18.59-18.03-1.59-12.41,14.58-9.96,2.36.44,7.23.02,2.92-2.3-1.85-.71-3.82-.69-5.72-1.31-6.94-1.88-13.89-3.76-21.05-4.77-1.55-.2-3.34-.68-3.7-2.41-.53-5.44-.05-10.8-.21-16.47-.16-1.38.63-2.35,2.07-1.87,9.33,1.83,18.22,5.24,27.75,6.27.53-.13.54-.68.1-1.36-1.71-2.54-4.9-2.53-7.59-3.35-7.79-2.01-15.67-3.84-23.45-5.77-2.51-.6-1.81-3.17-1.96-5.21.09-5.13-1.2-7.6-6.49-8.22-6.95-1.71-13.82-3.74-20.79-5.45-1.55-.64-6.11-1.12-4.38,1.69,1.51,1.71,4.78,1.25,6.42,3.17,1.85,3.52-.93,9.01,2.22,12.11,1.1,1.11,2.7,1.45,4.2,1.68,6.02,1.3,12.29,2.46,18.36,3.56,1.21,2.22.25,5.28.54,7.73-.3,3.84.61,8.09-.39,11.73l-.06.04c-30.79-7.11-62.68-14.05-92.99-23.42-1.09-5.74-.25-12.03-.36-18.04.2-1.13,1.35-.93,2.22-.71,8.93,2.08,17.72,4.13,26.48,6.26,3.89.11,11.54,4.65,13.83.5,1.47-9.04.31-18.62.39-27.8-.88-3.28-3.09-.27-2.66,1.73,0,7.35,0,14.77,0,22.46.11,1.27-.64,2.13-1.93,1.74-2.21-.93-6.41-.08-6.73-3,.56-9.43-.15-18.79.46-28.17-.04-1.42.77-2.2,2.2-1.72,14.05,3.5,27.83,8.18,41.66,12.45,12.75,3.89,25.72,6.88,38.52,10.67,2.97.51,2.35,3.67,2.41,5.92.18,5.95-.62,12.06.46,17.92,1.11,2.07,2.45-2.21,2.35-4.1.18-5.07.05-10.06.09-15.09-.05-1.03.26-2.22,1.53-2.08,4.35.56,8.34,2.55,12.54,3.24.54.09,1.19.25,1.47.68-3.79,17.37-3.34,35.23-3.19,53.01ZM698.26,758.57c0-.45.07-1.05.44-1.26.26-.16.66-.15,1.13-.05,15.44,3.7,30.53,8.21,46,11.1,2.02.36,2.88,1.87,2.81,3.81.02,3.38,0,6.72,0,10.17.06,1.32-.62,1.75-1.82,1.46-9.82-1.88-19.36-4.98-29.18-6.72-5.72-1.01-11.53-1.55-17.51-1.11-.5.04-1.14.08-1.49-.24l-.06-.06c-.32-.33-.35-1.03-.34-1.54,0-5.5,0-10.53,0-15.55ZM731.23,736.84c-.02.54-.08,1.2-.52,1.54-.29.24-.74.31-1.14.32-2.94.07-5.73-.77-8.56-1.43-1.78-.42-3.62-.74-5.46-.74-.34-.02-.7-.08-.96-.29l-.07-.06c-.27-.26-.39-.7-.45-1.09-.41-2.86-.83-5.39-.38-7.96.15-1.08,1.02-1.19,1.92-.88,4.61,1.28,9.16,2.53,13.82,3.82.84.19,1.6.7,1.71,1.6.22,1.61.11,3.32.08,5.17ZM642.12,743.13c17.26,3.85,34.41,8.92,51.51,12.71.49.13.9.32,1.16.64l.06.07c.29.4.35,1.03.34,1.56,0,5.34,0,10.52,0,15.78,0,.62-.12,1.34-.64,1.68-10.17,1.92-19.68-3.7-29.6-4.33-5.68-.18-11.41,1.56-17.14.8-1.83-.19-3.69-.53-5.46-1.15-.89-.32-1.49-1.03-1.62-1.98-.91-7.98.96-15.92.9-24.18-.01-.55.03-1.38.5-1.58ZM641.41,654.45c-.06-1.2.44-1.75,1.62-1.39,3.74,1,7.36,2.07,10.82,3.63.73.3,1.22.88,1.03,1.71-1.25,3.75-.58,7.68-.65,11.54-.13,3.65-.07,7.29-.04,11.27,0,.45,0,1.09-.31,1.35l-.06.04c-.33.21-.85.07-1.26-.05-3.36-1.03-6.57-1.88-9.66-3.22-.48-.21-.96-.52-1.2-.97-.17-.3-.25-.67-.27-1.06-.03-7.44,0-15-.01-22.86ZM667.99,723.23c-8.31-1.98-16.39-3.91-24.59-5.86-1.04-.19-1.8-.81-1.78-1.93-.03-10.45,0-20.91-.01-31.62,0-.46.02-1.17.32-1.4l.06-.04c.31-.22.98-.03,1.41.12,8.38,2.77,16.55,5.47,24.69,8.17.55.17,1.17.43,1.48.89.33.44.37,1.13.37,1.71,0,9.38,0,18.61,0,28.36.09,1.52-.48,2.04-1.94,1.6ZM706.41,451.19c-.07-1.37,4.26-4.64,4.23-1.77-2.37,29.69.28,59.45-1.52,88.8l-.06.03c-1.08.22-2.48-1.66-2.62-2.84-.54-27.26.08-54.55-.26-81.85,0-.81.04-1.64.23-2.36ZM670.61,528.26c.99-3.05,5.14-.56,7.11.14,7.27,2.87,14.42,6.19,21.7,9.11,4.75,1.68,6.62,3.44,6.19,8.69-.21,6.4-.07,12.82-.05,19.55.04.87-.2,1.77-1.23,1.53-6.68-1.87-13.16-4.21-19.56-6.48-4.22-1.52-8.42-3.06-12.63-4.56-.47-.17-.96-.4-1.24-.78l-.05-.08c-.28-.41-.32-1.05-.31-1.59.07-8.57-.13-17.1.07-25.54ZM669.86,560.49c-.04-.51-.08-1.36.25-1.59l.05-.04c.35-.23,1.06,0,1.51.17,5.31,1.95,10.08,3.71,14.81,5.44.82.27,1.56.78,1.52,1.73-.58,3.56-.11,7.16-.45,10.76-.08.8-.47,1.61-1.38,1.55-3.84-.67-7.59-2.78-11.69-1.82-1.57.51.9,1.37,1.49,1.71,1.15.62,2.57,1.06,3.08,2.13.24.46.32,1.02.35,1.56.28,4.64-.31,9.46.7,14.15.08.37.25,1.02.54,1.11.16.05.34-.11.52-.43,2.01-4.34.71-9.22,1.18-13.77.17-2.1,1.7-1.96,3.45-1.23,2.13.94,5.15,1.46,4.92-1.81-.18-4.11-.24-8.16.02-12.33.04-1.26.69-1.75,1.9-1.32,3.64,1.21,7.18,2.38,10.75,3.6.84.29,1.48.87,1.58,1.8.15,11.87,0,23.78.05,36.13.01.62-.07,1.55-.63,1.73-11.59-2.28-22.66-7.23-33.89-10.83-.99-.37-1.5-1.08-1.55-2.12-.21-11.99,1.78-23.79.89-36.28ZM699.9,613.45l.06.08c.94,8.04.05,16.46.34,24.61.08.96-.33,2-1.41,1.77-1.52.19-5.56-3.05-6.28-1.03-1.22,6.94-.1,14.01-.55,20.88.08,1.3-.84,2.04-2.08,1.7-6.25-1.01-12.03-4.6-18.58-4.07-.96.05-1.7.35-.31.86,19.64,7.71,40.66,11.91,61.32,19.22.68,1-1.47,2.31-1.57,3.52-.87,7.48-.03,14.93-.33,22.68.28,4.04-7.54-.18-9.73-.55-18.97-6.15-38.21-11.58-57.39-17.02-1.8-.98-5.2-1.15-5.69-3.59-.13-7.3-.09-14.6-.01-21.9.11-2.53.13-5.78-2.84-6.6-4.04-1.13-7.87-2.36-11.9-3.92-1.16-.35-1.78-1.33-1.69-2.52,0-6.95,0-14.05,0-21.37,0-.48.04-1.21.39-1.45.33-.27,1.11,0,1.59.2,12.9,4.95,26.13,8.09,39.09,12.58,1.22.58,3.86.96,3.91-.85-13.2-7.5-29.53-9.22-43.56-15.46-.97-.4-1.47-1.18-1.48-2.21-.39-4.42-.04-8.85,1.03-13.2.05-1.06-.36-2.07-.62-3.08-.47-1.97-.15-4.36,1.15-5.99.5-.47,1.37-.35,2.05-.18,18.38,4.69,37.27,9.45,55.1,16.91ZM554.78,575.57c0-.61.1-1.3.46-1.74.21-.27.51-.48.85-.64,7.24-3.05,14.74-6.16,22.77-9.52.43-.18,1.11-.44,1.43-.21l.06.04c.31.25.33,1.04.33,1.53,0,6.63-.02,12.3,0,17.89.19,3.67-.68,4.95-4.21,5.99-4.24,1.44-8.36,3.26-12.51,4.94-.83.38-1.65.1-2-.72-.51-1.08-.97-1.66-2.07-1.89-.67-.15-1.67-.18-2.55-.18-1.36.02-2.4.17-2.53-1.2-.09-4.67,0-9.3-.03-14.28ZM530.15,585.9c-.02-.95.31-1.86,1.1-2.42,5.41-3.84,12.16-4.77,18.39-7.96.4-.21,1.01-.51,1.36-.37.41.14.52.83.57,1.29.49,5.04.11,9.82.15,14.58,0,.52-.02,1.09-.26,1.52l-.05.09c-.22.36-.61.65-1,.87-2.47,1.36-4.94,2.62-7.4,3.82-3.71,1.81-7.44,3.48-11.25,5.16-1.21.59-1.63.11-1.59-1.14,0-5.31,0-10.37,0-15.45ZM530.06,607.01c.18-.9.98-1.41,1.8-1.71,9.1-3.21,17.72-8.21,26.44-12.56l.07.03c1.56,1.56,1.58,4.79,4.55,4.09,6.25-1.71,12.23-4.39,18.28-6.7,2.35-.98,2.55-3.63,2.44-5.86-.11-6.51-.05-13.03-.03-19.86-.04-1.15.39-2.2,1.48-2.66,5.9-2.51,11.93-5.01,17.95-7.54,4.38-2.54,1.23,9.64,3.38,12.29.55.86,1.01-.26,1.19-.81,2.02-4.05-1.16-12.95,2.62-14.45,17.76-7.34,35.75-14.75,54.35-22.42,1.07-.45,1.69-.26,1.74.94.03,14.77.49,29.14-1.21,43.47-.11.98-.51,1.79-1.4,2.24-5.99,2.42-12.23,4.45-17.9,7.92-1.07.59-1.52,1.2.17.98,5.92-.63,11.17-3.61,16.98-5.45.84-.29,1.86-.41,2,.71.11,5.34.07,10.6.02,16-.13,2.51-5.49-.3-7.22-.35-5.37-1.05-10.78-3.32-16.18-3.83-10.26,1.57-19.8,6.6-29.5,10.13-1.31.6-2.84.78-4.1,1.27-.96.46-1.45-.05-1.52-.97-.8-3.19,1.26-10.83-1.75-12.45-8.5,2.61-16.7,6.27-24.4,10.3-1.44.64-1.27,2.16.41,2.21,6.86-2.11,13.37-5.62,20.13-8.06.53-.21,1.24-.43,1.73-.22.74.34.76,1.39.81,2.13-.03,3.5,1.12,8.19-2.34,10.24-9.68,2.84-18.61,7.1-28.37,10.64-.81.33-1.81.56-2.15-.44-1.05-4.77.47-9.91-1.32-14.38-2.57-1.52-1.68,13.46-2.02,15.19-.08,1.15-.72,2.07-1.81,2.48-11.33,4.05-22.87,9.65-34.75,13.13-.41-.25-.5-.97-.48-1.51,0-4.11,0-7.94,0-11.74-.03-1.07.48-1.97,1.51-2.35,9.58-3.57,19.05-7.48,28.46-11.63.56-.22,1.39-.75,1.18-1.35-.63-1.55-3-.69-4.19-.21-7.43,2.79-14.8,5.72-22.11,8.73-1.34.28-3.2,1.7-4.51.88-.98-1.88-.55-4.4-.43-6.49ZM610.14,661.6c8.84-3.09,17.41-5.48,26.23-9.1,2.41-.98,1.25,5.24,1.55,6.6-2.25,17.11-.56,34.65-.99,51.94-.03,1.89.22,4.25-.94,5.78-1.07,1.37-3.54,2.06-5.2,2.57-16.98,5.14-34.03,9.98-50.83,15.66-2.77.77-12.27,4.95-12.79.14.39-5.83-.88-12.04.62-17.61,2.8-2.67,7.22-2.64,10.56-4.32,2.4-1.15,3.03-4.1,4.91-5.8,1.82-1.61,4.28-2.08,6.57-2.69,7.63-1.97,15-4.86,22.48-7.31,4.71-1.81-.73-2.25-2.65-1.83-23.59,5.37-14.58,11.79-16.79-21.94.09-1.54-1.01-2.16-2.39-1.51-9.24,3.06-17.93,5.64-26.28,9.17-2.64.87-.7,2.84,1.28,2.22,7.44-2.39,14.67-4.9,22.35-7.29.57-.18,1.39-.39,1.75.11.79,7.43.03,15.05.29,22.67.03,1.03-.19,2.09-1.24,2.49-4.03,1.15-8.55,1.88-10.1,6.32-.4,1.38-1.11,2.74-2.62,3.05-8.4,2.34-16.61,4.62-25.34,7.04-1.27.5-2.09-.28-1.97-1.56,0-8.78,0-17.14,0-26.14,0-1.01.13-2.14,1.02-2.7,1.65-.96,3.98-1.05,5.95-2.14,1.67-.94.45-2.35-.99-2.39-1.07-.08-2.19.26-3.24.55-11.43,2.8-22.42,8.36-33.81,10.57-.71-.24-.95-1.12-.94-1.86.38-7.91-.8-16.27.47-24.19.34-.48.97-.77,1.55-.98,6.53-2.22,13.27-5.23,20.06-6.9,1.41-.1,2.74.9,4.17,1.01,4.12-.16,8.32-1.97,11.97.89,1.1.8,2.26,1.76,3.7,1.56,8.45-2.26,16.61-5.63,24.84-8.64,3.68-1.89,5.06-.68,8.5.47,1.41.21,2.84-.17,4.2-.61,6.3-2.5,13.08-4.08,19.1-7.15,2.65-2.04-.02-3.24-2.03-2.3-8.6,2.48-16.57,8.43-25.91,5.47-1.02-.28-2.12-.77-2.38-1.83-.42-1.48.81-5.78-1.97-5.56-5.09,2.29,1.85,8.19-3.99,9.67-6.13,2.2-12.26,4.33-18.42,6.47-1.09.35-2.26.7-3.38.45-1.44-.29-2.59-2.01-3.99-2.64-3.22-1.66-6.94,1.67-10.15.21l-.06-.06c-.36-.36-.42-1.09-.41-1.64.35-7.68-.72-15.6.43-23.13,30.05-12.97,61.47-24.38,92.36-35.81,2.91-1.13,2.81,2.35,2.68,4.32-2.1,59.65,10.7,41.99-28.08,57.3-5.17,1.9-6.86,5.04.29,2.97ZM472.04,661.55c-.05-.48-.1-1.04.03-1.47.16-.62.68-1.02,1.4-1.3,8.73-3.28,17.48-6.41,26.19-9.63,12.82-4.72,25.58-9.66,38.24-15.3,1.35-.58,1.49.48,1.49,1.51,0,6.56,0,12.76,0,19.04.05,1.13-.41,2.14-1.49,2.59-7.8,3.43-17.11,4.48-23.79,9.73-.45.57-.58,1.37-.59,2.11-.01,7.16,0,13.82,0,20.68.05,1.11-.38,2.11-1.46,2.51-8.49,3.15-17.34,5.94-26.37,9.69-.49.21-1.26.51-1.65.29-.46-.23-.49-1.05-.48-1.6.5-25.9-3.47-16.34,13.72-24.85,1.87-.99,1.06-2.51-.9-2.2-7.78,2.28-15.23,5.14-23.14,8-.49.19-1.23.45-1.62.21l-.06-.04c-.35-.25-.43-.95-.43-1.44-.16-6.32,1.63-12.28.92-18.51ZM455.02,669.03c0-.41.01-.95.23-1.24.25-.36.78-.34,1.2-.26,3.03.58,6.05,1.17,9.25,1.79.43.08.9.24,1.18.55l.06.08c.62.96.31,2.73.39,3.96.26,9.85-3.02,11.08-10.88,13.86-1.16.45-1.45.05-1.43-1.14,0-5.86,0-11.67,0-17.59ZM434.09,675.04c0-.44.06-.94.28-1.3l.05-.08c.24-.36.69-.57,1.11-.72,4.25-1.48,8.58-3,13.29-4.64.44-.15,1.1-.34,1.42-.04.3.25.32.93.31,1.39,0,6.55.06,12.78-.03,19.01.16,2.64-1.49,4.2-3.79,5.12-3.66,1.65-7.25,3.35-11.03,5.13-1.04.54-1.64.38-1.61-.86,0-4.61,0-9.19,0-13.89,0-2.98,0-6.02,0-9.13ZM434.53,746.91c-.55-.61-.67-1.54-.68-2.37-.02-4.61,0-9.21,0-13.85-.13-1.34.73-2.35,1.99-2.65,5.91-1.95,11.71-3.93,17.67-5.87,4.28-1.27.64,11.84,3.32,14.52,1.3,2.45,3.21.5,2.3-1.58-1.95-2.88,2.33-18.96-1.63-17.59-7.2,2.42-14.43,4.84-21.84,7.33-.53.13-1.6.7-1.56-.08,0-2.96-.01-19.3,0-21.92,0-.59,1.1-.96,1.75-1.24,14.41-5.91,28.36-14.85,43.99-20.3.49.16.54.99.55,1.53.01,6.01.06,11.53-.04,16.99.65,2.97-4.08,4.89-1.66,5.44,2.34.26,4.55-.45,6.71-1.24,8.5-3.16,17.09-6.16,25.82-9.25,2.38-1.07,3.9,2.04,6.11,2.09,2.18.36,4.52-.48,6.57-1.21,6.27-2.23,12.64-4.29,19.18-6.31,1.17-.32,1.38.74,1.35,1.66,0,7-.03,13.79.03,20.57,1.11,13.31,6.83,8.93,16.31,6.71,1.12-.28,2.46-.78,2.93-.17.8,2.27.13,5.06.33,7.41.03,7.78-1.61,17.27,9.73,13.74,12.14-2.92,23.91-8.15,36.04-10.57.44.21.58.94.6,1.47.37,6.31-.27,12.57.74,18.69.09.39.19,1.08.58,1.12,3.25-2.69.97-9.09,1.73-12.95.36-2.92-.68-6.52.42-9.39,6.26-3.08,13.56-4.38,20.21-6.83.35-.05,2.33-.96,2-.16-.25,4.59.45,43.28-.21,46.85-1.76.68-4.23-.92-6-1.66-6.37-2.17-12.94-3.68-19.63-4.16-6.92-.27-13.9.16-20.82-.07-1.4.14-2.89-.12-4.01-.78l-.09-.03c-9.76-.35-19.78-.43-29.28-3.26-4-1.66-7.72-4.47-12.01-5.6-3.13-1.03-6.35-1.43-9.62-1.74-9.89-1.18-17.83-6.7-26.16-11.31-9.22-5.66-20.2-2.1-29.99.07-7.82,1.45-14.52,5.97-21.85,8.77-2.87.88-5.25,2.81-8.24,3.52-4.81.7-9.5-2.2-13.64-4.35ZM829.62,820.15c-1.76.13-3.44,0-5.14-.41-8.86-2.24-17.11.35-24.96,4.26-3.33,1.3-6.96,1.18-10.45.55-6.15-1.01-12.54-.51-18.62,1.35-3.87,1.08-7.84,1.64-11.79,2.43-2.07.32-4.08,1.22-6.18.92-1.88-.32-3.67-1.49-5.4-2.38-2.72-1.45-5.41-2.97-8.09-4.51-2.72-1.55-5.43-3.1-8.2-4.56-11.8-6.43-25.11-9.08-37.62-13.71-5.45-1.88-10.77-3.78-16.42-5.07-.97-.2-2.01-.28-2.73.11-.71.37-.76,1.16-.12,1.74.85.75,2.01,1.08,3.08,1.45,9.14,2.95,18.27,6.07,27.43,9,12.71,3.7,25.06,8.53,36.26,15.56,1.3.82,2.51,1.44,3.86,2.18.51.31.78.65.66.99-1.2,1.74-4.1,1.15-6.13,1.36-2.41.19-4.79.69-7.17,1.06-5.77.98-11.79.31-17.53,1.71-1.19.29-2.39.46-3.62.39-8.9-.55-17.73,1.11-26.62,1.22-3.08.03-6.16.28-9.19.86-8.97,1.28-13.91,7.22-22.72,1.43-15.1-11.79-32.87-19.21-51.99-20.86-4.46-.5-8.93-.91-13.36-1.64-6.39-.95-12.68-3.09-17.38-7.71-6.28-6.85-14.87-10.17-23.64-12.39-14.8-3.86-27.64-12.09-41.73-17.68-6.77-2.79-13.64-5.32-20.58-7.65-6.36-2.06-12.67-4.21-18.69-7.12-4.5-2.13-8.88-4.57-13.15-7.37-.35-.23-.86-.58-1.01-.9-.09-.19-.03-.36.17-.52.24-.19.66-.35,1.01-.46,6.33-1.99,11.75-5.53,17.8-8.18,6.67-2.69,13.6-.57,17.82,5.42,1.16,1.67,2.12,3.48,3.29,5.12,3.96,5.67,9.09,10.25,14.75,14.51.47.35,1.14.78,1.64.42.53-.37.53-1.67.1-2.47-.46-.9-1.26-1.51-2.08-2.11-1.78-1.24-3.72-2.75-5.29-4.3-6.48-5.88-8.82-14.73-17.12-19-.42-.25-1.31-.62-1.21-1.03.17-.25.81-.42,1.22-.5,3.75-.83,7.09-1.68,10.52-2.07,4.74-.7,9.49.69,13.43,3.43,5.77,3.53,12.17,6,18.25,9.1,1.16.57,2.37,1.08,3.61,1.43,2.98.9,6.03.95,9.09,1.31,6.12.82,11.25,4.09,16.88,6,2.2.51,2.72,2.77,3.94,4.47,1.4,1.92,3.38,3.28,5.49,4.33,18.45,8.34,36.46,17.57,55.71,24.08,5.08,1.71,9.88,3.82,14.71,6.22,1.54.69,1.97-.93,1.2-2.1-1.7-2.07-4.57-2.87-6.84-4.06-12.19-5.11-24.77-9.28-36.75-14.9-9.98-4.53-20.02-9.09-29.48-14.7-2.19-1.27,1.69-1.02,3.22-.98,9.41,1.61,18.93,2.18,28.47,2.18,3.22-.03,6.44-.14,9.66-.13,17.84.13,34.26,7.66,49.94,15.43,7.53,3.82,15.88,5.25,23.88,7.7,2.83.86,5.62,1.82,8.37,2.92.83.31,1.69.66,2.58.59.88-.05,1.81-.72,1.76-1.33v-.07c-.06-.48-.75-.9-1.25-1.12-11.49-5.64-24.92-6.78-36.86-13.13-.46-.33-.19-.5.61-.55,8.5-.19,16.46-.64,24.06,2.1,2.42.91,4.89,1.6,7.5,1.81,11.77.2,23.58,0,35.24,1.67,5.23.78,10.38,2.17,15.47,3.61,9.6,2.61,19.46,4.21,28.91,7.39,6.32,2.03,12.79,3.51,18.7,6.74,2.55,1.36,5.21,2.54,7.99,3.33,4.07,1.34,8.53,1.17,12.68,1.38,3.2.32,6.29,1.43,9.11,2.97,6.15,3.33,11.63,7.61,17.36,11.97.33.25.94.72.97,1.02.05.29-.5.41-1.28.45ZM825.99,810.67c8.68.55,17.04,2.99,25.22,4.21.58.09,1.24.27,1.6.71.59.68.51,2.33,0,2.98l-.06.06c-.21.21-.5.3-.83.32-7.6-.09-20.12-3.36-25.92-8.28ZM555.78,1012.51c-.53-.35-1.18-.95-.88-1.54.13-.3.4-.59.66-.83,2.21-2.07,4.37-4.11,6.71-6.3.4-.37.88-.73,1.39-.85.53-.14,1.12,0,1.64.19,7.2,2.55,14.88,5.07,21.92,9.27,7.16,4.16,12.05,9.03,7.19,17.71-.28.57-.71,1.28-1.22,1.54l-.09.05c-.38.17-.8.12-1.25-.04-12.5-5.21-24.65-11.28-36.06-19.21ZM447.49,947.98c.3-.07.72-.02,1.07.05,2.36.46,4.63.76,6.8,1.06,6.6.8,14.21,2.48,16.79,9.48,1.38,3.63,2.37,7.39,3.34,11.13,1.7,7.5,4.68,15.22-2.18,21.08-3.44,2.82-8.87,5.59-12.85,2.19l-.08-.09c-4.92-13.92-8.46-28.49-13.1-43.29-.17-.54-.42-1.49.21-1.61ZM374.85,980.84c-2.7-4.65-5.07-9.31-7.43-14.61-1.43-3.12-2.45-6.97-2.79-11.01.46.01,1.19-.44,1.8-.87,3.04-2.09,5.93-6.11,10.03-4.21,5.06,2.19,8.31,14.91,8.82,19.61.04,1.15-.03,1.91-.24,3.28-.51,3.82-2.33,6.15-5.01,7.31-.78.44-1.53.99-2.35,1.39-.71.37-1.52.57-1.77.87-.38-.62-.73-1.21-1.04-1.76ZM420.84,1036.5c-4.17-3.75-8.55-7.25-12.89-10.81-5.61-4.58-9.76-10.61-13.92-16.47-4.36-6.09-8.87-12.09-12.79-18.48-.59-.77-1.09-2.17-1.96-2.7-.64-1.04-1.36-2.18-2.07-3.32,2.6,1.52,5.91-3.7,7.01-6.12,5.36-10.4,1.87-19.83-4.39-28.59l-.07-.09c-2.94-3.85-9.5-.77-14.36,2.88-.26.22-.6.56-.86.93-.1-2.37.03-4.78.46-7.13,1.48-7.52,6.74-9.05,13.19-6.25h0c.27.29.63.51,1.04.64,3.87,1.12,9.33,1.84,10.56,6.39,4.42,12.42,7.68,25.23,11.87,37.73,5.68,17.05,12.96,33.47,20.2,49.87.51,1.17,1.03,2.99-1.02,1.5ZM388.03,929.75l.04-.06c.19-.3.84-.36,1.26-.36,5.11-.08,9.66,1.36,14.29,1.15,1.27-.06,2.56-.07,3.63.75.72.52,1.27,1.37,1.7,2.18,1.25,2.55,2.57,4.96,3.93,7.43,3.67,6.45,6.85,13.86,6.17,21.39-.44,4.02-2.2,8.79-6,10.78-3.22,1.48-7.5.45-10.31-1.68-1.41-1.08-2.29-3.09-2.7-4.86-2.75-10.67-6.59-20.95-10.84-31.09-.69-1.47-.68-3.04-1.1-4.59-.09-.34-.21-.74-.06-1.06ZM544.36,1120.91c-.08.23-.62.34-1.31.39-5.01.37-9.73-1.24-14.46-2.53-24.77-6.39-37.94-15.81-56.93-32.32-13.81-11.18-27.86-22.72-37.52-37.85-11.73-20.39-20.78-42.21-28.28-64.45-.21-1.29-5.45-10.7-1.1-8.54,3.38,1.58,6.75,1.85,9.75-.04,3.8-2.45,6.62-6.11,7.62-10.64.6-2.73.54-5.67.27-8.44-1-9.43-5.65-17.49-10.62-25.45-1.02-1.72-2.48-3.21-4.42-3.82-5.9-1.56-12.23-.59-18.25-.91-1.06-.13-1.4-1.05-1.4-2.02-.17-6.64,4.59-11.95,10.91-13.41,20.69-4.89,35.67,7.55,46.25,23.95.94,1.9-.56,3.73-1.32,5.66-1.01,2.49-1.25,5.05-.94,7.66.21,1.81.74,3.66,1.31,5.41,6.01,18.49,11.36,37.16,16.34,55.95,3.39,11.71,10.31,21.76,15.94,32.46,7.12,14.67,14.79,29.42,25.98,41.41,5.33,5.75,11.16,11.04,16.78,16.49,7.53,7.22,15.65,13.81,24.7,20.16.45.33.75.63.71.83v.04ZM847.65,1187.48c0,5.08-.07,10.18-.91,15.2-1.1,7.56,0,15.11-1.05,22.62-1.8,14.68.11,29.46-1.04,44.09-.41.88-1.23.58-2.03-.03-25.82-21.13-52.63-40.98-77.63-63.13-14.66-12.37-31.61-21.64-47.58-32.16-2.1-1.15-3.64-2.98-5.35-4.64-.54-.59-.1-.7.88-.71,16.53.29,33.1.18,49.2-3.94,4.76-1.01,9.49-2.15,14.32-2.8,1.25-.14,18.63-1.1,12.71-3.97-4.62-1.55-8.81.07-13.33.4-9.08,1.11-18.02,3.14-27.01,4.77-16.5,3.21-33.23.98-49.8.1-23.94-3.3-46.81-11.75-70.13-17.85-16.78-4.25-33.41-8.95-49.82-14.46-27.69-7.18-47.24-22.91-67.23-42.56-14.3-13.65-23.43-31.02-32.39-48.4-4.24-8.14-9.29-15.91-12.9-24.37-1.82-4.65-3.02-9.52-4.41-14.31-.43-1.42-.96-3.62.99-4.02.79-.17,1.72-.17,2.55-.22,9.63.3,16.74-10.09,15.61-19.44-1.05-5.85-2.93-11.48-4.55-17.2-1.54-6.27-5.69-11.08-11.12-13.1-5.21-2.21-11.12-2.62-16.58-2.69-.64,0-1.5-.13-1.74-.61.57-11.52,14.36-17.02,24.58-15.93,21.53,3.73,35.77,21.47,42.67,41.06,5.83,15.1,12.05,30.33,15.39,46.2.09,1.06.64,3.4,2.1,2.52.71-.47.9-2.03,1.46-2.33.52-.25.95.15,1.36.51,7.2,7.2,14.91,13.86,21.07,21.94,4.03,5.3,7.3,11.12,8.8,17.66.39,1.72.73,3.4,1.69,4.92.59,1.19,1.74,1.24,2.03-.03,1.64-2.16-4.06-11.41.63-10.05,11.74,5.42,24.28,9.21,35.14,16.4,9.93,6.9,16.43,17.72,16.6,30.11.3,5.26-.3,10.61.22,15.81.59,1.94,2.62,1.21,3.03-.48.91-3.93.47-8.11.8-12.15,1.26-13.91-7.1-25.79-15.67-35.66-13.06-7.76-27.81-12.97-41.77-19.01-1.76-.59-3.48-1.11-4.14-3.04-2.08-4.99-5.96-8.55-9.14-12.55-.52-2.33,2.65-1.69,4.08-1.32,7.21,1.7,14.64,1.23,21.94,2.03,7.03,2.34,13.34,6.49,20.23,9.26,9.04,4.63,19.73,5.86,27.37,12.96,29.17,20.1,58.77,39.69,88.21,59.45,22.36,14.36,49.52,17.51,75.46,15.97,9.72-.29,19.02,1.42,28.02,4.77,9.65,3.8,20.26,6.68,29.09,12.67l.06.09c1.68,13.71-1.39,27.94-.97,41.66ZM1233.53,946.73c-1.16,37.04-4.83,74.01-5.96,111.05-.25,2.76-.61,5.67-1.59,8.35-1.43,2.24-3.65-.3-5.67-.64-8.66-3.11-18.05-5.4-27.25-4.76-18.63,1.59-36.18,9.48-52.86,17.51-42.86,20.66-82.87,46.43-124.15,69.95-10.04,5.95-19.28,13.35-29.93,18.28-30.95,14.89-61.58,8.67-92.45-2.5-25.12-8.96-46.1-26.51-71.57-34.68-.79-1.59,3.96-.83,5.1-.94,15.45,1.9,30.58,5.36,45.7,9.13,16.07,3.95,31.59,9.77,47.29,14.94,10.68,3.73,21.62,7.87,33.14,7.03,8.38-.51,16.08-4.19,23.83-6.9,1.24-.38,3.21-1.17,2.89-2.68-.42-1.34-2.05-.85-3.09-.54-5.71,1.72-11.45,3.49-17.22,5.02-20.21,5.24-50.15-11.63-71.01-16.66-25.82-7.15-52.35-14.82-79.38-13.24-26.15-.32-53.48,2.32-77.96-8.85-32.07-16.43-60.42-39.09-90.57-58.66-.33-.24-.64-.52-.74-.86-.09-.44.58-.6,1.42-.28.77.28,1.45.75,2.2,1.09l.1.05c20.66,7.17,40.86,16.13,60.15,26.52,11.43,6.28,22.35,13.67,34.85,17.61,8.63,3.32,17.98,3.26,26.98,3.39,7.85,1.3,15.76,1.34,23.68,1.4,5.39.06,10.67,1.22,16.03,1.15,4.89.15,9.82-.93,14.7-1.43,3.64-.22,7.4.21,11.09.1,30.89-1.56,63.11-4.04,92.44,7.92,7.53,3.22,14.83,6.9,22.68,9.29,11.05,3.71,23.92,3.61,33.39-3.93,20.72-13.59,40.1-29.53,62.43-40.46.91-.46,2.4-1.17,2.5-2.06-1.53-5.55-38.82,20.07-43.43,23.28-5.58,3.81-11.24,7.49-16.82,11.29-5.6,3.8-11.26,8.57-18.1,9.7-19.66,2.88-38.78-12.42-57.82-16.26-22.64-5.32-46.19-4.29-69.16-3.42-19.38.76-38.8.86-58.19.41-19.85.06-39.88-1.01-57.33-11.55-35.97-21.57-75.46-36.36-114.79-50.54-3.81-1.39-7.51-3.29-11.06-5.1-1.79-1.7.42-4.22,1.01-6.2,5.47-17.08-20.33-24.09-32.04-27.84-4.14-1.59-7.17,2.1-9.8,4.78-1.4,1.11-3.2,4.63-5.02,2.36-4.05-5.2-3.85-14.48.51-20.95,6.11-7.99,16.52-13.33,26.81-11.39,2.77.62,4.01,3.51,6.17,5.04,13.88,9.49,29.02,16.97,43.25,25.93,18.55,11.58,40.07,16.78,60.37,24.42,26.7,10.2,53.02,21.73,81.17,27.49,14.96,3,30.21,3.02,45.36,2.32,9.59.57,19.16.45,28.7-.45,20.02.07,39.93-2.36,59.91-1.37,9.45.04,18.69,2.66,27.9,4.5,13.01,2.68,26.02,5.14,38.97,8.19,13.6,3.12,25.76-3.92,37.24-10.16,20.47-11.07,42.36-19.2,63.42-29.02,1.86-.71,9.79-5.12,3.33-4.49-20.47,9.13-41.27,17.7-61.87,26.53-34.72,22.11-39.83,11.82-76.4,5.56-8.49-1.81-16.98-3.71-25.55-5.08-6.22-.16-12.56-.41-18.68-1.41-18.06,2.16-36.58.85-54.83,2.37-24.57.21-49.61,3.45-73.6-3.38-33.21-7.85-63.69-23.24-96.06-33.62-13.72-4.67-28.76-10.21-40.67-18.16-2.06-1.3.48-2.38,1.59-3.53,8.02-9.05,8.8-24.43-3.5-30.27-8.29-4.31-18.51-8.63-27.86-4.98-3.52,3.44-7.66,5.76-10.68,10.19-.54.85-1.32,1.66-2.03.43-5.02-10.06,1.69-21.92,10.93-26.53,5.99-3.01,12.96-3.85,19.6-4.05,19.26-.35,38.64,3.7,55.46,13.36,4.01,2.04,7.85,4.54,11.92,6.4.54.22,1.64.4,1.64-.45.08-.83-1.19-2.25-1.14-2.95.18-.84,1.27-.43,1.93-.3,5.31,1.31,10.93-.19,16.24,1.36,11.59.31,23.18,1.05,34.71,2.46,18.17,1.67,36.02,5.71,53.23,11.98,3.81,1.17,5.7,4.64,7.15,8.03.32.46.85.56,1.21.17,1.14-.89,0-3.76.82-5.01,3.48-1.64,7.9-1.37,11.66-2.51,13.22-3.1,26.45-5.97,39.93-7.59,9.62-1.51,19.44-1.25,29.04-2.93,18.08-.13,36.18-2.35,52.86-9.78,31.03-14.46,66.01-14.69,98.5-24.2.84.11,6.74-3.9,2.91-3.45-22.54,4.64-42.58,8.36-65.12,11.95-1.92.38-2.16.04-.52-1.24,6.98-6.26,13.29-12.42,19.22-19.47,2.81-3.24,4.39-7.27,7.01-10.63,1.76-1.98,4.29-2.65,6.8-3.15,20.52-4.14,41.32-1.99,61.78.96,1.39-.06,18.83,1.09,14.01-2.48-7.5-1.49-15.26-.9-22.79-2.38-11.71-2.46-23.67-2.22-35.58-2.17-24.51.56-47.78,9.46-71.16,15.86-24.34,5.61-49.49,11.37-74.56,9.49-18.64-1.7-39.95-2.91-54.58-15.91-4.91-5.1-7.61-12.15-9.02-18.95-6.22-28.51,11.63-53.2,39.58-59.63,8.26-1.85,16.61-2.95,24.98-4.08,9.57-1.17,19.17-3.09,28.79-3.37,11.63.1,23.22,1.41,34.7,3.39,7.12,0,13.87-3.19,20.91-4.07,21.29-3.42,42.44-9.02,60.42-21.22,5.4-3.32,11.1-6.17,16.61-9.32,7.77-4.35,14.73-9.99,22.93-13.62,5.95-2.66,11.94-5.29,18.05-7.56,26.96-12.02,50.08-2.22,70.49,16.94,21.69,20,46.49,36.12,69.18,54.91,9.68,8.04,15.64,20.17,16.73,32.72,2.03,24.57.35,49.08.93,73.65ZM588.07,974.58c2.63-4.68,7.1-7.13,11.03-10.17,2.75-2.38,4.73-.77,7.73-.15,7.2.53,14.14,3.01,19.95,7.34,4.58,3.34,5.58,8.86,4.16,13.99-.93,4.07-3.11,9.77-7.33,11.47h-.11c-.52.07-1.06-.11-1.54-.33-4.51-2.03-8.88-4.32-13.15-6.77-6.88-3.94-13.51-8.28-20.16-12.64-1.1-.62-1.24-1.71-.58-2.75Z"/>
        <path class="cls-1" d="M376.79,840.11c-.48.37-.74,1.05-.59,1.64l.03.08c.12.37.48.76.83,1.03,1.27.97,2.58,1.98,3.87,2.94,3.81,2.76,8.15,5.39,12.73,6.02,2.06.32,4.18.04,6.22-.38,3.47-.66,6.86-.35,10.27-.5.94-.03,1.93-.05,2.83.25,1.24.38,2.08,1.36,2.84,2.35,2.61,3.29,5.9,5.89,8.58,9.1,2.88,2.99,6.53,4.46,10.43,5.63,1.15.35,2.92.6,3.67-.47.81-1.88-2.87-2.55-4.16-3.23-.99-.41-1.95-.86-2.9-1.32-2.97-1.46-5.71-3.26-7.92-6.23-.86-1.15-1.7-2.35-2.64-3.43-5.14-6-11.64-8.41-19.59-6.34-7.05,2.53-14.43-.85-19.97-5.43-1.17-.71-3.18-2.56-4.54-1.73Z"/>
        <path class="cls-1" d="M1128.69,1462.41c-7.69-27.45-17.37-54.33-23.46-82.21-8.63-38.72-14.57-77.93-21.64-116.94-5.91-33.55-11.99-67.1-16.8-100.83-1.04-7.23-2.13-14.53-3.06-21.79-.24-2.13.43-5.98-2.03-6.92h-.09c-1.42.18-1.53,2.31-1.36,3.59.35,2.95.53,5.93.86,8.85.96,6.34,1.79,12.7,2.52,19.06,4.03,31.11,9.68,62,15.17,92.89,9.53,50.4,15.96,101.63,30.27,150.98,3.73,12.72,8,25.27,11.93,37.92,2.29,7.8,5.16,15.47,6.92,23.41.31,1.11.77,3.11,1.98,3.25.41,0,.71-.28.91-.69.36-.84.16-1.78-.04-2.67-.65-2.66-1.37-5.27-2.08-7.9Z"/>
        <path class="cls-1" d="M1027.11,1427.35c-.42-6.01-1.65-11.85-2.36-17.82-1.14-8.59-2.08-17.22-3.47-25.78-3.56-22.06-7.77-43.99-11.65-66-3.7-17.72-6.99-35.53-10.29-53.33-1.55-9.67-3.25-19.31-4.85-28.98-1.31-9.06-2.52-18.08-4.29-27.06-1.63-7.97-1.96-16.2-3.42-24.19-.35-1.64-.39-3.21-.6-4.9-.15-1.13-.8-3.04-1.9-3.13h-.09c-.88.09-1.33,1.29-1.5,2.24-.31,2.73,1.17,5.24,1.31,7.98,1.1,11.52,2.79,23.02,4.52,34.45,1.38,8.09,2.42,16.2,3.67,24.31,4.36,26.59,10.01,52.93,14.59,79.5,7.58,37.98,14.12,76.21,18.15,114.75.18,1.5.21,3.01.37,4.53.1.82.42,1.67,1.03,1.9.86.32,1.52-.57,1.66-1.35.69-3.51-.29-7.2-.68-10.7-.2-2.11-.03-4.28-.2-6.43Z"/>
        <path class="cls-1" d="M1137.05,1240.71c1.63-.38,1.4-2.84,1.39-4.26-.08-4.07-.68-8.16-.77-12.18-.08-8.08-1.81-16.08-1.32-24.16.04-.98-.03-1.95-.23-2.91-.7-3.07-1-6.19-1.11-9.33.02-12.31-2-24.52-2.12-36.85-.1-2.94-.34-5.88-.87-8.77-1.5-8.52-1.78-17.17-2.65-25.72-.35-3.42-.96-6.83-1.27-10.26-.2-2.13-.23-4.26-.07-6.43.19-1.71-.38-3.01-1.68-4.09-.13-.13-.27-.23-.41-.26-.11,0-.16.13-.19.24-.88,3.57-.53,7.71-.36,11.43,1.1,14.17,2.46,28.33,3.67,42.49,1.03,9.79,1.79,19.62,2.31,29.43.51,6.42,1.61,12.81,1.1,19.27-.2,2.03.56,3.95.87,5.95.43,2.6.52,5.24.59,7.87-.03,8.55,2.33,16.93,1.73,25.55-.09,1.08.05,2.89,1.29,2.99h.08Z"/>
        <path class="cls-1" d="M1138.84,1242.36c.11-.46-.11-.9-.62-.94-.77-.04-1.28.59-1.01,1.31.6,2.51-2.36,6.33.75,8.21h.11c.23-.01.45-.23.6-.41,2.15-2.61-.56-5.58.17-8.18Z"/>
        <path class="cls-1" d="M581.14,899.96c-4.22,1.65-8.58,3.09-12.42,5.57-1.29.9-2.95,1.28-4.23.2-3.98-3.09-8.7-5.56-13-8.23-15.16-10.01-30.88-18.98-48.23-24.68-4.85-1.4-7.64-5.66-10.29-9.64-8.41-12.32-16.21-10.08-28.65-14.29-5.25-1.81-9.98-5.04-13.17-9.63-3.54-4.74-6.84-9.77-10.34-14.47-3.29-4.72-7.51-9.03-13.6-9.52-7.69-.69-14.92-4.09-22.32-6.67-6.63-2.27-13.25-4.65-19.21-8.21-.81-.51-1.92-.96-2.62-.11-.48.58-.26,1.5.33,2.02,1.41,1.27,3.16,2.11,4.79,3.05,2.77,1.51,5.66,2.78,8.61,3.89,9.14,3.44,18.09,7.51,27.78,9.15,2.75.42,5.75,1.01,8.11,2.48,3.06,1.71,5.1,4.98,6.64,8.12,2.25,4.17,5.64,7.73,8.4,11.39,1.18,1.55,2.36,3.1,3.7,4.52,5.15,5.34,12.58,7.54,19.35,9.96,4.15,1.46,8.75.88,12.59,3.35,7.95,4.89,8.89,14.55,18.09,17.7,4.55,1.88,9.13,3.69,13.66,5.61,15.52,6.17,29.28,15.89,43.43,24.51,3.99,2.46,7.93,5.04,11.44,8.16,4.09,3.73,8.41,7.25,12.59,10.8.38.33.87.67,1.32.75.62.15,1.23-.28,1.29-.92.26-2.76-12.52-12.51-15.26-15.12-.4-.34-.96-.93-.76-1.4.1-.28.43-.52.88-.74,12.29-5.18,25.48-8.34,36.59-16.05,2.96-2.48,6.05-3.05,9.68-1.68,11.61,4.08,34.77,7.53,42.96,15.47.78.79,1.48,1.68,2.15,2.57,4.09,5.64,9.43,10.03,14.17,15.03,2.31,2.58,5.27,4.19,8.19,6.06.49.32,1.28.66,1.64.19.41-.44.28-1.62-.19-2.34-.7-1.13-1.95-1.81-3.06-2.55-3.96-2.56-7.63-5.57-10.47-9.29-.79-1-1.59-2.01-2.44-2.97-2.97-3.37-6.28-6.36-9.28-9.69-2.15-2.51-4.93-4.41-8.06-5.46-9.01-3.05-18.03-6.67-27.51-8.02-.92-.14-2.78-.92-2.63-1.89.05-.51.82-.84,1.31-1.03,4.85-1.64,9.02-3.87,10.85-8.66.38-1.02.93-2.3,2.18-2.28,1.54.07,2.89,1.11,4.27,1.77,8.54,4.41,16.86,9.37,26.36,11.67,8.86,1.99,16.29,7.54,22.47,13.99,3.61,3.63,7.87,6.3,12.8,7.72,6.23,1.99,12.45,3.98,19.18,2.41,3.57-1.11,6.89-.23,9.51,2.49,3.11,3.16,6.24,6.29,9.75,8.96,9.03,6.55,18.85,11.98,28.57,17.45,3.27,1.81,6.81,3.31,9.64,5.81,2.25,1.83,3.39,4.65,5.27,6.86,2.16,2.6,5.13,4.29,8.46,4.7,2.92.42,6.11-.46,8.74.9,3.15,1.58,5,4.92,8.26,6.38.73.33,1.39.21,1.61-.35.31-1.14-.5-2.28-1.29-3.21-3.69-4.85-8.85-7.57-15.02-7.53-2.33.03-4.97-.14-6.91-1.44-3.12-1.83-3.81-5.87-6.38-8.25-1.08-1.1-2.32-2.01-3.62-2.83-6.92-4.28-14.03-8.32-21.13-12.33-8.01-4.25-15.55-9.11-21.73-15.82-3.97-3.61-8.96-5.53-14.37-5.32-14.49,1.35-26.8-4.74-36.41-15.52-3.9-3.51-8.68-5.75-13.58-7.52-7.44-2.71-15.21-4.6-22.03-8.9-4-2.67-8.56-5.88-13.5-5.93-5.2.13-3.79,7.47-8.64,9.45-1.32.67-2.79,1.06-4.2,1.5-2.31.68-4.44,1.88-6.81,2.43-2.49.64-5.08.98-7.45,2.02-.97.43-1.89.99-2.77,1.59-4.59,3.2-9.48,5.72-14.84,7.57-1.39.58-2.59.21-3.33-1.22-.98-1.59-2.01-3.29-2.97-4.92-3.53-5.95-7.07-11.88-12.17-16.66-1.67-1.58-3.16-3.32-4.39-5.25-2.35-3.52-4.03-7.39-5.53-11.31-.53-1.28-1.1-2.55-1.8-3.77-.49-.87-1.07-1.76-1.71-1.82-1.18-.05-1.23,1.67-1.06,2.56.75,4.21,3.32,7.81,5.09,11.93.21.49.42,1.17.09,1.58l-.05.06c-.35.38-1.11.46-1.67.48-4.39.11-7.5-.73-9.86-2.78-3.19-2.7-4.45-7.37-6.06-11.13-2.18-5.58-6.6-9.88-9.61-14.91-1.24-2.45-3.01-4.81-5.77-5.55-3.43-.9-7.08-1.34-10.14-3.24-3.48-1.84-5.96-4.81-9.2-6.93-5.28-2.94-11.08-4.85-16.94-6.19-4.55-.86-8.77-1.77-10.95-6.34-4.79-8.45-13.02-12.58-21.26-16.82-4.28-2.37-8.26-5.23-12.2-8.13-7.61-5.67-15.51-10.79-25.26-11.22-2.27-.07-4.8-.03-6.4-1.9-4.26-6.81-7.62-4.8-14.8-5.99-2.36-.46-5.39-1.06-5.64-3.92-.41-3.29,1.34-6.41.71-9.72-.23-1.17-.79-1.54-1.57-.24-1.29,2.37-1.87,4.95-2.43,7.35-.35,1.56-.99,3.13-.21,4.61,1.9,3.27,5.39,5.43,9.11,5.39,2.91.18,5.79,1.12,8.62,1.23.7.03,1.42.27,1.92.76.99.99,1.31,2.41,2.27,3.34,1.2,1.32,3.25,1.55,5,1.93,7.74,1.35,15.7,3.08,22.06,8.03,7.41,5.33,14.8,10.7,23.08,14.77,2.94,1.43,5.95,2.86,8.43,5.03,2.46,1.97,3.68,4.99,5.55,7.48,1.47,1.94,3.27,3.62,5.32,4.92,3.05,1.98,6.82,3.1,10.45,3.78,5.69,1.11,11.11,2.84,15.86,6.29,1.7,1.2,3.19,2.72,4.73,4.11,2.7,2.45,6.55,3.94,10.35,4.34,2.86.18,5.07,1.48,6.46,4.02,3.46,5.36,7.94,10.07,9.91,16.39,1.25,4.2,2.21,9.23,6.5,11.36,4.6,2.65,9.59,4.73,14.92,3.75,1.29-.23,2.56.16,3.52,1.07,7.42,6.55,11.15,15.67,16.82,23.23.46.6.96,1.41.74,2.12-.57,1.41-2.42,1.79-3.71,2.36Z"/>
        <path class="cls-1" d="M720.86,886.13c-9.03-1.89-17.41-4.85-24.24-10.89-3.44-2.98-5.92-6.9-9.54-9.59-3.6-3.2-21.89-16.3-25.8-11.56-.31.52.03,1.09.74,1.48,11.35,3.97,22.03,9.92,29.83,19.42,6.21,8.21,16.03,11.55,25.78,14.02,3.2.84,6.41,1.96,8.93,4.16,7.6,7.34,16.4,13.08,25.06,19.01.75.51,1.55,1.12,2.43,1.33.81.2,1.7-.22,1.76-.97v-.09c.02-.5-.38-1.02-.88-1.5-.99-.98-2.08-1.8-3.24-2.57-9.71-6.23-18.51-13.62-27.32-20.98-1.06-.62-2.28-.99-3.49-1.28Z"/>
        <path class="cls-1" d="M599.98,869.16c-.19,1.17-.69,2.6-.02,3.68.44.66,1.42.88,2.11.47,1.19-.73.88-2.77,1.25-4.06,1.26-3.68.67-9.33,4.11-11.72,1.87-1.34,4.76-1.41,7.11-1.36,11.09.29,22.09-1.65,33.16-1.23,1.52,0,4.3.58,4.73-1.34v-.09c-.41-2.1-3.43-1.34-5.07-1.42-11.14.19-22.36-.41-33.49.23-4.28.43-8.29,2.49-12.47,3.57-5.53,1.36-11.32.47-16.44-1.92-5.61-2.43-11.07-5.2-16.39-8.19-1.13-.58-2.17-1.48-3.37-1.7-1.25-.25-3.2,1.51-1.64,2.49,11.25,5.62,21.27,14.31,35.18,13.61.61-.04,1.54-.09,1.92.27.33.27.36.78.33,1.21-.26,2.43-.51,5-1.01,7.5Z"/>
        <path class="cls-1" d="M743.14,871.37c6.89.37,13.27,2.26,18.2,7.06,2.46,2.73,5.27,5.29,9.12,5.51,3.33.49,6.34,1.66,9.26,3.12,1.08.64,3.5,1.45,3.8-.25v-.08c-.02-.47-.47-.96-.86-1.3-5.61-5.31-14.09-4.38-19.75-9.48-3.78-3.64-6.65-6.45-12.16-6.84-5.67-.83-11.34-1.81-16.98-2.69-1.62-.33-3.63-1.87-5.05-.3-1.03,1.29.66,2.77,1.96,3.09,4.1.99,8.26,1.86,12.47,2.17Z"/>
        <path class="cls-1" d="M565.77,829.58c-2.28-1.5-4.7-2.86-6.9-4.5-1.59-1.15-3.04-2.5-4.41-3.91-2.65-2.68-5.63-4.93-8.92-6.74-4.56-2.29-9.22-4.45-13.46-7.27-3.62-2.3-7.14-4.79-10.64-7.25-1.86-1.2-3.36-3.1-5.65-3.56-.87-.17-2.13-.08-2.33.32l-.03.06c-.09.23.11.53.46.84,4.05,3.4,8.21,6.67,12.55,9.67,8.78,6.29,19.34,9.83,27.36,17.18,1.53,1.35,2.9,2.89,4.57,4.07,1.8,1.31,3.8,2.37,5.72,3.54.97.6,2.59,1.63,3.53.84,1.25-1.23-.87-2.6-1.84-3.31Z"/>
        <path class="cls-1" d="M831.45,1430.25c-16.41-41.12-34.54-81.53-53.25-121.65-14.94-34.81-28.87-70.77-35.29-108.2-.05-1.27-.58-3.53-1.78-3.76h-.07c-2.22.83-.9,5.33-.65,7.77.61,4.08,1.38,8.22,2.26,12.28,7.29,31.17,18.06,61.54,31.02,90.77,20.11,44.03,41.49,87.58,58.45,132.95.76,2.2,1.2,4.21,2.85,6.08.3.33.73.71,1.16.59.39-.2.43-.76.42-1.19-.09-1.71-.74-3.13-1.22-4.71-1.21-3.68-2.52-7.32-3.9-10.94Z"/>
        <path class="cls-1" d="M880.85,853.06c-5.25-15.11-24.27-12.88-37.45-10.06-19.93,3.94-26.57,25.06-22.27,42.84,2.89,16.49,16.81,22.98,32.31,22.87h.12c6.07.26,12.04-1.21,17.77-2.91,2.32-.71,4.62-1.58,6.69-2.85,6.87-3.89,8.47-12.41,8.71-19.66.37-7.9-1.33-15.72-3.5-23.28-.63-2.18-1.45-4.8-2.39-6.96ZM880.89,893.33c-.37,2.52-1.78,4.75-4.19,5.77-5.74,2.34-11.79,3.87-17.92,4.9-4.63.71-8.99.32-13.44-.46-11.59-1.2-20.05-9.04-20.76-20.86-.6-7.68-.1-15.69,2.55-23.01,3.23-7.71,10.11-10.88,17.32-12.91,4.3-1.19,9-1.05,13.47-.98h.12c3.62.45,7.59-.04,11.38,1.02,4.67,1.3,7.08,4.73,8.3,8.97,1.44,4.72,2.57,9.54,3.43,14.45.58,3.45,1.2,7.01,1.18,10.51,0,4.29-.69,8.4-1.44,12.62Z"/>
        <path class="cls-1" d="M943.01,836.48c-.82.26-.62,1.27-.31,1.95,7.76,18.37,4.23,37.78,4.91,56.93h.07c.6.1,1.85-1.12,2.34-1.89.76-1.05.67-2.34.72-3.59.14-3.13,1.1-6.16,1.27-9.3-.37-14.04-.26-28.58-5.42-41.84-.51-1.5-1.9-2.8-3.59-2.26Z"/>
        <path class="cls-1" d="M923.48,831.76c-.3.1-.48.52-.63.84-1.46,3.26-1.12,6.8-.54,10.19,1.61,9.74,2.62,19.57,2.72,29.42.08,4.64.99,9.23,1.22,13.85.27,2.05-.34,4.2.21,6.17.71,1.43,2.15,2.29,2.2.11,1.54-20.73-1.24-40.98-5.15-60.58h-.04Z"/>
        <path class="cls-1" d="M1207.67,921.49c-1.06.36-1.07,2.25-.68,3.28,3.15,13.54,5.37,27.42,3,41.24-.29,1.41-.43,3.86,1.11,4.36h.07c6.31-9.73,3.16-40.21-2.72-48.59-.22-.26-.48-.39-.77-.29Z"/>
        <path class="cls-1" d="M962.75,837.52c-1.04-.08-1.07,1.35-.79,2.14,3.09,11.73,5.18,23.63,4.75,35.83.16.78.89,1.64,1.67,1.89.53-.11.43-.88.52-1.35,1.07-13.57,1.31-27.09-6.08-38.5l-.07-.02Z"/>
        <path class="cls-1" d="M572.83,795.52c-5.88-3.68-10.93-8.68-17.33-11.51-2.07-.96-4.26-1.62-6.45-2.37-8.46-2.87-9.69-4.06-13.55-12.16-1.37-2.7-2.48-5.41-3.39-8.26-.5-1.13-1.66-2.93-2.89-2.77-.76.11-1.07.94-.97,1.77.07.59.33,1.22.57,1.78,1.43,3.2,2.78,6.34,4.05,9.65,2.95,8.21,9.2,12.28,17.74,13.86,2.78.77,5.45,2.04,7.84,3.66,6.3,4.25,12.37,8.86,19.22,13.03.38.23,1.04.66,1.37.49l.05-.03c.18-.16.23-.46.21-.74-.05-.99-.31-2.13-.93-2.71-1.59-1.43-3.76-2.45-5.53-3.69Z"/>
        <path class="cls-1" d="M779.5,811.26c-7.26-4.82-16.41-5.03-24.77-6.41-2.71-.62-5.45-.38-8.21-.89-1.42-.26-2.85-.87-4.28-.37-.78.25-1.75,1.08-1.66,1.68v.08c.09.44.78.69,1.24.82,5.81,1.71,11.72,2.43,17.67,3.22,6.61.83,13.2,1.68,19.09,5.18,1.02.59,2.89,1.98,3.69.47.46-1.6-1.68-2.88-2.76-3.76Z"/>
        <path class="cls-1" d="M644.5,813.7v.11c.31,2.33,3.22,2.03,5,1.99,8.05-.11,15.8,2.45,23.66,3.91,2.6.55,5.13,1.18,7.67,1.99.69.19,1.41.38,2.12.27,1.13-.14,2.27-1.52.87-2.19-11.76-4.56-24-6.53-36.31-7.85-1.25-.18-2.92.34-3.01,1.77Z"/>
        <path class="cls-1" d="M905.45,728.2c-.36,3.47.83,4.63,4.06,5.52,3.75,1.13,7.76,1.35,11.45,2.88,1.05.51,1.13,1.71,1.06,2.75-.03.55-.05,1.2-.5,1.57-.74.53-1.97-.17-2.82-.08-.87.02-2.02.45-2.2,1.39v.09c-.05.81,1.06,1.24,1.77,1.44,7.41,2.05,14.86,4.09,22.31,6,1.6.49,4.28.96,4.44-1.34-.08-.62-.63-.93-1.2-1.1-4.69-1.38-9.31-2.85-14-3.94-1.5-.38-3.45-.64-4.32-2.04-1.09-2.22.26-5.26-2.37-6.93-4.13-2.55-9.43-2.09-13.63-4.42-1.79-1.14-1.1-3.68-1.17-5.53.02-1.14-.02-2.33-.32-3.46-.29-1.02-.91-2.78-1.78-1.67-1.41,2.85-.68,6.05-.78,8.86Z"/>
        <path class="cls-1" d="M935.51,752.02c-.25,3.81-.05,7.7-.15,11.55,0,.26-.05.74.06.88l.03.03c.22.1.51-.09.74-.14.95-.24,1.83-.45,1.93-1.49.34-3.96.89-8-.25-11.95-.53-1.88-2.28-.07-2.37,1.12Z"/>
        <path class="cls-1" d="M503.04,724.85c11.61-4.14,24.13-6.52,36.01-12.32l.03-.03c-5.33-1.82-31.11,6.99-37.39,10.95-.82.7.48,1.53,1.35,1.4Z"/>
        <path class="cls-1" d="M586.8,760.13c6.94-1.36,13.88-2.84,20.84-5.72.37-.17.74-.3.95-.62.11-.14.02-.4-.06-.58-.66-1.05-1.83-1.06-2.91-.74-5.58,1.2-11.18,2.19-16.6,4.17-1.48.43-3.5,1.95-3.46,3.47l.02.04c.19.26.85.03,1.22-.03Z"/>
        <path class="cls-1" d="M476.62,710.05c1.89-1.13-.19-2.84-1.66-2.16-4.92,1.65-9.87,3.33-14.66,5.29-.79.36-1.6.85-1.96,1.65-.34.69-.16,1.84.28,2.1l.07.04c.42.19.92-.19,1.35-.39,5.23-2.62,11.43-3.05,16.6-6.53Z"/>
        <path class="cls-1" d="M597.97,582.75c7.52-3.2,15.02-6.44,22.72-9.13,2.08-.7,4.27-1.66,4.68-4.05.45-2.51,1.45-.33,1.65.88.2,5.08.02,10.22.11,15.32.03.78.12,1.65.56,2.28.75,1.14,2.63.88,2.98-.48.23-.76.06-1.68-.09-2.47-1.14-5.48-.31-10.98-.48-16.57-.09-1.1.35-2.06,1.43-2.47,8.78-3.5,17.46-6.9,26.45-10.47.46-.17,1.12-.47,1.18-.92v-.07c.05-.55-.84-1.23-1.6-1.3-.69-.07-1.32.14-2,.38-8.05,3.13-16.26,5.89-24.3,8.99-3.42,1.28-6.9,2.45-10.16,4.12-1.05.64-2.63,1.03-2.82,2.29-.03.42.09.91.09,1.35-.1,2.17-3.04,1.83-4.56,2.56-5.29,1.72-10.21,4.4-15.43,6.26-1.58.69-5.25,1.3-5.22,3.43.73,1.92,3.42.66,4.81.07Z"/>
        <path class="cls-1" d="M643.28,548.87c7.17-1.72,14.34-4.68,21.04-8.71l.02-.04c-3.41-2.04-19.67,4.66-22.21,8.74.07.27.83.08,1.15.01Z"/>
        <path class="cls-1" d="M876.71,864.25c-.9-4.32-2.11-8.6-3.64-12.84-.09-.28-.18-.51-.29-.69-.35-.64-.76-.75-1.05-.49,0,0-.01,0-.02.01-.02.02-.03.04-.05.06-.14.16-.25.43-.29.77,0,.01,0,.03,0,.04,0,.08-.02.16-.02.25,0,.21.01.45.06.7,0,.01,0,.03,0,.04.46,4.36,1.27,8.69,2.02,13.03.92,5.53,1.72,11.08,1.71,16.68,0,.2,0,.4,0,.6,0,.21-.01.42-.02.63-.06,1.44-.18,2.88-.38,4.32-.08.48-.14,1.03-.1,1.56,0,.02,0,.04,0,.06.01.27.08.55.2.82.05.14.12.26.19.38,0,0,0,0,0,0,.05.08.1.15.16.22.21.25.47.43.76.48h.09c1.95-.11,2.7-2.93,2.6-4.65.19-7.46-.45-14.78-1.95-21.98Z"/>
      </g>
    </g>
  </g>
  <g id="Capa_3" data-name="Capa 3">
    <text class="cls-3" transform="translate(665.35 397.29) rotate(-7.54)"><tspan x="0" y="0">C</tspan></text>
    <text class="cls-3" transform="translate(751.14 386.85) rotate(-3.14)"><tspan x="0" y="0">I</tspan></text>
    <text class="cls-3" transform="translate(785.55 384.12) rotate(.92)"><tspan x="0" y="0">E</tspan></text>
    <text class="cls-3" transform="translate(856.08 385.24) rotate(5.35)"><tspan x="0" y="0">L</tspan></text>
    <text class="cls-3" transform="translate(913.19 389.62) rotate(10.77)"><tspan x="0" y="0">O</tspan></text>
    <text class="cls-5" transform="translate(404.58 1332.21) rotate(33.53)"><tspan x="0" y="0">C</tspan></text>
    <text class="cls-5" transform="translate(544.42 1416.4) rotate(21.91)"><tspan x="0" y="0">E</tspan></text>
    <text class="cls-5" transform="translate(672.76 1463.21) rotate(10.36)"><tspan x="0" y="0">N</tspan></text>
    <text class="cls-5" transform="translate(832.52 1485.58) rotate(-1.45)"><tspan x="0" y="0">T</tspan></text>
    <text class="cls-5" transform="translate(978.2 1476.83) rotate(-13.28)"><tspan x="0" y="0">R</tspan></text>
    <text class="cls-5" transform="translate(1134.25 1433.21) rotate(-25.65)"><tspan x="0" y="0">A</tspan></text>
    <text class="cls-5" transform="translate(1269.06 1361.42) rotate(-36.51)"><tspan x="0" y="0">L</tspan></text>
    <text class="cls-4" transform="translate(428.09 398.53) rotate(-38.65)"><tspan x="0" y="0">T</tspan></text>
    <text class="cls-4" transform="translate(546.65 308.84) rotate(-23.8)"><tspan x="0" y="0">E</tspan></text>
    <text class="cls-4" transform="translate(671.23 255.11) rotate(-7.85)"><tspan x="0" y="0">R</tspan></text>
    <text class="cls-4" transform="translate(837.02 235.37) rotate(9.5)"><tspan x="0" y="0">C</tspan></text>
    <text class="cls-4" transform="translate(1005.51 269.59) rotate(25.64)"><tspan x="0" y="0">E</tspan></text>
    <text class="cls-4" transform="translate(1127.47 329.4) rotate(41.43)"><tspan x="0" y="0">R</tspan></text>
  </g>
</svg>